{"glyphs":{"0":{"ha":781,"x_min":87,"x_max":694,"o":"m 521 0 l 434 0 l 347 0 l 260 0 l 174 0 l 174 87 l 87 87 l 87 174 l 87 260 l 87 347 l 87 434 l 87 521 l 87 608 l 87 694 l 87 781 l 87 868 l 174 868 l 174 955 l 260 955 l 347 955 l 434 955 l 521 955 l 608 955 l 608 868 l 694 868 l 694 781 l 694 694 l 694 608 l 694 521 l 694 434 l 694 347 l 694 260 l 694 174 l 694 87 l 608 87 l 608 0 l 521 0 m 521 174 l 521 260 l 521 347 l 521 434 l 521 521 l 434 521 l 434 434 l 434 347 l 434 260 l 434 174 l 521 174 m 347 434 l 347 521 l 347 608 l 347 694 l 347 781 l 260 781 l 260 694 l 260 608 l 260 521 l 260 434 l 347 434 z "},"1":{"ha":781,"x_min":174,"x_max":694,"o":"m 608 0 l 521 0 l 434 0 l 347 0 l 260 0 l 174 0 l 174 87 l 174 174 l 260 174 l 347 174 l 347 260 l 347 347 l 347 434 l 347 521 l 347 608 l 260 608 l 174 608 l 174 694 l 174 781 l 260 781 l 260 868 l 347 868 l 347 955 l 434 955 l 521 955 l 521 868 l 521 781 l 521 694 l 521 608 l 521 521 l 521 434 l 521 347 l 521 260 l 521 174 l 608 174 l 694 174 l 694 87 l 694 0 l 608 0 z "},"2":{"ha":694,"x_min":87,"x_max":608,"o":"m 521 0 l 434 0 l 347 0 l 260 0 l 174 0 l 87 0 l 87 87 l 87 174 l 87 260 l 174 260 l 174 347 l 260 347 l 260 434 l 347 434 l 347 521 l 434 521 l 434 608 l 434 694 l 434 781 l 347 781 l 260 781 l 260 694 l 174 694 l 87 694 l 87 781 l 87 868 l 174 868 l 174 955 l 260 955 l 347 955 l 434 955 l 521 955 l 521 868 l 608 868 l 608 781 l 608 694 l 608 608 l 608 521 l 608 434 l 521 434 l 521 347 l 434 347 l 434 260 l 434 174 l 521 174 l 608 174 l 608 87 l 608 0 l 521 0 z "},"3":{"ha":694,"x_min":87,"x_max":608,"o":"m 434 0 l 347 0 l 260 0 l 174 0 l 174 87 l 87 87 l 87 174 l 87 260 l 174 260 l 260 260 l 260 174 l 347 174 l 434 174 l 434 260 l 434 347 l 347 347 l 347 434 l 347 521 l 347 608 l 434 608 l 434 694 l 434 781 l 347 781 l 260 781 l 260 694 l 174 694 l 87 694 l 87 781 l 87 868 l 174 868 l 174 955 l 260 955 l 347 955 l 434 955 l 521 955 l 521 868 l 608 868 l 608 781 l 608 694 l 608 608 l 608 521 l 521 521 l 521 434 l 608 434 l 608 347 l 608 260 l 608 174 l 608 87 l 521 87 l 521 0 l 434 0 z "},"4":{"ha":781,"x_min":87,"x_max":694,"o":"m 521 0 l 434 0 l 434 87 l 434 174 l 434 260 l 347 260 l 260 260 l 174 260 l 87 260 l 87 347 l 87 434 l 87 521 l 87 608 l 174 608 l 174 694 l 260 694 l 260 781 l 347 781 l 347 868 l 434 868 l 434 955 l 521 955 l 608 955 l 608 868 l 608 781 l 608 694 l 608 608 l 608 521 l 608 434 l 694 434 l 694 347 l 694 260 l 608 260 l 608 174 l 608 87 l 608 0 l 521 0 m 347 434 l 434 434 l 434 521 l 434 608 l 347 608 l 347 521 l 260 521 l 260 434 l 347 434 z "},"5":{"ha":694,"x_min":87,"x_max":608,"o":"m 434 0 l 347 0 l 260 0 l 174 0 l 174 87 l 87 87 l 87 174 l 87 260 l 174 260 l 260 260 l 260 174 l 347 174 l 434 174 l 434 260 l 434 347 l 434 434 l 347 434 l 260 434 l 174 434 l 87 434 l 87 521 l 87 608 l 87 694 l 87 781 l 87 868 l 87 955 l 174 955 l 260 955 l 347 955 l 434 955 l 521 955 l 608 955 l 608 868 l 608 781 l 521 781 l 434 781 l 347 781 l 260 781 l 260 694 l 260 608 l 347 608 l 434 608 l 521 608 l 521 521 l 608 521 l 608 434 l 608 347 l 608 260 l 608 174 l 608 87 l 521 87 l 521 0 l 434 0 z "},"6":{"ha":694,"x_min":87,"x_max":608,"o":"m 434 0 l 347 0 l 260 0 l 174 0 l 174 87 l 87 87 l 87 174 l 87 260 l 87 347 l 87 434 l 87 521 l 87 608 l 87 694 l 87 781 l 87 868 l 174 868 l 174 955 l 260 955 l 347 955 l 434 955 l 521 955 l 521 868 l 608 868 l 608 781 l 608 694 l 521 694 l 434 694 l 434 781 l 347 781 l 260 781 l 260 694 l 260 608 l 347 608 l 434 608 l 521 608 l 521 521 l 608 521 l 608 434 l 608 347 l 608 260 l 608 174 l 608 87 l 521 87 l 521 0 l 434 0 m 347 174 l 434 174 l 434 260 l 434 347 l 434 434 l 347 434 l 260 434 l 260 347 l 260 260 l 260 174 l 347 174 z "},"7":{"ha":781,"x_min":87,"x_max":694,"o":"m 347 0 l 260 0 l 260 87 l 260 174 l 260 260 l 260 347 l 260 434 l 260 521 l 347 521 l 347 608 l 434 608 l 434 694 l 521 694 l 521 781 l 434 781 l 347 781 l 260 781 l 174 781 l 87 781 l 87 868 l 87 955 l 174 955 l 260 955 l 347 955 l 434 955 l 521 955 l 608 955 l 694 955 l 694 868 l 694 781 l 694 694 l 694 608 l 608 608 l 608 521 l 521 521 l 521 434 l 434 434 l 434 347 l 434 260 l 434 174 l 434 87 l 434 0 l 347 0 z "},"8":{"ha":694,"x_min":87,"x_max":608,"o":"m 434 0 l 347 0 l 260 0 l 174 0 l 174 87 l 87 87 l 87 174 l 87 260 l 87 347 l 87 434 l 87 521 l 174 521 l 174 608 l 87 608 l 87 694 l 87 781 l 87 868 l 174 868 l 174 955 l 260 955 l 347 955 l 434 955 l 521 955 l 521 868 l 608 868 l 608 781 l 608 694 l 608 608 l 521 608 l 521 521 l 608 521 l 608 434 l 608 347 l 608 260 l 608 174 l 608 87 l 521 87 l 521 0 l 434 0 m 347 174 l 434 174 l 434 260 l 434 347 l 434 434 l 347 434 l 260 434 l 260 347 l 260 260 l 260 174 l 347 174 m 347 608 l 434 608 l 434 694 l 434 781 l 347 781 l 260 781 l 260 694 l 260 608 l 347 608 z "},"9":{"ha":694,"x_min":87,"x_max":608,"o":"m 434 0 l 347 0 l 260 0 l 174 0 l 174 87 l 87 87 l 87 174 l 87 260 l 174 260 l 260 260 l 260 174 l 347 174 l 434 174 l 434 260 l 434 347 l 434 434 l 347 434 l 260 434 l 174 434 l 174 521 l 87 521 l 87 608 l 87 694 l 87 781 l 87 868 l 174 868 l 174 955 l 260 955 l 347 955 l 434 955 l 521 955 l 521 868 l 608 868 l 608 781 l 608 694 l 608 608 l 608 521 l 608 434 l 608 347 l 608 260 l 608 174 l 608 87 l 521 87 l 521 0 l 434 0 m 347 608 l 434 608 l 434 694 l 434 781 l 347 781 l 260 781 l 260 694 l 260 608 l 347 608 z "}," ":{"ha":434,"x_min":0,"x_max":0,"o":""},"!":{"ha":347,"x_min":87,"x_max":260,"o":"m 174 0 l 87 0 l 87 87 l 87 174 l 174 174 l 260 174 l 260 87 l 260 0 l 174 0 m 174 260 l 87 260 l 87 347 l 87 434 l 87 521 l 87 608 l 87 694 l 87 781 l 87 868 l 87 955 l 174 955 l 260 955 l 260 868 l 260 781 l 260 694 l 260 608 l 260 521 l 260 434 l 260 347 l 260 260 l 174 260 z "},"\"":{"ha":608,"x_min":87,"x_max":521,"o":"m 434 608 l 347 608 l 347 694 l 347 781 l 347 868 l 347 955 l 434 955 l 521 955 l 521 868 l 521 781 l 521 694 l 521 608 l 434 608 m 174 608 l 87 608 l 87 694 l 87 781 l 87 868 l 87 955 l 174 955 l 260 955 l 260 868 l 260 781 l 260 694 l 260 608 l 174 608 z "},"#":{"ha":781,"x_min":0,"x_max":694,"o":"m 521 0 l 434 0 l 434 87 l 434 174 l 434 260 l 347 260 l 260 260 l 260 174 l 260 87 l 260 0 l 174 0 l 87 0 l 87 87 l 87 174 l 87 260 l 0 260 l 0 347 l 0 434 l 87 434 l 87 521 l 87 608 l 0 608 l 0 694 l 0 781 l 87 781 l 87 868 l 87 955 l 87 1042 l 174 1042 l 260 1042 l 260 955 l 260 868 l 260 781 l 347 781 l 434 781 l 434 868 l 434 955 l 434 1042 l 521 1042 l 608 1042 l 608 955 l 608 868 l 608 781 l 694 781 l 694 694 l 694 608 l 608 608 l 608 521 l 608 434 l 694 434 l 694 347 l 694 260 l 608 260 l 608 174 l 608 87 l 608 0 l 521 0 m 347 434 l 434 434 l 434 521 l 434 608 l 347 608 l 260 608 l 260 521 l 260 434 l 347 434 z "},"$":{"ha":781,"x_min":174,"x_max":694,"o":"m 434 -87 l 347 -87 l 347 0 l 347 87 l 260 87 l 174 87 l 174 174 l 174 260 l 260 260 l 347 260 l 347 347 l 260 347 l 260 434 l 174 434 l 174 521 l 174 608 l 174 694 l 260 694 l 260 781 l 347 781 l 347 868 l 347 955 l 434 955 l 521 955 l 521 868 l 521 781 l 608 781 l 694 781 l 694 694 l 694 608 l 608 608 l 521 608 l 521 521 l 608 521 l 608 434 l 694 434 l 694 347 l 694 260 l 694 174 l 608 174 l 608 87 l 521 87 l 521 0 l 521 -87 l 434 -87 z "},"%":{"ha":1215,"x_min":0,"x_max":1128,"o":"m 868 0 l 781 0 l 781 87 l 694 87 l 694 174 l 608 174 l 608 260 l 608 347 l 521 347 l 521 260 l 521 174 l 434 174 l 434 87 l 347 87 l 347 0 l 260 0 l 174 0 l 174 87 l 174 174 l 260 174 l 260 260 l 347 260 l 347 347 l 260 347 l 174 347 l 174 434 l 87 434 l 87 521 l 0 521 l 0 608 l 0 694 l 0 781 l 87 781 l 87 868 l 174 868 l 174 955 l 260 955 l 347 955 l 347 868 l 434 868 l 434 781 l 521 781 l 521 694 l 521 608 l 608 608 l 608 694 l 608 781 l 694 781 l 694 868 l 781 868 l 781 955 l 868 955 l 955 955 l 955 868 l 955 781 l 868 781 l 868 694 l 781 694 l 781 608 l 694 608 l 694 521 l 781 521 l 781 608 l 868 608 l 955 608 l 955 521 l 1042 521 l 1042 434 l 1128 434 l 1128 347 l 1128 260 l 1128 174 l 1042 174 l 1042 87 l 955 87 l 955 0 l 868 0 m 868 174 l 955 174 l 955 260 l 955 347 l 955 434 l 868 434 l 781 434 l 781 347 l 781 260 l 781 174 l 868 174 m 434 347 l 434 434 l 347 434 l 347 347 l 434 347 m 260 521 l 347 521 l 347 608 l 347 694 l 347 781 l 260 781 l 174 781 l 174 694 l 174 608 l 174 521 l 260 521 z "},"&":{"ha":868,"x_min":87,"x_max":781,"o":"m 694 0 l 608 0 l 521 0 l 434 0 l 347 0 l 260 0 l 174 0 l 174 87 l 87 87 l 87 174 l 87 260 l 87 347 l 87 434 l 174 434 l 174 521 l 174 608 l 87 608 l 87 694 l 87 781 l 87 868 l 174 868 l 174 955 l 260 955 l 260 1042 l 347 1042 l 434 1042 l 521 1042 l 608 1042 l 608 955 l 694 955 l 694 868 l 694 781 l 694 694 l 608 694 l 608 608 l 521 608 l 521 521 l 521 434 l 608 434 l 694 434 l 694 347 l 694 260 l 694 174 l 781 174 l 781 87 l 781 0 l 694 0 m 434 174 l 521 174 l 521 260 l 434 260 l 434 347 l 347 347 l 260 347 l 260 260 l 260 174 l 347 174 l 434 174 m 434 608 l 434 694 l 434 781 l 521 781 l 521 868 l 434 868 l 347 868 l 347 781 l 260 781 l 260 694 l 347 694 l 347 608 l 434 608 z "},"'":{"ha":347,"x_min":87,"x_max":260,"o":"m 174 608 l 87 608 l 87 694 l 87 781 l 87 868 l 87 955 l 174 955 l 260 955 l 260 868 l 260 781 l 260 694 l 260 608 l 174 608 z "},"(":{"ha":434,"x_min":87,"x_max":347,"o":"m 260 -87 l 174 -87 l 174 0 l 174 87 l 87 87 l 87 174 l 87 260 l 87 347 l 87 434 l 87 521 l 87 608 l 87 694 l 87 781 l 174 781 l 174 868 l 174 955 l 260 955 l 347 955 l 347 868 l 347 781 l 260 781 l 260 694 l 260 608 l 260 521 l 260 434 l 260 347 l 260 260 l 260 174 l 260 87 l 347 87 l 347 0 l 347 -87 l 260 -87 z "},")":{"ha":521,"x_min":174,"x_max":434,"o":"m 260 -87 l 174 -87 l 174 0 l 174 87 l 260 87 l 260 174 l 260 260 l 260 347 l 260 434 l 260 521 l 260 608 l 260 694 l 260 781 l 174 781 l 174 868 l 174 955 l 260 955 l 347 955 l 347 868 l 347 781 l 434 781 l 434 694 l 434 608 l 434 521 l 434 434 l 434 347 l 434 260 l 434 174 l 434 87 l 347 87 l 347 0 l 347 -87 l 260 -87 z "},"*":{"ha":608,"x_min":0,"x_max":521,"o":"m 434 521 l 347 521 l 347 608 l 260 608 l 174 608 l 174 521 l 87 521 l 0 521 l 0 608 l 0 694 l 87 694 l 87 781 l 0 781 l 0 868 l 0 955 l 87 955 l 174 955 l 174 1042 l 260 1042 l 347 1042 l 347 955 l 434 955 l 521 955 l 521 868 l 521 781 l 434 781 l 434 694 l 521 694 l 521 608 l 521 521 l 434 521 z "},"+":{"ha":694,"x_min":87,"x_max":608,"o":"m 347 174 l 260 174 l 260 260 l 260 347 l 174 347 l 87 347 l 87 434 l 87 521 l 174 521 l 260 521 l 260 608 l 260 694 l 347 694 l 434 694 l 434 608 l 434 521 l 521 521 l 608 521 l 608 434 l 608 347 l 521 347 l 434 347 l 434 260 l 434 174 l 347 174 z "},",":{"ha":347,"x_min":87,"x_max":260,"o":"m 87 -174 l 87 -87 l 174 -87 l 174 -174 l 87 -174 m 174 -87 l 174 0 l 87 0 l 87 87 l 87 174 l 174 174 l 260 174 l 260 87 l 260 0 l 260 -87 l 174 -87 z "},"-":{"ha":694,"x_min":87,"x_max":608,"o":"m 521 347 l 434 347 l 347 347 l 260 347 l 174 347 l 87 347 l 87 434 l 87 521 l 174 521 l 260 521 l 347 521 l 434 521 l 521 521 l 608 521 l 608 434 l 608 347 l 521 347 z "},".":{"ha":347,"x_min":87,"x_max":260,"o":"m 174 0 l 87 0 l 87 87 l 87 174 l 174 174 l 260 174 l 260 87 l 260 0 l 174 0 z "},"/":{"ha":608,"x_min":0,"x_max":521,"o":"m 87 0 l 0 0 l 0 87 l 0 174 l 0 260 l 87 260 l 87 347 l 87 434 l 174 434 l 174 521 l 174 608 l 174 694 l 260 694 l 260 781 l 260 868 l 347 868 l 347 955 l 347 1042 l 434 1042 l 521 1042 l 521 955 l 521 868 l 521 781 l 434 781 l 434 694 l 434 608 l 347 608 l 347 521 l 347 434 l 347 347 l 260 347 l 260 260 l 260 174 l 174 174 l 174 87 l 174 0 l 87 0 z "},":":{"ha":347,"x_min":87,"x_max":260,"o":"m 174 0 l 87 0 l 87 87 l 87 174 l 174 174 l 260 174 l 260 87 l 260 0 l 174 0 m 174 521 l 87 521 l 87 608 l 87 694 l 174 694 l 260 694 l 260 608 l 260 521 l 174 521 z "},";":{"ha":347,"x_min":87,"x_max":260,"o":"m 87 -174 l 87 -87 l 174 -87 l 174 -174 l 87 -174 m 174 -87 l 174 0 l 87 0 l 87 87 l 87 174 l 174 174 l 260 174 l 260 87 l 260 0 l 260 -87 l 174 -87 m 174 521 l 87 521 l 87 608 l 87 694 l 174 694 l 260 694 l 260 608 l 260 521 l 174 521 z "},"<":{"ha":955,"x_min":0,"x_max":868,"o":"m 781 87 l 694 87 l 608 87 l 521 87 l 521 174 l 434 174 l 347 174 l 347 260 l 260 260 l 174 260 l 174 347 l 87 347 l 0 347 l 0 434 l 0 521 l 87 521 l 174 521 l 174 608 l 260 608 l 347 608 l 347 694 l 434 694 l 521 694 l 521 781 l 608 781 l 694 781 l 781 781 l 868 781 l 868 694 l 868 608 l 781 608 l 694 608 l 694 521 l 608 521 l 521 521 l 434 521 l 434 434 l 434 347 l 521 347 l 608 347 l 694 347 l 694 260 l 781 260 l 868 260 l 868 174 l 868 87 l 781 87 z "},"=":{"ha":694,"x_min":87,"x_max":608,"o":"m 521 174 l 434 174 l 347 174 l 260 174 l 174 174 l 87 174 l 87 260 l 87 347 l 174 347 l 260 347 l 347 347 l 434 347 l 521 347 l 608 347 l 608 260 l 608 174 l 521 174 m 521 521 l 434 521 l 347 521 l 260 521 l 174 521 l 87 521 l 87 608 l 87 694 l 174 694 l 260 694 l 347 694 l 434 694 l 521 694 l 608 694 l 608 608 l 608 521 l 521 521 z "},">":{"ha":955,"x_min":0,"x_max":868,"o":"m 260 87 l 174 87 l 87 87 l 0 87 l 0 174 l 0 260 l 87 260 l 174 260 l 174 347 l 260 347 l 347 347 l 434 347 l 434 434 l 434 521 l 347 521 l 260 521 l 174 521 l 174 608 l 87 608 l 0 608 l 0 694 l 0 781 l 87 781 l 174 781 l 260 781 l 347 781 l 347 694 l 434 694 l 521 694 l 521 608 l 608 608 l 694 608 l 694 521 l 781 521 l 868 521 l 868 434 l 868 347 l 781 347 l 694 347 l 694 260 l 608 260 l 521 260 l 521 174 l 434 174 l 347 174 l 347 87 l 260 87 z "},"?":{"ha":694,"x_min":87,"x_max":608,"o":"m 347 0 l 260 0 l 260 87 l 260 174 l 347 174 l 434 174 l 434 87 l 434 0 l 347 0 m 347 260 l 260 260 l 260 347 l 260 434 l 260 521 l 347 521 l 347 608 l 434 608 l 434 694 l 434 781 l 347 781 l 260 781 l 260 694 l 174 694 l 87 694 l 87 781 l 87 868 l 174 868 l 174 955 l 260 955 l 347 955 l 434 955 l 521 955 l 521 868 l 608 868 l 608 781 l 608 694 l 608 608 l 608 521 l 521 521 l 521 434 l 434 434 l 434 347 l 434 260 l 347 260 z "},"@":{"ha":1215,"x_min":87,"x_max":1128,"o":"m 955 -260 l 868 -260 l 781 -260 l 694 -260 l 608 -260 l 521 -260 l 434 -260 l 347 -260 l 260 -260 l 260 -174 l 174 -174 l 174 -87 l 87 -87 l 87 0 l 87 87 l 87 174 l 87 260 l 87 347 l 87 434 l 87 521 l 87 608 l 87 694 l 87 781 l 174 781 l 174 868 l 260 868 l 260 955 l 347 955 l 434 955 l 521 955 l 608 955 l 694 955 l 781 955 l 868 955 l 955 955 l 955 868 l 1042 868 l 1042 781 l 1128 781 l 1128 694 l 1128 608 l 1128 521 l 1128 434 l 1128 347 l 1128 260 l 1128 174 l 1128 87 l 1042 87 l 1042 0 l 955 0 l 868 0 l 781 0 l 694 0 l 608 0 l 521 0 l 434 0 l 434 87 l 347 87 l 347 174 l 347 260 l 347 347 l 347 434 l 347 521 l 347 608 l 434 608 l 434 694 l 521 694 l 608 694 l 694 694 l 781 694 l 781 608 l 868 608 l 868 521 l 868 434 l 868 347 l 868 260 l 868 174 l 955 174 l 955 260 l 955 347 l 955 434 l 955 521 l 955 608 l 955 694 l 868 694 l 868 781 l 781 781 l 694 781 l 608 781 l 521 781 l 434 781 l 347 781 l 347 694 l 260 694 l 260 608 l 260 521 l 260 434 l 260 347 l 260 260 l 260 174 l 260 87 l 260 0 l 347 0 l 347 -87 l 434 -87 l 521 -87 l 608 -87 l 694 -87 l 781 -87 l 868 -87 l 955 -87 l 1042 -87 l 1042 -174 l 1042 -260 l 955 -260 m 608 174 l 694 174 l 694 260 l 694 347 l 694 434 l 694 521 l 608 521 l 521 521 l 521 434 l 521 347 l 521 260 l 521 174 l 608 174 z "},"A":{"ha":868,"x_min":87,"x_max":781,"o":"m 694 0 l 608 0 l 608 87 l 608 174 l 608 260 l 608 347 l 521 347 l 434 347 l 347 347 l 260 347 l 260 260 l 260 174 l 260 87 l 260 0 l 174 0 l 87 0 l 87 87 l 87 174 l 87 260 l 87 347 l 87 434 l 87 521 l 87 608 l 87 694 l 87 781 l 174 781 l 174 868 l 260 868 l 260 955 l 347 955 l 434 955 l 521 955 l 608 955 l 608 868 l 694 868 l 694 781 l 781 781 l 781 694 l 781 608 l 781 521 l 781 434 l 781 347 l 781 260 l 781 174 l 781 87 l 781 0 l 694 0 m 521 521 l 608 521 l 608 608 l 608 694 l 521 694 l 521 781 l 434 781 l 347 781 l 347 694 l 260 694 l 260 608 l 260 521 l 347 521 l 434 521 l 521 521 z "},"B":{"ha":868,"x_min":87,"x_max":781,"o":"m 608 0 l 521 0 l 434 0 l 347 0 l 260 0 l 174 0 l 87 0 l 87 87 l 87 174 l 87 260 l 87 347 l 87 434 l 87 521 l 87 608 l 87 694 l 87 781 l 87 868 l 87 955 l 174 955 l 260 955 l 347 955 l 434 955 l 521 955 l 608 955 l 694 955 l 694 868 l 781 868 l 781 781 l 781 694 l 781 608 l 781 521 l 694 521 l 694 434 l 781 434 l 781 347 l 781 260 l 781 174 l 781 87 l 694 87 l 694 0 l 608 0 m 521 174 l 608 174 l 608 260 l 608 347 l 608 434 l 521 434 l 434 434 l 347 434 l 260 434 l 260 347 l 260 260 l 260 174 l 347 174 l 434 174 l 521 174 m 521 608 l 608 608 l 608 694 l 608 781 l 521 781 l 434 781 l 347 781 l 260 781 l 260 694 l 260 608 l 347 608 l 434 608 l 521 608 z "},"C":{"ha":868,"x_min":174,"x_max":781,"o":"m 608 0 l 521 0 l 434 0 l 347 0 l 260 0 l 260 87 l 174 87 l 174 174 l 174 260 l 174 347 l 174 434 l 174 521 l 174 608 l 174 694 l 174 781 l 174 868 l 260 868 l 260 955 l 347 955 l 434 955 l 521 955 l 608 955 l 694 955 l 694 868 l 781 868 l 781 781 l 781 694 l 694 694 l 608 694 l 608 781 l 521 781 l 434 781 l 347 781 l 347 694 l 347 608 l 347 521 l 347 434 l 347 347 l 347 260 l 347 174 l 434 174 l 521 174 l 608 174 l 608 260 l 694 260 l 781 260 l 781 174 l 781 87 l 694 87 l 694 0 l 608 0 z "},"D":{"ha":955,"x_min":174,"x_max":868,"o":"m 694 0 l 608 0 l 521 0 l 434 0 l 347 0 l 260 0 l 174 0 l 174 87 l 174 174 l 174 260 l 174 347 l 174 434 l 174 521 l 174 608 l 174 694 l 174 781 l 174 868 l 174 955 l 260 955 l 347 955 l 434 955 l 521 955 l 608 955 l 694 955 l 781 955 l 781 868 l 868 868 l 868 781 l 868 694 l 868 608 l 868 521 l 868 434 l 868 347 l 868 260 l 868 174 l 868 87 l 781 87 l 781 0 l 694 0 m 608 174 l 694 174 l 694 260 l 694 347 l 694 434 l 694 521 l 694 608 l 694 694 l 694 781 l 608 781 l 521 781 l 434 781 l 347 781 l 347 694 l 347 608 l 347 521 l 347 434 l 347 347 l 347 260 l 347 174 l 434 174 l 521 174 l 608 174 z "},"E":{"ha":781,"x_min":174,"x_max":694,"o":"m 608 0 l 521 0 l 434 0 l 347 0 l 260 0 l 174 0 l 174 87 l 174 174 l 174 260 l 174 347 l 174 434 l 174 521 l 174 608 l 174 694 l 174 781 l 174 868 l 174 955 l 260 955 l 347 955 l 434 955 l 521 955 l 608 955 l 694 955 l 694 868 l 694 781 l 608 781 l 521 781 l 434 781 l 347 781 l 347 694 l 347 608 l 434 608 l 521 608 l 608 608 l 694 608 l 694 521 l 694 434 l 608 434 l 521 434 l 434 434 l 347 434 l 347 347 l 347 260 l 347 174 l 434 174 l 521 174 l 608 174 l 694 174 l 694 87 l 694 0 l 608 0 z "},"F":{"ha":781,"x_min":174,"x_max":694,"o":"m 260 0 l 174 0 l 174 87 l 174 174 l 174 260 l 174 347 l 174 434 l 174 521 l 174 608 l 174 694 l 174 781 l 174 868 l 174 955 l 260 955 l 347 955 l 434 955 l 521 955 l 608 955 l 694 955 l 694 868 l 694 781 l 608 781 l 521 781 l 434 781 l 347 781 l 347 694 l 347 608 l 434 608 l 521 608 l 608 608 l 694 608 l 694 521 l 694 434 l 608 434 l 521 434 l 434 434 l 347 434 l 347 347 l 347 260 l 347 174 l 347 87 l 347 0 l 260 0 z "},"G":{"ha":868,"x_min":174,"x_max":781,"o":"m 608 0 l 521 0 l 434 0 l 347 0 l 260 0 l 260 87 l 174 87 l 174 174 l 174 260 l 174 347 l 174 434 l 174 521 l 174 608 l 174 694 l 174 781 l 174 868 l 260 868 l 260 955 l 347 955 l 434 955 l 521 955 l 608 955 l 694 955 l 694 868 l 781 868 l 781 781 l 781 694 l 694 694 l 608 694 l 608 781 l 521 781 l 434 781 l 347 781 l 347 694 l 347 608 l 347 521 l 347 434 l 347 347 l 347 260 l 347 174 l 434 174 l 521 174 l 608 174 l 608 260 l 608 347 l 521 347 l 521 434 l 521 521 l 608 521 l 694 521 l 781 521 l 781 434 l 781 347 l 781 260 l 781 174 l 781 87 l 694 87 l 694 0 l 608 0 z "},"H":{"ha":868,"x_min":87,"x_max":781,"o":"m 694 0 l 608 0 l 608 87 l 608 174 l 608 260 l 608 347 l 608 434 l 521 434 l 434 434 l 347 434 l 260 434 l 260 347 l 260 260 l 260 174 l 260 87 l 260 0 l 174 0 l 87 0 l 87 87 l 87 174 l 87 260 l 87 347 l 87 434 l 87 521 l 87 608 l 87 694 l 87 781 l 87 868 l 87 955 l 174 955 l 260 955 l 260 868 l 260 781 l 260 694 l 260 608 l 347 608 l 434 608 l 521 608 l 608 608 l 608 694 l 608 781 l 608 868 l 608 955 l 694 955 l 781 955 l 781 868 l 781 781 l 781 694 l 781 608 l 781 521 l 781 434 l 781 347 l 781 260 l 781 174 l 781 87 l 781 0 l 694 0 z "},"I":{"ha":521,"x_min":87,"x_max":434,"o":"m 347 0 l 260 0 l 174 0 l 87 0 l 87 87 l 87 174 l 174 174 l 174 260 l 174 347 l 174 434 l 174 521 l 174 608 l 174 694 l 174 781 l 87 781 l 87 868 l 87 955 l 174 955 l 260 955 l 347 955 l 434 955 l 434 868 l 434 781 l 347 781 l 347 694 l 347 608 l 347 521 l 347 434 l 347 347 l 347 260 l 347 174 l 434 174 l 434 87 l 434 0 l 347 0 z "},"J":{"ha":694,"x_min":0,"x_max":608,"o":"m 347 0 l 260 0 l 174 0 l 87 0 l 87 87 l 0 87 l 0 174 l 0 260 l 87 260 l 174 260 l 174 174 l 260 174 l 347 174 l 347 260 l 347 347 l 347 434 l 347 521 l 347 608 l 347 694 l 347 781 l 260 781 l 260 868 l 260 955 l 347 955 l 434 955 l 521 955 l 608 955 l 608 868 l 608 781 l 521 781 l 521 694 l 521 608 l 521 521 l 521 434 l 521 347 l 521 260 l 521 174 l 521 87 l 434 87 l 434 0 l 347 0 z "},"K":{"ha":868,"x_min":87,"x_max":781,"o":"m 694 0 l 608 0 l 608 87 l 521 87 l 521 174 l 434 174 l 434 260 l 347 260 l 347 347 l 260 347 l 260 260 l 260 174 l 260 87 l 260 0 l 174 0 l 87 0 l 87 87 l 87 174 l 87 260 l 87 347 l 87 434 l 87 521 l 87 608 l 87 694 l 87 781 l 87 868 l 87 955 l 174 955 l 260 955 l 260 868 l 260 781 l 260 694 l 260 608 l 347 608 l 347 694 l 434 694 l 434 781 l 521 781 l 521 868 l 608 868 l 608 955 l 694 955 l 781 955 l 781 868 l 781 781 l 694 781 l 694 694 l 608 694 l 608 608 l 521 608 l 521 521 l 434 521 l 434 434 l 521 434 l 521 347 l 608 347 l 608 260 l 694 260 l 694 174 l 781 174 l 781 87 l 781 0 l 694 0 z "},"L":{"ha":694,"x_min":87,"x_max":608,"o":"m 521 0 l 434 0 l 347 0 l 260 0 l 174 0 l 87 0 l 87 87 l 87 174 l 87 260 l 87 347 l 87 434 l 87 521 l 87 608 l 87 694 l 87 781 l 87 868 l 87 955 l 174 955 l 260 955 l 260 868 l 260 781 l 260 694 l 260 608 l 260 521 l 260 434 l 260 347 l 260 260 l 260 174 l 347 174 l 434 174 l 521 174 l 608 174 l 608 87 l 608 0 l 521 0 z "},"M":{"ha":1042,"x_min":87,"x_max":955,"o":"m 868 0 l 781 0 l 781 87 l 781 174 l 781 260 l 781 347 l 781 434 l 781 521 l 781 608 l 694 608 l 694 521 l 608 521 l 608 434 l 521 434 l 434 434 l 434 521 l 347 521 l 347 608 l 260 608 l 260 521 l 260 434 l 260 347 l 260 260 l 260 174 l 260 87 l 260 0 l 174 0 l 87 0 l 87 87 l 87 174 l 87 260 l 87 347 l 87 434 l 87 521 l 87 608 l 87 694 l 87 781 l 87 868 l 87 955 l 174 955 l 260 955 l 260 868 l 347 868 l 347 781 l 434 781 l 434 694 l 521 694 l 608 694 l 608 781 l 694 781 l 694 868 l 781 868 l 781 955 l 868 955 l 955 955 l 955 868 l 955 781 l 955 694 l 955 608 l 955 521 l 955 434 l 955 347 l 955 260 l 955 174 l 955 87 l 955 0 l 868 0 z "},"N":{"ha":955,"x_min":87,"x_max":868,"o":"m 781 0 l 694 0 l 694 87 l 608 87 l 608 174 l 521 174 l 521 260 l 434 260 l 434 347 l 347 347 l 347 434 l 347 521 l 260 521 l 260 434 l 260 347 l 260 260 l 260 174 l 260 87 l 260 0 l 174 0 l 87 0 l 87 87 l 87 174 l 87 260 l 87 347 l 87 434 l 87 521 l 87 608 l 87 694 l 87 781 l 87 868 l 87 955 l 174 955 l 260 955 l 260 868 l 347 868 l 347 781 l 434 781 l 434 694 l 521 694 l 521 608 l 608 608 l 608 521 l 608 434 l 694 434 l 694 521 l 694 608 l 694 694 l 694 781 l 694 868 l 694 955 l 781 955 l 868 955 l 868 868 l 868 781 l 868 694 l 868 608 l 868 521 l 868 434 l 868 347 l 868 260 l 868 174 l 868 87 l 868 0 l 781 0 z "},"O":{"ha":955,"x_min":174,"x_max":868,"o":"m 694 0 l 608 0 l 521 0 l 434 0 l 347 0 l 260 0 l 260 87 l 174 87 l 174 174 l 174 260 l 174 347 l 174 434 l 174 521 l 174 608 l 174 694 l 174 781 l 174 868 l 260 868 l 260 955 l 347 955 l 434 955 l 521 955 l 608 955 l 694 955 l 781 955 l 781 868 l 868 868 l 868 781 l 868 694 l 868 608 l 868 521 l 868 434 l 868 347 l 868 260 l 868 174 l 868 87 l 781 87 l 781 0 l 694 0 m 608 174 l 694 174 l 694 260 l 694 347 l 694 434 l 694 521 l 694 608 l 694 694 l 694 781 l 608 781 l 521 781 l 434 781 l 347 781 l 347 694 l 347 608 l 347 521 l 347 434 l 347 347 l 347 260 l 347 174 l 434 174 l 521 174 l 608 174 z "},"P":{"ha":781,"x_min":87,"x_max":694,"o":"m 174 0 l 87 0 l 87 87 l 87 174 l 87 260 l 87 347 l 87 434 l 87 521 l 87 608 l 87 694 l 87 781 l 87 868 l 87 955 l 174 955 l 260 955 l 347 955 l 434 955 l 521 955 l 608 955 l 608 868 l 694 868 l 694 781 l 694 694 l 694 608 l 694 521 l 694 434 l 608 434 l 608 347 l 521 347 l 434 347 l 347 347 l 260 347 l 260 260 l 260 174 l 260 87 l 260 0 l 174 0 m 434 521 l 521 521 l 521 608 l 521 694 l 521 781 l 434 781 l 347 781 l 260 781 l 260 694 l 260 608 l 260 521 l 347 521 l 434 521 z "},"Q":{"ha":1042,"x_min":174,"x_max":955,"o":"m 868 0 l 781 0 l 694 0 l 608 0 l 521 0 l 434 0 l 347 0 l 260 0 l 260 87 l 174 87 l 174 174 l 174 260 l 174 347 l 174 434 l 174 521 l 174 608 l 174 694 l 174 781 l 174 868 l 260 868 l 260 955 l 347 955 l 434 955 l 521 955 l 608 955 l 694 955 l 781 955 l 781 868 l 868 868 l 868 781 l 868 694 l 868 608 l 868 521 l 868 434 l 868 347 l 868 260 l 868 174 l 868 87 l 955 87 l 955 0 l 868 0 m 521 174 l 608 174 l 608 260 l 694 260 l 694 347 l 694 434 l 694 521 l 694 608 l 694 694 l 694 781 l 608 781 l 521 781 l 434 781 l 347 781 l 347 694 l 347 608 l 347 521 l 347 434 l 347 347 l 347 260 l 347 174 l 434 174 l 521 174 z "},"R":{"ha":868,"x_min":87,"x_max":781,"o":"m 694 0 l 608 0 l 608 87 l 608 174 l 608 260 l 608 347 l 608 434 l 521 434 l 434 434 l 347 434 l 260 434 l 260 347 l 260 260 l 260 174 l 260 87 l 260 0 l 174 0 l 87 0 l 87 87 l 87 174 l 87 260 l 87 347 l 87 434 l 87 521 l 87 608 l 87 694 l 87 781 l 87 868 l 87 955 l 174 955 l 260 955 l 347 955 l 434 955 l 521 955 l 608 955 l 694 955 l 694 868 l 781 868 l 781 781 l 781 694 l 781 608 l 781 521 l 694 521 l 694 434 l 781 434 l 781 347 l 781 260 l 781 174 l 781 87 l 781 0 l 694 0 m 521 608 l 608 608 l 608 694 l 608 781 l 521 781 l 434 781 l 347 781 l 260 781 l 260 694 l 260 608 l 347 608 l 434 608 l 521 608 z "},"S":{"ha":868,"x_min":87,"x_max":781,"o":"m 608 0 l 521 0 l 434 0 l 347 0 l 260 0 l 174 0 l 174 87 l 87 87 l 87 174 l 87 260 l 174 260 l 260 260 l 260 174 l 347 174 l 434 174 l 521 174 l 608 174 l 608 260 l 608 347 l 608 434 l 521 434 l 434 434 l 347 434 l 260 434 l 174 434 l 174 521 l 87 521 l 87 608 l 87 694 l 87 781 l 87 868 l 174 868 l 174 955 l 260 955 l 347 955 l 434 955 l 521 955 l 608 955 l 694 955 l 694 868 l 781 868 l 781 781 l 781 694 l 694 694 l 608 694 l 608 781 l 521 781 l 434 781 l 347 781 l 260 781 l 260 694 l 260 608 l 347 608 l 434 608 l 521 608 l 608 608 l 694 608 l 694 521 l 781 521 l 781 434 l 781 347 l 781 260 l 781 174 l 781 87 l 694 87 l 694 0 l 608 0 z "},"T":{"ha":868,"x_min":87,"x_max":781,"o":"m 434 0 l 347 0 l 347 87 l 347 174 l 347 260 l 347 347 l 347 434 l 347 521 l 347 608 l 347 694 l 347 781 l 260 781 l 174 781 l 87 781 l 87 868 l 87 955 l 174 955 l 260 955 l 347 955 l 434 955 l 521 955 l 608 955 l 694 955 l 781 955 l 781 868 l 781 781 l 694 781 l 608 781 l 521 781 l 521 694 l 521 608 l 521 521 l 521 434 l 521 347 l 521 260 l 521 174 l 521 87 l 521 0 l 434 0 z "},"U":{"ha":955,"x_min":174,"x_max":868,"o":"m 694 0 l 608 0 l 521 0 l 434 0 l 347 0 l 260 0 l 260 87 l 174 87 l 174 174 l 174 260 l 174 347 l 174 434 l 174 521 l 174 608 l 174 694 l 174 781 l 174 868 l 174 955 l 260 955 l 347 955 l 347 868 l 347 781 l 347 694 l 347 608 l 347 521 l 347 434 l 347 347 l 347 260 l 347 174 l 434 174 l 521 174 l 608 174 l 694 174 l 694 260 l 694 347 l 694 434 l 694 521 l 694 608 l 694 694 l 694 781 l 694 868 l 694 955 l 781 955 l 868 955 l 868 868 l 868 781 l 868 694 l 868 608 l 868 521 l 868 434 l 868 347 l 868 260 l 868 174 l 868 87 l 781 87 l 781 0 l 694 0 z "},"V":{"ha":955,"x_min":174,"x_max":868,"o":"m 521 0 l 434 0 l 434 87 l 347 87 l 347 174 l 260 174 l 260 260 l 174 260 l 174 347 l 174 434 l 174 521 l 174 608 l 174 694 l 174 781 l 174 868 l 174 955 l 260 955 l 347 955 l 347 868 l 347 781 l 347 694 l 347 608 l 347 521 l 347 434 l 347 347 l 434 347 l 434 260 l 521 260 l 608 260 l 608 347 l 694 347 l 694 434 l 694 521 l 694 608 l 694 694 l 694 781 l 694 868 l 694 955 l 781 955 l 868 955 l 868 868 l 868 781 l 868 694 l 868 608 l 868 521 l 868 434 l 868 347 l 868 260 l 781 260 l 781 174 l 694 174 l 694 87 l 608 87 l 608 0 l 521 0 z "},"W":{"ha":1042,"x_min":87,"x_max":955,"o":"m 694 0 l 608 0 l 608 87 l 521 87 l 434 87 l 434 0 l 347 0 l 260 0 l 260 87 l 174 87 l 174 174 l 87 174 l 87 260 l 87 347 l 87 434 l 87 521 l 87 608 l 87 694 l 87 781 l 87 868 l 87 955 l 174 955 l 260 955 l 260 868 l 260 781 l 260 694 l 260 608 l 260 521 l 260 434 l 260 347 l 260 260 l 347 260 l 434 260 l 434 347 l 434 434 l 434 521 l 434 608 l 434 694 l 521 694 l 608 694 l 608 608 l 608 521 l 608 434 l 608 347 l 608 260 l 694 260 l 781 260 l 781 347 l 781 434 l 781 521 l 781 608 l 781 694 l 781 781 l 781 868 l 781 955 l 868 955 l 955 955 l 955 868 l 955 781 l 955 694 l 955 608 l 955 521 l 955 434 l 955 347 l 955 260 l 955 174 l 868 174 l 868 87 l 781 87 l 781 0 l 694 0 z "},"X":{"ha":868,"x_min":87,"x_max":781,"o":"m 694 0 l 608 0 l 608 87 l 521 87 l 521 174 l 521 260 l 434 260 l 347 260 l 347 174 l 347 87 l 260 87 l 260 0 l 174 0 l 87 0 l 87 87 l 87 174 l 174 174 l 174 260 l 174 347 l 260 347 l 260 434 l 347 434 l 347 521 l 260 521 l 260 608 l 174 608 l 174 694 l 174 781 l 87 781 l 87 868 l 87 955 l 174 955 l 260 955 l 260 868 l 347 868 l 347 781 l 347 694 l 434 694 l 521 694 l 521 781 l 521 868 l 608 868 l 608 955 l 694 955 l 781 955 l 781 868 l 781 781 l 694 781 l 694 694 l 694 608 l 608 608 l 608 521 l 521 521 l 521 434 l 608 434 l 608 347 l 694 347 l 694 260 l 694 174 l 781 174 l 781 87 l 781 0 l 694 0 z "},"Y":{"ha":868,"x_min":87,"x_max":781,"o":"m 434 0 l 347 0 l 347 87 l 347 174 l 347 260 l 347 347 l 347 434 l 347 521 l 260 521 l 260 608 l 174 608 l 174 694 l 174 781 l 87 781 l 87 868 l 87 955 l 174 955 l 260 955 l 260 868 l 347 868 l 347 781 l 347 694 l 434 694 l 521 694 l 521 781 l 521 868 l 608 868 l 608 955 l 694 955 l 781 955 l 781 868 l 781 781 l 694 781 l 694 694 l 694 608 l 608 608 l 608 521 l 521 521 l 521 434 l 521 347 l 521 260 l 521 174 l 521 87 l 521 0 l 434 0 z "},"Z":{"ha":955,"x_min":0,"x_max":868,"o":"m 781 0 l 694 0 l 608 0 l 521 0 l 434 0 l 347 0 l 260 0 l 174 0 l 87 0 l 0 0 l 0 87 l 0 174 l 87 174 l 87 260 l 174 260 l 174 347 l 260 347 l 260 434 l 347 434 l 347 521 l 347 608 l 434 608 l 434 694 l 521 694 l 521 781 l 434 781 l 347 781 l 260 781 l 174 781 l 87 781 l 0 781 l 0 868 l 0 955 l 87 955 l 174 955 l 260 955 l 347 955 l 434 955 l 521 955 l 608 955 l 694 955 l 781 955 l 868 955 l 868 868 l 868 781 l 781 781 l 781 694 l 694 694 l 694 608 l 608 608 l 608 521 l 521 521 l 521 434 l 521 347 l 434 347 l 434 260 l 347 260 l 347 174 l 434 174 l 521 174 l 608 174 l 694 174 l 781 174 l 868 174 l 868 87 l 868 0 l 781 0 z "},"[":{"ha":434,"x_min":87,"x_max":347,"o":"m 260 -87 l 174 -87 l 87 -87 l 87 0 l 87 87 l 87 174 l 87 260 l 87 347 l 87 434 l 87 521 l 87 608 l 87 694 l 87 781 l 87 868 l 87 955 l 174 955 l 260 955 l 347 955 l 347 868 l 347 781 l 260 781 l 260 694 l 260 608 l 260 521 l 260 434 l 260 347 l 260 260 l 260 174 l 260 87 l 347 87 l 347 0 l 347 -87 l 260 -87 z "},"\\":{"ha":608,"x_min":0,"x_max":521,"o":"m 434 0 l 347 0 l 347 87 l 347 174 l 260 174 l 260 260 l 260 347 l 174 347 l 174 434 l 174 521 l 174 608 l 87 608 l 87 694 l 87 781 l 0 781 l 0 868 l 0 955 l 0 1042 l 87 1042 l 174 1042 l 174 955 l 174 868 l 260 868 l 260 781 l 260 694 l 347 694 l 347 608 l 347 521 l 347 434 l 434 434 l 434 347 l 434 260 l 521 260 l 521 174 l 521 87 l 521 0 l 434 0 z "},"]":{"ha":521,"x_min":174,"x_max":434,"o":"m 347 -87 l 260 -87 l 174 -87 l 174 0 l 174 87 l 260 87 l 260 174 l 260 260 l 260 347 l 260 434 l 260 521 l 260 608 l 260 694 l 260 781 l 174 781 l 174 868 l 174 955 l 260 955 l 347 955 l 434 955 l 434 868 l 434 781 l 434 694 l 434 608 l 434 521 l 434 434 l 434 347 l 434 260 l 434 174 l 434 87 l 434 0 l 434 -87 l 347 -87 z "},"^":{"ha":694,"x_min":0,"x_max":608,"o":"m 521 434 l 434 434 l 434 521 l 347 521 l 347 608 l 260 608 l 260 521 l 174 521 l 174 434 l 87 434 l 0 434 l 0 521 l 0 608 l 87 608 l 87 694 l 174 694 l 174 781 l 260 781 l 260 868 l 347 868 l 347 781 l 434 781 l 434 694 l 521 694 l 521 608 l 608 608 l 608 521 l 608 434 l 521 434 z "},"_":{"ha":781,"x_min":0,"x_max":694,"o":"m 608 -260 l 521 -260 l 434 -260 l 347 -260 l 260 -260 l 174 -260 l 87 -260 l 0 -260 l 0 -174 l 0 -87 l 87 -87 l 174 -87 l 260 -87 l 347 -87 l 434 -87 l 521 -87 l 608 -87 l 694 -87 l 694 -174 l 694 -260 l 608 -260 z "},"`":{"ha":434,"x_min":87,"x_max":347,"o":"m 260 694 l 174 694 l 174 781 l 87 781 l 87 868 l 87 955 l 174 955 l 260 955 l 260 868 l 347 868 l 347 781 l 347 694 l 260 694 z "},"a":{"ha":694,"x_min":87,"x_max":608,"o":"m 521 0 l 434 0 l 347 0 l 260 0 l 174 0 l 174 87 l 87 87 l 87 174 l 87 260 l 87 347 l 87 434 l 87 521 l 87 608 l 174 608 l 174 694 l 260 694 l 347 694 l 434 694 l 521 694 l 521 608 l 608 608 l 608 521 l 608 434 l 608 347 l 608 260 l 608 174 l 608 87 l 608 0 l 521 0 m 347 174 l 434 174 l 434 260 l 434 347 l 434 434 l 434 521 l 347 521 l 260 521 l 260 434 l 260 347 l 260 260 l 260 174 l 347 174 z "},"b":{"ha":781,"x_min":87,"x_max":694,"o":"m 521 0 l 434 0 l 347 0 l 347 87 l 260 87 l 260 0 l 174 0 l 87 0 l 87 87 l 87 174 l 87 260 l 87 347 l 87 434 l 87 521 l 87 608 l 87 694 l 87 781 l 87 868 l 87 955 l 174 955 l 260 955 l 260 868 l 260 781 l 260 694 l 260 608 l 347 608 l 347 694 l 434 694 l 521 694 l 608 694 l 608 608 l 694 608 l 694 521 l 694 434 l 694 347 l 694 260 l 694 174 l 694 87 l 608 87 l 608 0 l 521 0 m 434 174 l 521 174 l 521 260 l 521 347 l 521 434 l 521 521 l 434 521 l 347 521 l 347 434 l 260 434 l 260 347 l 260 260 l 347 260 l 347 174 l 434 174 z "},"c":{"ha":694,"x_min":87,"x_max":608,"o":"m 434 0 l 347 0 l 260 0 l 174 0 l 174 87 l 87 87 l 87 174 l 87 260 l 87 347 l 87 434 l 87 521 l 87 608 l 174 608 l 174 694 l 260 694 l 347 694 l 434 694 l 521 694 l 521 608 l 608 608 l 608 521 l 608 434 l 521 434 l 434 434 l 434 521 l 347 521 l 260 521 l 260 434 l 260 347 l 260 260 l 260 174 l 347 174 l 434 174 l 434 260 l 521 260 l 608 260 l 608 174 l 608 87 l 521 87 l 521 0 l 434 0 z "},"d":{"ha":781,"x_min":87,"x_max":694,"o":"m 608 0 l 521 0 l 521 87 l 434 87 l 434 0 l 347 0 l 260 0 l 174 0 l 174 87 l 87 87 l 87 174 l 87 260 l 87 347 l 87 434 l 87 521 l 87 608 l 174 608 l 174 694 l 260 694 l 347 694 l 434 694 l 434 608 l 521 608 l 521 694 l 521 781 l 521 868 l 521 955 l 608 955 l 694 955 l 694 868 l 694 781 l 694 694 l 694 608 l 694 521 l 694 434 l 694 347 l 694 260 l 694 174 l 694 87 l 694 0 l 608 0 m 347 174 l 434 174 l 434 260 l 521 260 l 521 347 l 521 434 l 434 434 l 434 521 l 347 521 l 260 521 l 260 434 l 260 347 l 260 260 l 260 174 l 347 174 z "},"e":{"ha":694,"x_min":87,"x_max":608,"o":"m 434 0 l 347 0 l 260 0 l 174 0 l 174 87 l 87 87 l 87 174 l 87 260 l 87 347 l 87 434 l 87 521 l 87 608 l 174 608 l 174 694 l 260 694 l 347 694 l 434 694 l 521 694 l 521 608 l 608 608 l 608 521 l 608 434 l 608 347 l 521 347 l 434 347 l 347 347 l 260 347 l 260 260 l 260 174 l 347 174 l 434 174 l 434 260 l 521 260 l 608 260 l 608 174 l 608 87 l 521 87 l 521 0 l 434 0 m 347 434 l 434 434 l 434 521 l 347 521 l 260 521 l 260 434 l 347 434 z "},"f":{"ha":521,"x_min":87,"x_max":434,"o":"m 260 0 l 174 0 l 174 87 l 174 174 l 174 260 l 174 347 l 174 434 l 174 521 l 87 521 l 87 608 l 87 694 l 174 694 l 174 781 l 174 868 l 260 868 l 260 955 l 347 955 l 434 955 l 434 868 l 434 781 l 347 781 l 347 694 l 434 694 l 434 608 l 434 521 l 347 521 l 347 434 l 347 347 l 347 260 l 347 174 l 347 87 l 347 0 l 260 0 z "},"g":{"ha":781,"x_min":87,"x_max":694,"o":"m 521 -260 l 434 -260 l 347 -260 l 260 -260 l 174 -260 l 87 -260 l 87 -174 l 87 -87 l 174 -87 l 260 -87 l 347 -87 l 434 -87 l 521 -87 l 521 0 l 521 87 l 434 87 l 434 0 l 347 0 l 260 0 l 174 0 l 174 87 l 87 87 l 87 174 l 87 260 l 87 347 l 87 434 l 87 521 l 87 608 l 174 608 l 174 694 l 260 694 l 347 694 l 434 694 l 434 608 l 521 608 l 521 694 l 608 694 l 694 694 l 694 608 l 694 521 l 694 434 l 694 347 l 694 260 l 694 174 l 694 87 l 694 0 l 694 -87 l 694 -174 l 608 -174 l 608 -260 l 521 -260 m 347 174 l 434 174 l 434 260 l 521 260 l 521 347 l 521 434 l 434 434 l 434 521 l 347 521 l 260 521 l 260 434 l 260 347 l 260 260 l 260 174 l 347 174 z "},"h":{"ha":781,"x_min":87,"x_max":694,"o":"m 608 0 l 521 0 l 521 87 l 521 174 l 521 260 l 521 347 l 521 434 l 521 521 l 434 521 l 347 521 l 347 434 l 260 434 l 260 347 l 260 260 l 260 174 l 260 87 l 260 0 l 174 0 l 87 0 l 87 87 l 87 174 l 87 260 l 87 347 l 87 434 l 87 521 l 87 608 l 87 694 l 87 781 l 87 868 l 87 955 l 174 955 l 260 955 l 260 868 l 260 781 l 260 694 l 260 608 l 347 608 l 347 694 l 434 694 l 521 694 l 608 694 l 608 608 l 694 608 l 694 521 l 694 434 l 694 347 l 694 260 l 694 174 l 694 87 l 694 0 l 608 0 z "},"i":{"ha":347,"x_min":87,"x_max":260,"o":"m 174 0 l 87 0 l 87 87 l 87 174 l 87 260 l 87 347 l 87 434 l 87 521 l 87 608 l 87 694 l 174 694 l 260 694 l 260 608 l 260 521 l 260 434 l 260 347 l 260 260 l 260 174 l 260 87 l 260 0 l 174 0 m 174 781 l 87 781 l 87 868 l 87 955 l 174 955 l 260 955 l 260 868 l 260 781 l 174 781 z "},"j":{"ha":347,"x_min":-87,"x_max":260,"o":"m 87 -260 l 0 -260 l -87 -260 l -87 -174 l -87 -87 l 0 -87 l 87 -87 l 87 0 l 87 87 l 87 174 l 87 260 l 87 347 l 87 434 l 87 521 l 87 608 l 87 694 l 174 694 l 260 694 l 260 608 l 260 521 l 260 434 l 260 347 l 260 260 l 260 174 l 260 87 l 260 0 l 260 -87 l 260 -174 l 174 -174 l 174 -260 l 87 -260 m 174 781 l 87 781 l 87 868 l 87 955 l 174 955 l 260 955 l 260 868 l 260 781 l 174 781 z "},"k":{"ha":694,"x_min":0,"x_max":608,"o":"m 521 0 l 434 0 l 434 87 l 347 87 l 347 174 l 260 174 l 260 260 l 174 260 l 174 174 l 174 87 l 174 0 l 87 0 l 0 0 l 0 87 l 0 174 l 0 260 l 0 347 l 0 434 l 0 521 l 0 608 l 0 694 l 0 781 l 0 868 l 0 955 l 87 955 l 174 955 l 174 868 l 174 781 l 174 694 l 174 608 l 174 521 l 174 434 l 260 434 l 260 521 l 347 521 l 347 608 l 434 608 l 434 694 l 521 694 l 608 694 l 608 608 l 608 521 l 521 521 l 521 434 l 434 434 l 434 347 l 434 260 l 521 260 l 521 174 l 608 174 l 608 87 l 608 0 l 521 0 z "},"l":{"ha":347,"x_min":87,"x_max":260,"o":"m 174 0 l 87 0 l 87 87 l 87 174 l 87 260 l 87 347 l 87 434 l 87 521 l 87 608 l 87 694 l 87 781 l 87 868 l 87 955 l 174 955 l 260 955 l 260 868 l 260 781 l 260 694 l 260 608 l 260 521 l 260 434 l 260 347 l 260 260 l 260 174 l 260 87 l 260 0 l 174 0 z "},"m":{"ha":1042,"x_min":87,"x_max":955,"o":"m 868 0 l 781 0 l 781 87 l 781 174 l 781 260 l 781 347 l 781 434 l 781 521 l 694 521 l 608 521 l 608 434 l 608 347 l 608 260 l 608 174 l 608 87 l 608 0 l 521 0 l 434 0 l 434 87 l 434 174 l 434 260 l 434 347 l 434 434 l 434 521 l 347 521 l 260 521 l 260 434 l 260 347 l 260 260 l 260 174 l 260 87 l 260 0 l 174 0 l 87 0 l 87 87 l 87 174 l 87 260 l 87 347 l 87 434 l 87 521 l 87 608 l 87 694 l 174 694 l 260 694 l 347 694 l 434 694 l 521 694 l 608 694 l 694 694 l 781 694 l 868 694 l 868 608 l 955 608 l 955 521 l 955 434 l 955 347 l 955 260 l 955 174 l 955 87 l 955 0 l 868 0 z "},"n":{"ha":694,"x_min":87,"x_max":608,"o":"m 521 0 l 434 0 l 434 87 l 434 174 l 434 260 l 434 347 l 434 434 l 434 521 l 347 521 l 260 521 l 260 434 l 260 347 l 260 260 l 260 174 l 260 87 l 260 0 l 174 0 l 87 0 l 87 87 l 87 174 l 87 260 l 87 347 l 87 434 l 87 521 l 87 608 l 87 694 l 174 694 l 260 694 l 347 694 l 434 694 l 521 694 l 521 608 l 608 608 l 608 521 l 608 434 l 608 347 l 608 260 l 608 174 l 608 87 l 608 0 l 521 0 z "},"o":{"ha":694,"x_min":87,"x_max":608,"o":"m 434 0 l 347 0 l 260 0 l 174 0 l 174 87 l 87 87 l 87 174 l 87 260 l 87 347 l 87 434 l 87 521 l 87 608 l 174 608 l 174 694 l 260 694 l 347 694 l 434 694 l 521 694 l 521 608 l 608 608 l 608 521 l 608 434 l 608 347 l 608 260 l 608 174 l 608 87 l 521 87 l 521 0 l 434 0 m 347 174 l 434 174 l 434 260 l 434 347 l 434 434 l 434 521 l 347 521 l 260 521 l 260 434 l 260 347 l 260 260 l 260 174 l 347 174 z "},"p":{"ha":781,"x_min":87,"x_max":694,"o":"m 174 -260 l 87 -260 l 87 -174 l 87 -87 l 87 0 l 87 87 l 87 174 l 87 260 l 87 347 l 87 434 l 87 521 l 87 608 l 87 694 l 174 694 l 260 694 l 260 608 l 347 608 l 347 694 l 434 694 l 521 694 l 608 694 l 608 608 l 694 608 l 694 521 l 694 434 l 694 347 l 694 260 l 694 174 l 694 87 l 608 87 l 608 0 l 521 0 l 434 0 l 347 0 l 347 87 l 260 87 l 260 0 l 260 -87 l 260 -174 l 260 -260 l 174 -260 m 434 174 l 521 174 l 521 260 l 521 347 l 521 434 l 521 521 l 434 521 l 347 521 l 347 434 l 260 434 l 260 347 l 260 260 l 347 260 l 347 174 l 434 174 z "},"q":{"ha":781,"x_min":87,"x_max":694,"o":"m 608 -260 l 521 -260 l 521 -174 l 521 -87 l 521 0 l 521 87 l 434 87 l 434 0 l 347 0 l 260 0 l 174 0 l 174 87 l 87 87 l 87 174 l 87 260 l 87 347 l 87 434 l 87 521 l 87 608 l 174 608 l 174 694 l 260 694 l 347 694 l 434 694 l 434 608 l 521 608 l 521 694 l 608 694 l 694 694 l 694 608 l 694 521 l 694 434 l 694 347 l 694 260 l 694 174 l 694 87 l 694 0 l 694 -87 l 694 -174 l 694 -260 l 608 -260 m 347 174 l 434 174 l 434 260 l 521 260 l 521 347 l 521 434 l 434 434 l 434 521 l 347 521 l 260 521 l 260 434 l 260 347 l 260 260 l 260 174 l 347 174 z "},"r":{"ha":694,"x_min":87,"x_max":608,"o":"m 174 0 l 87 0 l 87 87 l 87 174 l 87 260 l 87 347 l 87 434 l 87 521 l 87 608 l 87 694 l 174 694 l 260 694 l 347 694 l 434 694 l 521 694 l 521 608 l 608 608 l 608 521 l 608 434 l 521 434 l 434 434 l 434 521 l 347 521 l 260 521 l 260 434 l 260 347 l 260 260 l 260 174 l 260 87 l 260 0 l 174 0 z "},"s":{"ha":694,"x_min":87,"x_max":608,"o":"m 434 0 l 347 0 l 260 0 l 174 0 l 87 0 l 87 87 l 87 174 l 174 174 l 260 174 l 347 174 l 434 174 l 434 260 l 347 260 l 260 260 l 174 260 l 174 347 l 87 347 l 87 434 l 87 521 l 87 608 l 174 608 l 174 694 l 260 694 l 347 694 l 434 694 l 521 694 l 608 694 l 608 608 l 608 521 l 521 521 l 434 521 l 347 521 l 260 521 l 260 434 l 347 434 l 434 434 l 521 434 l 521 347 l 608 347 l 608 260 l 608 174 l 608 87 l 521 87 l 521 0 l 434 0 z "},"t":{"ha":434,"x_min":0,"x_max":347,"o":"m 260 0 l 174 0 l 174 87 l 87 87 l 87 174 l 87 260 l 87 347 l 87 434 l 87 521 l 0 521 l 0 608 l 0 694 l 87 694 l 87 781 l 87 868 l 87 955 l 174 955 l 260 955 l 260 868 l 260 781 l 260 694 l 347 694 l 347 608 l 347 521 l 260 521 l 260 434 l 260 347 l 260 260 l 260 174 l 347 174 l 347 87 l 347 0 l 260 0 z "},"u":{"ha":694,"x_min":87,"x_max":608,"o":"m 521 0 l 434 0 l 347 0 l 260 0 l 174 0 l 174 87 l 87 87 l 87 174 l 87 260 l 87 347 l 87 434 l 87 521 l 87 608 l 87 694 l 174 694 l 260 694 l 260 608 l 260 521 l 260 434 l 260 347 l 260 260 l 260 174 l 347 174 l 434 174 l 434 260 l 434 347 l 434 434 l 434 521 l 434 608 l 434 694 l 521 694 l 608 694 l 608 608 l 608 521 l 608 434 l 608 347 l 608 260 l 608 174 l 608 87 l 608 0 l 521 0 z "},"v":{"ha":694,"x_min":87,"x_max":608,"o":"m 347 0 l 260 0 l 260 87 l 174 87 l 174 174 l 87 174 l 87 260 l 87 347 l 87 434 l 87 521 l 87 608 l 87 694 l 174 694 l 260 694 l 260 608 l 260 521 l 260 434 l 260 347 l 260 260 l 347 260 l 434 260 l 434 347 l 434 434 l 434 521 l 434 608 l 434 694 l 521 694 l 608 694 l 608 608 l 608 521 l 608 434 l 608 347 l 608 260 l 608 174 l 521 174 l 521 87 l 434 87 l 434 0 l 347 0 z "},"w":{"ha":1042,"x_min":87,"x_max":955,"o":"m 868 0 l 781 0 l 694 0 l 608 0 l 521 0 l 434 0 l 347 0 l 260 0 l 174 0 l 174 87 l 87 87 l 87 174 l 87 260 l 87 347 l 87 434 l 87 521 l 87 608 l 87 694 l 174 694 l 260 694 l 260 608 l 260 521 l 260 434 l 260 347 l 260 260 l 260 174 l 347 174 l 434 174 l 434 260 l 434 347 l 434 434 l 434 521 l 434 608 l 434 694 l 521 694 l 608 694 l 608 608 l 608 521 l 608 434 l 608 347 l 608 260 l 608 174 l 694 174 l 781 174 l 781 260 l 781 347 l 781 434 l 781 521 l 781 608 l 781 694 l 868 694 l 955 694 l 955 608 l 955 521 l 955 434 l 955 347 l 955 260 l 955 174 l 955 87 l 955 0 l 868 0 z "},"x":{"ha":694,"x_min":87,"x_max":608,"o":"m 521 0 l 434 0 l 434 87 l 347 87 l 260 87 l 260 0 l 174 0 l 87 0 l 87 87 l 87 174 l 174 174 l 174 260 l 260 260 l 260 347 l 260 434 l 174 434 l 174 521 l 87 521 l 87 608 l 87 694 l 174 694 l 260 694 l 260 608 l 347 608 l 434 608 l 434 694 l 521 694 l 608 694 l 608 608 l 608 521 l 521 521 l 521 434 l 434 434 l 434 347 l 434 260 l 521 260 l 521 174 l 608 174 l 608 87 l 608 0 l 521 0 z "},"y":{"ha":694,"x_min":87,"x_max":608,"o":"m 260 -260 l 174 -260 l 87 -260 l 87 -174 l 87 -87 l 174 -87 l 260 -87 l 260 0 l 174 0 l 174 87 l 87 87 l 87 174 l 87 260 l 87 347 l 87 434 l 87 521 l 87 608 l 87 694 l 174 694 l 260 694 l 260 608 l 260 521 l 260 434 l 260 347 l 260 260 l 260 174 l 347 174 l 434 174 l 434 260 l 434 347 l 434 434 l 434 521 l 434 608 l 434 694 l 521 694 l 608 694 l 608 608 l 608 521 l 608 434 l 608 347 l 608 260 l 608 174 l 608 87 l 521 87 l 521 0 l 521 -87 l 434 -87 l 434 -174 l 347 -174 l 347 -260 l 260 -260 z "},"z":{"ha":694,"x_min":87,"x_max":608,"o":"m 521 0 l 434 0 l 347 0 l 260 0 l 174 0 l 87 0 l 87 87 l 87 174 l 174 174 l 174 260 l 260 260 l 260 347 l 260 434 l 347 434 l 347 521 l 260 521 l 174 521 l 87 521 l 87 608 l 87 694 l 174 694 l 260 694 l 347 694 l 434 694 l 521 694 l 608 694 l 608 608 l 608 521 l 521 521 l 521 434 l 434 434 l 434 347 l 434 260 l 347 260 l 347 174 l 434 174 l 521 174 l 608 174 l 608 87 l 608 0 l 521 0 z "},"{":{"ha":521,"x_min":0,"x_max":434,"o":"m 347 -87 l 260 -87 l 174 -87 l 174 0 l 174 87 l 87 87 l 87 174 l 87 260 l 87 347 l 0 347 l 0 434 l 0 521 l 87 521 l 87 608 l 87 694 l 87 781 l 174 781 l 174 868 l 174 955 l 260 955 l 347 955 l 434 955 l 434 868 l 434 781 l 347 781 l 260 781 l 260 694 l 260 608 l 260 521 l 174 521 l 174 434 l 174 347 l 260 347 l 260 260 l 260 174 l 260 87 l 347 87 l 434 87 l 434 0 l 434 -87 l 347 -87 z "},"|":{"ha":347,"x_min":87,"x_max":260,"o":"m 174 -174 l 87 -174 l 87 -87 l 87 0 l 87 87 l 87 174 l 87 260 l 87 347 l 87 434 l 87 521 l 87 608 l 87 694 l 87 781 l 87 868 l 87 955 l 174 955 l 260 955 l 260 868 l 260 781 l 260 694 l 260 608 l 260 521 l 260 434 l 260 347 l 260 260 l 260 174 l 260 87 l 260 0 l 260 -87 l 260 -174 l 174 -174 z "},"}":{"ha":521,"x_min":0,"x_max":434,"o":"m 174 -87 l 87 -87 l 0 -87 l 0 0 l 0 87 l 87 87 l 174 87 l 174 174 l 174 260 l 174 347 l 260 347 l 260 434 l 260 521 l 174 521 l 174 608 l 174 694 l 174 781 l 87 781 l 0 781 l 0 868 l 0 955 l 87 955 l 174 955 l 260 955 l 260 868 l 260 781 l 347 781 l 347 694 l 347 608 l 347 521 l 434 521 l 434 434 l 434 347 l 347 347 l 347 260 l 347 174 l 347 87 l 260 87 l 260 0 l 260 -87 l 174 -87 z "},"~":{"ha":868,"x_min":87,"x_max":781,"o":"m 608 347 l 521 347 l 434 347 l 434 434 l 347 434 l 260 434 l 260 347 l 174 347 l 87 347 l 87 434 l 87 521 l 174 521 l 174 608 l 260 608 l 347 608 l 434 608 l 434 521 l 521 521 l 608 521 l 608 608 l 694 608 l 781 608 l 781 521 l 781 434 l 694 434 l 694 347 l 608 347 z "}," ":{"ha":434,"x_min":0,"x_max":0,"o":""},"¡":{"ha":347,"x_min":87,"x_max":260,"o":"m 174 -260 l 87 -260 l 87 -174 l 87 -87 l 87 0 l 87 87 l 87 174 l 87 260 l 87 347 l 87 434 l 174 434 l 260 434 l 260 347 l 260 260 l 260 174 l 260 87 l 260 0 l 260 -87 l 260 -174 l 260 -260 l 174 -260 m 174 521 l 87 521 l 87 608 l 87 694 l 174 694 l 260 694 l 260 608 l 260 521 l 174 521 z "},"¢":{"ha":694,"x_min":87,"x_max":608,"o":"m 347 -174 l 260 -174 l 260 -87 l 260 0 l 174 0 l 174 87 l 87 87 l 87 174 l 87 260 l 87 347 l 87 434 l 87 521 l 87 608 l 174 608 l 174 694 l 260 694 l 260 781 l 260 868 l 347 868 l 434 868 l 434 781 l 434 694 l 521 694 l 521 608 l 608 608 l 608 521 l 608 434 l 521 434 l 434 434 l 434 347 l 434 260 l 521 260 l 608 260 l 608 174 l 608 87 l 521 87 l 521 0 l 434 0 l 434 -87 l 434 -174 l 347 -174 z "},"£":{"ha":781,"x_min":0,"x_max":694,"o":"m 608 0 l 521 0 l 434 0 l 434 87 l 347 87 l 260 87 l 260 0 l 174 0 l 87 0 l 0 0 l 0 87 l 0 174 l 87 174 l 87 260 l 87 347 l 87 434 l 0 434 l 0 521 l 0 608 l 87 608 l 87 694 l 0 694 l 0 781 l 0 868 l 87 868 l 87 955 l 174 955 l 174 1042 l 260 1042 l 347 1042 l 434 1042 l 521 1042 l 608 1042 l 608 955 l 694 955 l 694 868 l 694 781 l 608 781 l 521 781 l 521 868 l 434 868 l 347 868 l 260 868 l 260 781 l 260 694 l 260 608 l 347 608 l 434 608 l 521 608 l 521 521 l 521 434 l 434 434 l 347 434 l 260 434 l 260 347 l 260 260 l 347 260 l 434 260 l 521 260 l 521 174 l 608 174 l 694 174 l 694 87 l 694 0 l 608 0 z "},"¤":{"ha":868,"x_min":0,"x_max":781,"o":"m 694 87 l 608 87 l 608 174 l 521 174 l 434 174 l 347 174 l 260 174 l 174 174 l 174 87 l 87 87 l 0 87 l 0 174 l 0 260 l 87 260 l 87 347 l 87 434 l 87 521 l 87 608 l 87 694 l 0 694 l 0 781 l 0 868 l 87 868 l 174 868 l 174 781 l 260 781 l 347 781 l 434 781 l 521 781 l 608 781 l 608 868 l 694 868 l 781 868 l 781 781 l 781 694 l 694 694 l 694 608 l 694 521 l 694 434 l 694 347 l 694 260 l 781 260 l 781 174 l 781 87 l 694 87 m 434 347 l 521 347 l 521 434 l 521 521 l 521 608 l 434 608 l 347 608 l 260 608 l 260 521 l 260 434 l 260 347 l 347 347 l 434 347 z "},"¥":{"ha":868,"x_min":87,"x_max":781,"o":"m 434 0 l 347 0 l 347 87 l 260 87 l 174 87 l 87 87 l 87 174 l 87 260 l 174 260 l 260 260 l 347 260 l 347 347 l 260 347 l 174 347 l 87 347 l 87 434 l 87 521 l 174 521 l 260 521 l 260 608 l 174 608 l 174 694 l 174 781 l 87 781 l 87 868 l 87 955 l 174 955 l 260 955 l 260 868 l 347 868 l 347 781 l 347 694 l 434 694 l 521 694 l 521 781 l 521 868 l 608 868 l 608 955 l 694 955 l 781 955 l 781 868 l 781 781 l 694 781 l 694 694 l 694 608 l 694 521 l 781 521 l 781 434 l 781 347 l 694 347 l 608 347 l 521 347 l 521 260 l 608 260 l 694 260 l 781 260 l 781 174 l 781 87 l 694 87 l 608 87 l 521 87 l 521 0 l 434 0 z "},"¦":{"ha":347,"x_min":87,"x_max":260,"o":"m 174 -174 l 87 -174 l 87 -87 l 87 0 l 87 87 l 87 174 l 87 260 l 174 260 l 260 260 l 260 174 l 260 87 l 260 0 l 260 -87 l 260 -174 l 174 -174 m 174 434 l 87 434 l 87 521 l 87 608 l 87 694 l 87 781 l 87 868 l 87 955 l 174 955 l 260 955 l 260 868 l 260 781 l 260 694 l 260 608 l 260 521 l 260 434 l 174 434 z "},"§":{"ha":781,"x_min":87,"x_max":694,"o":"m 521 -347 l 434 -347 l 347 -347 l 260 -347 l 174 -347 l 174 -260 l 174 -174 l 260 -174 l 347 -174 l 434 -174 l 521 -174 l 521 -87 l 434 -87 l 434 0 l 347 0 l 347 87 l 260 87 l 260 174 l 174 174 l 174 260 l 87 260 l 87 347 l 87 434 l 87 521 l 174 521 l 174 608 l 174 694 l 87 694 l 87 781 l 87 868 l 87 955 l 174 955 l 174 1042 l 260 1042 l 347 1042 l 434 1042 l 521 1042 l 608 1042 l 608 955 l 608 868 l 521 868 l 434 868 l 347 868 l 260 868 l 260 781 l 347 781 l 347 694 l 434 694 l 434 608 l 521 608 l 521 521 l 608 521 l 608 434 l 694 434 l 694 347 l 694 260 l 694 174 l 608 174 l 608 87 l 608 0 l 694 0 l 694 -87 l 694 -174 l 694 -260 l 608 -260 l 608 -347 l 521 -347 m 434 260 l 521 260 l 521 347 l 434 347 l 434 434 l 347 434 l 260 434 l 260 347 l 347 347 l 347 260 l 434 260 z "},"¨":{"ha":521,"x_min":0,"x_max":434,"o":"m 347 868 l 260 868 l 260 955 l 260 1042 l 347 1042 l 434 1042 l 434 955 l 434 868 l 347 868 m 87 868 l 0 868 l 0 955 l 0 1042 l 87 1042 l 174 1042 l 174 955 l 174 868 l 87 868 z "},"©":{"ha":1042,"x_min":-87,"x_max":955,"o":"m 694 -174 l 608 -174 l 521 -174 l 434 -174 l 347 -174 l 260 -174 l 174 -174 l 87 -174 l 87 -87 l 0 -87 l 0 0 l -87 0 l -87 87 l -87 174 l -87 260 l -87 347 l -87 434 l -87 521 l -87 608 l -87 694 l -87 781 l -87 868 l 0 868 l 0 955 l 87 955 l 87 1042 l 174 1042 l 260 1042 l 347 1042 l 434 1042 l 521 1042 l 608 1042 l 694 1042 l 781 1042 l 781 955 l 868 955 l 868 868 l 955 868 l 955 781 l 955 694 l 955 608 l 955 521 l 955 434 l 955 347 l 955 260 l 955 174 l 955 87 l 955 0 l 868 0 l 868 -87 l 781 -87 l 781 -174 l 694 -174 m 608 0 l 694 0 l 694 87 l 781 87 l 781 174 l 781 260 l 781 347 l 781 434 l 781 521 l 781 608 l 781 694 l 781 781 l 694 781 l 694 868 l 608 868 l 521 868 l 434 868 l 347 868 l 260 868 l 174 868 l 174 781 l 87 781 l 87 694 l 87 608 l 87 521 l 87 434 l 87 347 l 87 260 l 87 174 l 87 87 l 174 87 l 174 0 l 260 0 l 347 0 l 434 0 l 521 0 l 608 0 m 521 87 l 434 87 l 347 87 l 260 87 l 260 174 l 174 174 l 174 260 l 174 347 l 174 434 l 174 521 l 174 608 l 174 694 l 260 694 l 260 781 l 347 781 l 434 781 l 521 781 l 608 781 l 608 694 l 694 694 l 694 608 l 694 521 l 608 521 l 521 521 l 521 608 l 434 608 l 347 608 l 347 521 l 347 434 l 347 347 l 347 260 l 434 260 l 521 260 l 521 347 l 608 347 l 694 347 l 694 260 l 694 174 l 608 174 l 608 87 l 521 87 z "},"ª":{"ha":608,"x_min":0,"x_max":521,"o":"m 434 434 l 347 434 l 260 434 l 174 434 l 87 434 l 87 521 l 0 521 l 0 608 l 0 694 l 0 781 l 0 868 l 0 955 l 87 955 l 87 1042 l 174 1042 l 260 1042 l 347 1042 l 434 1042 l 434 955 l 521 955 l 521 868 l 521 781 l 521 694 l 521 608 l 521 521 l 521 434 l 434 434 m 260 608 l 347 608 l 347 694 l 347 781 l 347 868 l 260 868 l 174 868 l 174 781 l 174 694 l 174 608 l 260 608 z "},"«":{"ha":781,"x_min":0,"x_max":694,"o":"m 608 87 l 521 87 l 521 174 l 434 174 l 434 260 l 347 260 l 347 174 l 347 87 l 260 87 l 174 87 l 174 174 l 87 174 l 87 260 l 0 260 l 0 347 l 0 434 l 87 434 l 87 521 l 174 521 l 174 608 l 260 608 l 347 608 l 347 521 l 347 434 l 260 434 l 260 347 l 260 260 l 347 260 l 347 347 l 347 434 l 434 434 l 434 521 l 521 521 l 521 608 l 608 608 l 694 608 l 694 521 l 694 434 l 608 434 l 608 347 l 608 260 l 694 260 l 694 174 l 694 87 l 608 87 z "},"¬":{"ha":868,"x_min":87,"x_max":781,"o":"m 694 347 l 608 347 l 608 434 l 608 521 l 521 521 l 434 521 l 347 521 l 260 521 l 174 521 l 87 521 l 87 608 l 87 694 l 174 694 l 260 694 l 347 694 l 434 694 l 521 694 l 608 694 l 694 694 l 781 694 l 781 608 l 781 521 l 781 434 l 781 347 l 694 347 z "},"®":{"ha":1042,"x_min":-87,"x_max":955,"o":"m 694 -174 l 608 -174 l 521 -174 l 434 -174 l 347 -174 l 260 -174 l 174 -174 l 87 -174 l 87 -87 l 0 -87 l 0 0 l -87 0 l -87 87 l -87 174 l -87 260 l -87 347 l -87 434 l -87 521 l -87 608 l -87 694 l -87 781 l -87 868 l 0 868 l 0 955 l 87 955 l 87 1042 l 174 1042 l 260 1042 l 347 1042 l 434 1042 l 521 1042 l 608 1042 l 694 1042 l 781 1042 l 781 955 l 868 955 l 868 868 l 955 868 l 955 781 l 955 694 l 955 608 l 955 521 l 955 434 l 955 347 l 955 260 l 955 174 l 955 87 l 955 0 l 868 0 l 868 -87 l 781 -87 l 781 -174 l 694 -174 m 608 0 l 694 0 l 694 87 l 608 87 l 521 87 l 521 174 l 521 260 l 521 347 l 434 347 l 347 347 l 347 260 l 347 174 l 347 87 l 260 87 l 174 87 l 174 174 l 174 260 l 174 347 l 174 434 l 174 521 l 174 608 l 174 694 l 174 781 l 87 781 l 87 694 l 87 608 l 87 521 l 87 434 l 87 347 l 87 260 l 87 174 l 87 87 l 174 87 l 174 0 l 260 0 l 347 0 l 434 0 l 521 0 l 608 0 m 781 87 l 781 174 l 781 260 l 781 347 l 781 434 l 781 521 l 781 608 l 781 694 l 781 781 l 694 781 l 694 868 l 608 868 l 521 868 l 434 868 l 347 868 l 260 868 l 174 868 l 174 781 l 260 781 l 347 781 l 434 781 l 521 781 l 608 781 l 608 694 l 694 694 l 694 608 l 694 521 l 694 434 l 608 434 l 608 347 l 694 347 l 694 260 l 694 174 l 694 87 l 781 87 m 434 521 l 521 521 l 521 608 l 434 608 l 347 608 l 347 521 l 434 521 z "},"¯":{"ha":608,"x_min":174,"x_max":521,"o":"m 434 955 l 521 955 l 521 868 l 434 868 l 347 868 l 260 868 l 174 868 l 174 955 l 260 955 l 347 955 l 434 955 z "},"°":{"ha":608,"x_min":0,"x_max":521,"o":"m 260 521 l 174 521 l 174 608 l 87 608 l 87 694 l 0 694 l 0 781 l 0 868 l 87 868 l 87 955 l 174 955 l 174 1042 l 260 1042 l 347 1042 l 347 955 l 434 955 l 434 868 l 521 868 l 521 781 l 521 694 l 434 694 l 434 608 l 347 608 l 347 521 l 260 521 m 260 694 l 347 694 l 347 781 l 347 868 l 260 868 l 174 868 l 174 781 l 174 694 l 260 694 z "},"±":{"ha":694,"x_min":87,"x_max":608,"o":"m 521 0 l 434 0 l 347 0 l 260 0 l 174 0 l 87 0 l 87 87 l 87 174 l 174 174 l 260 174 l 260 260 l 260 347 l 174 347 l 87 347 l 87 434 l 87 521 l 174 521 l 260 521 l 260 608 l 260 694 l 347 694 l 434 694 l 434 608 l 434 521 l 521 521 l 608 521 l 608 434 l 608 347 l 521 347 l 434 347 l 434 260 l 434 174 l 521 174 l 608 174 l 608 87 l 608 0 l 521 0 z "},"²":{"ha":521,"x_min":0,"x_max":434,"o":"m 347 434 l 260 434 l 174 434 l 87 434 l 0 434 l 0 521 l 0 608 l 87 608 l 87 694 l 174 694 l 174 781 l 87 781 l 0 781 l 0 868 l 0 955 l 87 955 l 87 1042 l 174 1042 l 260 1042 l 347 1042 l 347 955 l 434 955 l 434 868 l 434 781 l 434 694 l 347 694 l 347 608 l 434 608 l 434 521 l 434 434 l 347 434 m 260 781 l 260 868 l 174 868 l 174 781 l 260 781 z "},"³":{"ha":521,"x_min":0,"x_max":434,"o":"m 260 434 l 174 434 l 87 434 l 87 521 l 0 521 l 0 608 l 0 694 l 87 694 l 174 694 l 174 781 l 87 781 l 0 781 l 0 868 l 0 955 l 87 955 l 87 1042 l 174 1042 l 260 1042 l 347 1042 l 347 955 l 434 955 l 434 868 l 434 781 l 434 694 l 434 608 l 434 521 l 347 521 l 347 434 l 260 434 m 260 608 l 260 694 l 174 694 l 174 608 l 260 608 m 260 781 l 260 868 l 174 868 l 174 781 l 260 781 z "},"´":{"ha":434,"x_min":87,"x_max":347,"o":"m 174 694 l 87 694 l 87 781 l 87 868 l 174 868 l 174 955 l 260 955 l 347 955 l 347 868 l 347 781 l 260 781 l 260 694 l 174 694 z "},"µ":{"ha":694,"x_min":87,"x_max":608,"o":"m 174 -260 l 87 -260 l 87 -174 l 87 -87 l 87 0 l 87 87 l 87 174 l 87 260 l 87 347 l 87 434 l 87 521 l 87 608 l 87 694 l 174 694 l 260 694 l 260 608 l 260 521 l 260 434 l 260 347 l 260 260 l 260 174 l 347 174 l 434 174 l 434 260 l 434 347 l 434 434 l 434 521 l 434 608 l 434 694 l 521 694 l 608 694 l 608 608 l 608 521 l 608 434 l 608 347 l 608 260 l 608 174 l 608 87 l 608 0 l 521 0 l 434 0 l 347 0 l 260 0 l 260 -87 l 260 -174 l 260 -260 l 174 -260 z "},"¶":{"ha":781,"x_min":87,"x_max":694,"o":"m 608 -174 l 521 -174 l 521 -87 l 521 0 l 521 87 l 521 174 l 521 260 l 521 347 l 434 347 l 434 260 l 434 174 l 434 87 l 434 0 l 434 -87 l 434 -174 l 347 -174 l 260 -174 l 260 -87 l 260 0 l 260 87 l 260 174 l 260 260 l 260 347 l 174 347 l 174 434 l 87 434 l 87 521 l 87 608 l 87 694 l 87 781 l 87 868 l 174 868 l 174 955 l 260 955 l 347 955 l 434 955 l 521 955 l 608 955 l 694 955 l 694 868 l 694 781 l 694 694 l 694 608 l 694 521 l 694 434 l 694 347 l 694 260 l 694 174 l 694 87 l 694 0 l 694 -87 l 694 -174 l 608 -174 m 434 521 l 521 521 l 521 608 l 521 694 l 521 781 l 434 781 l 347 781 l 347 694 l 347 608 l 347 521 l 434 521 z "},"·":{"ha":347,"x_min":87,"x_max":260,"o":"m 174 434 l 87 434 l 87 521 l 87 608 l 174 608 l 260 608 l 260 521 l 260 434 l 174 434 z "},"¸":{"ha":434,"x_min":87,"x_max":347,"o":"m 174 -347 l 87 -347 l 87 -260 l 87 -174 l 174 -174 l 174 -87 l 87 -87 l 87 0 l 174 0 l 174 87 l 260 87 l 347 87 l 347 0 l 347 -87 l 347 -174 l 347 -260 l 260 -260 l 260 -347 l 174 -347 z "},"¹":{"ha":521,"x_min":87,"x_max":434,"o":"m 347 521 l 260 521 l 174 521 l 87 521 l 87 608 l 87 694 l 174 694 l 174 781 l 87 781 l 87 868 l 87 955 l 174 955 l 174 1042 l 260 1042 l 347 1042 l 347 955 l 347 868 l 347 781 l 347 694 l 434 694 l 434 608 l 434 521 l 347 521 z "},"º":{"ha":608,"x_min":0,"x_max":521,"o":"m 260 434 l 174 434 l 174 521 l 87 521 l 87 608 l 0 608 l 0 694 l 0 781 l 0 868 l 87 868 l 87 955 l 174 955 l 174 1042 l 260 1042 l 347 1042 l 347 955 l 434 955 l 434 868 l 521 868 l 521 781 l 521 694 l 521 608 l 434 608 l 434 521 l 347 521 l 347 434 l 260 434 m 260 608 l 347 608 l 347 694 l 347 781 l 347 868 l 260 868 l 174 868 l 174 781 l 174 694 l 174 608 l 260 608 z "},"»":{"ha":781,"x_min":0,"x_max":694,"o":"m 434 87 l 347 87 l 347 174 l 347 260 l 260 260 l 260 174 l 174 174 l 174 87 l 87 87 l 0 87 l 0 174 l 0 260 l 87 260 l 87 347 l 87 434 l 0 434 l 0 521 l 0 608 l 87 608 l 174 608 l 174 521 l 260 521 l 260 434 l 347 434 l 347 521 l 347 608 l 434 608 l 521 608 l 521 521 l 608 521 l 608 434 l 694 434 l 694 347 l 694 260 l 608 260 l 608 174 l 521 174 l 521 87 l 434 87 m 434 260 l 434 347 l 434 434 l 347 434 l 347 347 l 347 260 l 434 260 z "},"¼":{"ha":1302,"x_min":87,"x_max":1215,"o":"m 1042 0 l 955 0 l 955 87 l 868 87 l 781 87 l 694 87 l 694 174 l 694 260 l 781 260 l 781 347 l 868 347 l 868 434 l 955 434 l 955 521 l 1042 521 l 1128 521 l 1128 434 l 1128 347 l 1128 260 l 1215 260 l 1215 174 l 1215 87 l 1128 87 l 1128 0 l 1042 0 m 260 0 l 174 0 l 174 87 l 174 174 l 260 174 l 260 260 l 347 260 l 347 347 l 434 347 l 434 434 l 434 521 l 521 521 l 521 608 l 608 608 l 608 694 l 608 781 l 694 781 l 694 868 l 781 868 l 781 955 l 868 955 l 955 955 l 955 868 l 955 781 l 868 781 l 868 694 l 781 694 l 781 608 l 694 608 l 694 521 l 694 434 l 608 434 l 608 347 l 521 347 l 521 260 l 521 174 l 434 174 l 434 87 l 347 87 l 347 0 l 260 0 m 434 521 l 347 521 l 260 521 l 174 521 l 87 521 l 87 608 l 87 694 l 174 694 l 174 781 l 87 781 l 87 868 l 87 955 l 174 955 l 174 1042 l 260 1042 l 347 1042 l 347 955 l 347 868 l 347 781 l 347 694 l 434 694 l 434 608 l 434 521 z "},"½":{"ha":1215,"x_min":87,"x_max":1128,"o":"m 1042 0 l 955 0 l 868 0 l 781 0 l 694 0 l 694 87 l 694 174 l 781 174 l 781 260 l 868 260 l 868 347 l 781 347 l 694 347 l 694 434 l 608 434 l 608 347 l 521 347 l 521 260 l 521 174 l 434 174 l 434 87 l 347 87 l 347 0 l 260 0 l 174 0 l 174 87 l 174 174 l 260 174 l 260 260 l 347 260 l 347 347 l 434 347 l 434 434 l 434 521 l 521 521 l 521 608 l 608 608 l 608 694 l 608 781 l 694 781 l 694 868 l 781 868 l 781 955 l 868 955 l 955 955 l 955 868 l 955 781 l 868 781 l 868 694 l 781 694 l 781 608 l 694 608 l 694 521 l 781 521 l 781 608 l 868 608 l 955 608 l 1042 608 l 1042 521 l 1128 521 l 1128 434 l 1128 347 l 1128 260 l 1042 260 l 1042 174 l 1128 174 l 1128 87 l 1128 0 l 1042 0 m 955 347 l 955 434 l 868 434 l 868 347 l 955 347 m 434 521 l 347 521 l 260 521 l 174 521 l 87 521 l 87 608 l 87 694 l 174 694 l 174 781 l 87 781 l 87 868 l 87 955 l 174 955 l 174 1042 l 260 1042 l 347 1042 l 347 955 l 347 868 l 347 781 l 347 694 l 434 694 l 434 608 l 434 521 z "},"¾":{"ha":1215,"x_min":0,"x_max":1128,"o":"m 955 0 l 868 0 l 868 87 l 781 87 l 694 87 l 608 87 l 608 174 l 608 260 l 694 260 l 694 347 l 781 347 l 781 434 l 868 434 l 868 521 l 955 521 l 1042 521 l 1042 434 l 1042 347 l 1042 260 l 1128 260 l 1128 174 l 1128 87 l 1042 87 l 1042 0 l 955 0 m 260 0 l 174 0 l 174 87 l 174 174 l 260 174 l 260 260 l 347 260 l 347 347 l 434 347 l 434 434 l 434 521 l 521 521 l 521 608 l 608 608 l 608 694 l 608 781 l 694 781 l 694 868 l 781 868 l 781 955 l 868 955 l 955 955 l 955 868 l 955 781 l 868 781 l 868 694 l 781 694 l 781 608 l 694 608 l 694 521 l 694 434 l 608 434 l 608 347 l 521 347 l 521 260 l 521 174 l 434 174 l 434 87 l 347 87 l 347 0 l 260 0 m 260 434 l 174 434 l 87 434 l 87 521 l 0 521 l 0 608 l 0 694 l 87 694 l 174 694 l 174 781 l 87 781 l 0 781 l 0 868 l 0 955 l 87 955 l 87 1042 l 174 1042 l 260 1042 l 347 1042 l 347 955 l 434 955 l 434 868 l 434 781 l 434 694 l 434 608 l 434 521 l 347 521 l 347 434 l 260 434 m 260 608 l 260 694 l 174 694 l 174 608 l 260 608 m 260 781 l 260 868 l 174 868 l 174 781 l 260 781 z "},"¿":{"ha":694,"x_min":87,"x_max":608,"o":"m 434 -260 l 347 -260 l 260 -260 l 174 -260 l 174 -174 l 87 -174 l 87 -87 l 87 0 l 87 87 l 87 174 l 174 174 l 174 260 l 260 260 l 260 347 l 260 434 l 347 434 l 434 434 l 434 347 l 434 260 l 434 174 l 347 174 l 347 87 l 260 87 l 260 0 l 260 -87 l 347 -87 l 434 -87 l 434 0 l 521 0 l 608 0 l 608 -87 l 608 -174 l 521 -174 l 521 -260 l 434 -260 m 347 521 l 260 521 l 260 608 l 260 694 l 347 694 l 434 694 l 434 608 l 434 521 l 347 521 z "},"À":{"ha":868,"x_min":87,"x_max":781,"o":"m 694 0 l 608 0 l 608 87 l 608 174 l 608 260 l 608 347 l 521 347 l 434 347 l 347 347 l 260 347 l 260 260 l 260 174 l 260 87 l 260 0 l 174 0 l 87 0 l 87 87 l 87 174 l 87 260 l 87 347 l 87 434 l 87 521 l 87 608 l 87 694 l 174 694 l 174 781 l 260 781 l 260 868 l 347 868 l 434 868 l 434 955 l 521 955 l 521 868 l 608 868 l 608 781 l 694 781 l 694 694 l 781 694 l 781 608 l 781 521 l 781 434 l 781 347 l 781 260 l 781 174 l 781 87 l 781 0 l 694 0 m 521 521 l 608 521 l 608 608 l 521 608 l 521 694 l 434 694 l 347 694 l 347 608 l 260 608 l 260 521 l 347 521 l 434 521 l 521 521 m 434 955 l 347 955 l 347 1042 l 434 1042 l 434 955 z "},"Á":{"ha":868,"x_min":87,"x_max":781,"o":"m 694 0 l 608 0 l 608 87 l 608 174 l 608 260 l 608 347 l 521 347 l 434 347 l 347 347 l 260 347 l 260 260 l 260 174 l 260 87 l 260 0 l 174 0 l 87 0 l 87 87 l 87 174 l 87 260 l 87 347 l 87 434 l 87 521 l 87 608 l 87 694 l 174 694 l 174 781 l 260 781 l 260 868 l 347 868 l 347 955 l 434 955 l 434 868 l 521 868 l 608 868 l 608 781 l 694 781 l 694 694 l 781 694 l 781 608 l 781 521 l 781 434 l 781 347 l 781 260 l 781 174 l 781 87 l 781 0 l 694 0 m 521 521 l 608 521 l 608 608 l 521 608 l 521 694 l 434 694 l 347 694 l 347 608 l 260 608 l 260 521 l 347 521 l 434 521 l 521 521 m 434 955 l 434 1042 l 521 1042 l 521 955 l 434 955 z "},"Â":{"ha":868,"x_min":87,"x_max":781,"o":"m 694 0 l 608 0 l 608 87 l 608 174 l 608 260 l 608 347 l 521 347 l 434 347 l 347 347 l 260 347 l 260 260 l 260 174 l 260 87 l 260 0 l 174 0 l 87 0 l 87 87 l 87 174 l 87 260 l 87 347 l 87 434 l 87 521 l 87 608 l 87 694 l 174 694 l 174 781 l 260 781 l 260 868 l 260 955 l 347 955 l 347 868 l 434 868 l 521 868 l 521 955 l 608 955 l 608 868 l 608 781 l 694 781 l 694 694 l 781 694 l 781 608 l 781 521 l 781 434 l 781 347 l 781 260 l 781 174 l 781 87 l 781 0 l 694 0 m 521 521 l 608 521 l 608 608 l 521 608 l 521 694 l 434 694 l 347 694 l 347 608 l 260 608 l 260 521 l 347 521 l 434 521 l 521 521 m 521 955 l 434 955 l 347 955 l 347 1042 l 434 1042 l 521 1042 l 521 955 z "},"Ã":{"ha":868,"x_min":87,"x_max":781,"o":"m 694 0 l 608 0 l 608 87 l 608 174 l 608 260 l 608 347 l 521 347 l 434 347 l 347 347 l 260 347 l 260 260 l 260 174 l 260 87 l 260 0 l 174 0 l 87 0 l 87 87 l 87 174 l 87 260 l 87 347 l 87 434 l 87 521 l 87 608 l 87 694 l 174 694 l 174 781 l 260 781 l 260 868 l 260 955 l 347 955 l 347 868 l 434 868 l 434 955 l 521 955 l 521 868 l 608 868 l 608 781 l 694 781 l 694 694 l 781 694 l 781 608 l 781 521 l 781 434 l 781 347 l 781 260 l 781 174 l 781 87 l 781 0 l 694 0 m 521 521 l 608 521 l 608 608 l 521 608 l 521 694 l 434 694 l 347 694 l 347 608 l 260 608 l 260 521 l 347 521 l 434 521 l 521 521 m 521 955 l 521 1042 l 608 1042 l 608 955 l 521 955 m 434 955 l 347 955 l 347 1042 l 434 1042 l 434 955 z "},"Ä":{"ha":868,"x_min":87,"x_max":781,"o":"m 521 955 l 521 1042 l 608 1042 l 608 955 l 521 955 m 260 955 l 260 1042 l 347 1042 l 347 955 l 260 955 m 694 0 l 608 0 l 608 87 l 608 174 l 608 260 l 608 347 l 521 347 l 434 347 l 347 347 l 260 347 l 260 260 l 260 174 l 260 87 l 260 0 l 174 0 l 87 0 l 87 87 l 87 174 l 87 260 l 87 347 l 87 434 l 87 521 l 87 608 l 87 694 l 174 694 l 174 781 l 260 781 l 260 868 l 347 868 l 434 868 l 521 868 l 608 868 l 608 781 l 694 781 l 694 694 l 781 694 l 781 608 l 781 521 l 781 434 l 781 347 l 781 260 l 781 174 l 781 87 l 781 0 l 694 0 m 521 521 l 608 521 l 608 608 l 521 608 l 521 694 l 434 694 l 347 694 l 347 608 l 260 608 l 260 521 l 347 521 l 434 521 l 521 521 z "},"Å":{"ha":868,"x_min":87,"x_max":781,"o":"m 694 0 l 608 0 l 608 87 l 608 174 l 608 260 l 608 347 l 521 347 l 434 347 l 347 347 l 260 347 l 260 260 l 260 174 l 260 87 l 260 0 l 174 0 l 87 0 l 87 87 l 87 174 l 87 260 l 87 347 l 87 434 l 87 521 l 87 608 l 87 694 l 174 694 l 174 781 l 260 781 l 260 868 l 347 868 l 347 955 l 260 955 l 260 1042 l 347 1042 l 434 1042 l 521 1042 l 608 1042 l 608 955 l 521 955 l 521 868 l 608 868 l 608 781 l 694 781 l 694 694 l 781 694 l 781 608 l 781 521 l 781 434 l 781 347 l 781 260 l 781 174 l 781 87 l 781 0 l 694 0 m 521 521 l 608 521 l 608 608 l 521 608 l 521 694 l 434 694 l 347 694 l 347 608 l 260 608 l 260 521 l 347 521 l 434 521 l 521 521 z "},"Æ":{"ha":1215,"x_min":0,"x_max":1128,"o":"m 1042 0 l 955 0 l 868 0 l 781 0 l 694 0 l 608 0 l 608 87 l 608 174 l 608 260 l 521 260 l 434 260 l 347 260 l 260 260 l 260 174 l 174 174 l 174 87 l 174 0 l 87 0 l 0 0 l 0 87 l 0 174 l 87 174 l 87 260 l 87 347 l 174 347 l 174 434 l 174 521 l 260 521 l 260 608 l 260 694 l 347 694 l 347 781 l 347 868 l 434 868 l 434 955 l 521 955 l 608 955 l 694 955 l 781 955 l 868 955 l 955 955 l 1042 955 l 1128 955 l 1128 868 l 1128 781 l 1042 781 l 955 781 l 868 781 l 781 781 l 781 694 l 781 608 l 868 608 l 955 608 l 1042 608 l 1128 608 l 1128 521 l 1128 434 l 1042 434 l 955 434 l 868 434 l 781 434 l 781 347 l 781 260 l 781 174 l 868 174 l 955 174 l 1042 174 l 1128 174 l 1128 87 l 1128 0 l 1042 0 m 521 434 l 608 434 l 608 521 l 608 608 l 608 694 l 608 781 l 521 781 l 521 694 l 434 694 l 434 608 l 434 521 l 347 521 l 347 434 l 434 434 l 521 434 z "},"Ç":{"ha":868,"x_min":174,"x_max":781,"o":"m 434 -347 l 347 -347 l 347 -260 l 347 -174 l 434 -174 l 434 -87 l 347 -87 l 347 0 l 260 0 l 260 87 l 174 87 l 174 174 l 174 260 l 174 347 l 174 434 l 174 521 l 174 608 l 174 694 l 174 781 l 174 868 l 260 868 l 260 955 l 347 955 l 434 955 l 521 955 l 608 955 l 694 955 l 694 868 l 781 868 l 781 781 l 781 694 l 694 694 l 608 694 l 608 781 l 521 781 l 434 781 l 347 781 l 347 694 l 347 608 l 347 521 l 347 434 l 347 347 l 347 260 l 347 174 l 434 174 l 521 174 l 608 174 l 608 260 l 694 260 l 781 260 l 781 174 l 781 87 l 694 87 l 694 0 l 608 0 l 608 -87 l 608 -174 l 608 -260 l 521 -260 l 521 -347 l 434 -347 z "},"È":{"ha":781,"x_min":174,"x_max":694,"o":"m 608 0 l 521 0 l 434 0 l 347 0 l 260 0 l 174 0 l 174 87 l 174 174 l 174 260 l 174 347 l 174 434 l 174 521 l 174 608 l 174 694 l 174 781 l 174 868 l 260 868 l 347 868 l 434 868 l 434 955 l 521 955 l 521 868 l 608 868 l 694 868 l 694 781 l 694 694 l 608 694 l 521 694 l 434 694 l 347 694 l 347 608 l 347 521 l 434 521 l 521 521 l 608 521 l 694 521 l 694 434 l 694 347 l 608 347 l 521 347 l 434 347 l 347 347 l 347 260 l 347 174 l 434 174 l 521 174 l 608 174 l 694 174 l 694 87 l 694 0 l 608 0 m 434 955 l 347 955 l 347 1042 l 434 1042 l 434 955 z "},"É":{"ha":781,"x_min":174,"x_max":694,"o":"m 608 0 l 521 0 l 434 0 l 347 0 l 260 0 l 174 0 l 174 87 l 174 174 l 174 260 l 174 347 l 174 434 l 174 521 l 174 608 l 174 694 l 174 781 l 174 868 l 260 868 l 347 868 l 347 955 l 434 955 l 434 868 l 521 868 l 608 868 l 694 868 l 694 781 l 694 694 l 608 694 l 521 694 l 434 694 l 347 694 l 347 608 l 347 521 l 434 521 l 521 521 l 608 521 l 694 521 l 694 434 l 694 347 l 608 347 l 521 347 l 434 347 l 347 347 l 347 260 l 347 174 l 434 174 l 521 174 l 608 174 l 694 174 l 694 87 l 694 0 l 608 0 m 434 955 l 434 1042 l 521 1042 l 521 955 l 434 955 z "},"Ê":{"ha":781,"x_min":174,"x_max":694,"o":"m 608 0 l 521 0 l 434 0 l 347 0 l 260 0 l 174 0 l 174 87 l 174 174 l 174 260 l 174 347 l 174 434 l 174 521 l 174 608 l 174 694 l 174 781 l 174 868 l 260 868 l 260 955 l 347 955 l 347 868 l 434 868 l 521 868 l 521 955 l 608 955 l 608 868 l 694 868 l 694 781 l 694 694 l 608 694 l 521 694 l 434 694 l 347 694 l 347 608 l 347 521 l 434 521 l 521 521 l 608 521 l 694 521 l 694 434 l 694 347 l 608 347 l 521 347 l 434 347 l 347 347 l 347 260 l 347 174 l 434 174 l 521 174 l 608 174 l 694 174 l 694 87 l 694 0 l 608 0 m 521 955 l 434 955 l 347 955 l 347 1042 l 434 1042 l 521 1042 l 521 955 z "},"Ë":{"ha":781,"x_min":174,"x_max":694,"o":"m 521 955 l 521 1042 l 608 1042 l 608 955 l 521 955 m 260 955 l 260 1042 l 347 1042 l 347 955 l 260 955 m 608 0 l 521 0 l 434 0 l 347 0 l 260 0 l 174 0 l 174 87 l 174 174 l 174 260 l 174 347 l 174 434 l 174 521 l 174 608 l 174 694 l 174 781 l 174 868 l 260 868 l 347 868 l 434 868 l 521 868 l 608 868 l 694 868 l 694 781 l 694 694 l 608 694 l 521 694 l 434 694 l 347 694 l 347 608 l 347 521 l 434 521 l 521 521 l 608 521 l 694 521 l 694 434 l 694 347 l 608 347 l 521 347 l 434 347 l 347 347 l 347 260 l 347 174 l 434 174 l 521 174 l 608 174 l 694 174 l 694 87 l 694 0 l 608 0 z "},"Ì":{"ha":521,"x_min":87,"x_max":434,"o":"m 347 0 l 260 0 l 174 0 l 87 0 l 87 87 l 87 174 l 174 174 l 174 260 l 174 347 l 174 434 l 174 521 l 174 608 l 174 694 l 87 694 l 87 781 l 87 868 l 174 868 l 260 868 l 260 955 l 347 955 l 347 868 l 434 868 l 434 781 l 434 694 l 347 694 l 347 608 l 347 521 l 347 434 l 347 347 l 347 260 l 347 174 l 434 174 l 434 87 l 434 0 l 347 0 m 260 955 l 174 955 l 174 1042 l 260 1042 l 260 955 z "},"Í":{"ha":521,"x_min":87,"x_max":434,"o":"m 347 0 l 260 0 l 174 0 l 87 0 l 87 87 l 87 174 l 174 174 l 174 260 l 174 347 l 174 434 l 174 521 l 174 608 l 174 694 l 87 694 l 87 781 l 87 868 l 174 868 l 174 955 l 260 955 l 260 868 l 347 868 l 434 868 l 434 781 l 434 694 l 347 694 l 347 608 l 347 521 l 347 434 l 347 347 l 347 260 l 347 174 l 434 174 l 434 87 l 434 0 l 347 0 m 260 955 l 260 1042 l 347 1042 l 347 955 l 260 955 z "},"Î":{"ha":521,"x_min":87,"x_max":434,"o":"m 347 0 l 260 0 l 174 0 l 87 0 l 87 87 l 87 174 l 174 174 l 174 260 l 174 347 l 174 434 l 174 521 l 174 608 l 174 694 l 87 694 l 87 781 l 87 868 l 87 955 l 174 955 l 174 868 l 260 868 l 347 868 l 347 955 l 434 955 l 434 868 l 434 781 l 434 694 l 347 694 l 347 608 l 347 521 l 347 434 l 347 347 l 347 260 l 347 174 l 434 174 l 434 87 l 434 0 l 347 0 m 347 955 l 260 955 l 174 955 l 174 1042 l 260 1042 l 347 1042 l 347 955 z "},"Ï":{"ha":521,"x_min":87,"x_max":434,"o":"m 347 955 l 347 1042 l 434 1042 l 434 955 l 347 955 m 87 955 l 87 1042 l 174 1042 l 174 955 l 87 955 m 347 0 l 260 0 l 174 0 l 87 0 l 87 87 l 87 174 l 174 174 l 174 260 l 174 347 l 174 434 l 174 521 l 174 608 l 174 694 l 87 694 l 87 781 l 87 868 l 174 868 l 260 868 l 347 868 l 434 868 l 434 781 l 434 694 l 347 694 l 347 608 l 347 521 l 347 434 l 347 347 l 347 260 l 347 174 l 434 174 l 434 87 l 434 0 l 347 0 z "},"Ð":{"ha":955,"x_min":0,"x_max":868,"o":"m 694 0 l 608 0 l 521 0 l 434 0 l 347 0 l 260 0 l 174 0 l 174 87 l 174 174 l 174 260 l 174 347 l 174 434 l 87 434 l 0 434 l 0 521 l 0 608 l 87 608 l 174 608 l 174 694 l 174 781 l 174 868 l 174 955 l 260 955 l 347 955 l 434 955 l 521 955 l 608 955 l 694 955 l 781 955 l 781 868 l 868 868 l 868 781 l 868 694 l 868 608 l 868 521 l 868 434 l 868 347 l 868 260 l 868 174 l 868 87 l 781 87 l 781 0 l 694 0 m 608 174 l 694 174 l 694 260 l 694 347 l 694 434 l 694 521 l 694 608 l 694 694 l 694 781 l 608 781 l 521 781 l 434 781 l 347 781 l 347 694 l 347 608 l 434 608 l 521 608 l 521 521 l 521 434 l 434 434 l 347 434 l 347 347 l 347 260 l 347 174 l 434 174 l 521 174 l 608 174 z "},"Ñ":{"ha":955,"x_min":87,"x_max":868,"o":"m 781 0 l 694 0 l 694 87 l 608 87 l 608 174 l 521 174 l 521 260 l 434 260 l 434 347 l 347 347 l 347 434 l 260 434 l 260 347 l 260 260 l 260 174 l 260 87 l 260 0 l 174 0 l 87 0 l 87 87 l 87 174 l 87 260 l 87 347 l 87 434 l 87 521 l 87 608 l 87 694 l 87 781 l 87 868 l 174 868 l 174 955 l 260 955 l 260 868 l 260 781 l 347 781 l 347 694 l 434 694 l 434 608 l 521 608 l 521 521 l 608 521 l 608 434 l 694 434 l 694 521 l 694 608 l 694 694 l 694 781 l 694 868 l 781 868 l 868 868 l 868 781 l 868 694 l 868 608 l 868 521 l 868 434 l 868 347 l 868 260 l 868 174 l 868 87 l 868 0 l 781 0 m 521 955 l 608 955 l 608 868 l 521 868 l 434 868 l 434 955 l 521 955 m 608 955 l 608 1042 l 694 1042 l 694 955 l 608 955 m 434 955 l 347 955 l 260 955 l 260 1042 l 347 1042 l 434 1042 l 434 955 z "},"Ò":{"ha":955,"x_min":174,"x_max":868,"o":"m 694 0 l 608 0 l 521 0 l 434 0 l 347 0 l 260 0 l 260 87 l 174 87 l 174 174 l 174 260 l 174 347 l 174 434 l 174 521 l 174 608 l 174 694 l 174 781 l 260 781 l 260 868 l 347 868 l 434 868 l 521 868 l 521 955 l 608 955 l 608 868 l 694 868 l 781 868 l 781 781 l 868 781 l 868 694 l 868 608 l 868 521 l 868 434 l 868 347 l 868 260 l 868 174 l 868 87 l 781 87 l 781 0 l 694 0 m 608 174 l 694 174 l 694 260 l 694 347 l 694 434 l 694 521 l 694 608 l 694 694 l 608 694 l 521 694 l 434 694 l 347 694 l 347 608 l 347 521 l 347 434 l 347 347 l 347 260 l 347 174 l 434 174 l 521 174 l 608 174 m 521 955 l 434 955 l 434 1042 l 521 1042 l 521 955 z "},"Ó":{"ha":955,"x_min":174,"x_max":868,"o":"m 694 0 l 608 0 l 521 0 l 434 0 l 347 0 l 260 0 l 260 87 l 174 87 l 174 174 l 174 260 l 174 347 l 174 434 l 174 521 l 174 608 l 174 694 l 174 781 l 260 781 l 260 868 l 347 868 l 434 868 l 434 955 l 521 955 l 521 868 l 608 868 l 694 868 l 781 868 l 781 781 l 868 781 l 868 694 l 868 608 l 868 521 l 868 434 l 868 347 l 868 260 l 868 174 l 868 87 l 781 87 l 781 0 l 694 0 m 608 174 l 694 174 l 694 260 l 694 347 l 694 434 l 694 521 l 694 608 l 694 694 l 608 694 l 521 694 l 434 694 l 347 694 l 347 608 l 347 521 l 347 434 l 347 347 l 347 260 l 347 174 l 434 174 l 521 174 l 608 174 m 521 955 l 521 1042 l 608 1042 l 608 955 l 521 955 z "},"Ô":{"ha":955,"x_min":174,"x_max":868,"o":"m 694 0 l 608 0 l 521 0 l 434 0 l 347 0 l 260 0 l 260 87 l 174 87 l 174 174 l 174 260 l 174 347 l 174 434 l 174 521 l 174 608 l 174 694 l 174 781 l 260 781 l 260 868 l 347 868 l 347 955 l 434 955 l 434 868 l 521 868 l 608 868 l 608 955 l 694 955 l 694 868 l 781 868 l 781 781 l 868 781 l 868 694 l 868 608 l 868 521 l 868 434 l 868 347 l 868 260 l 868 174 l 868 87 l 781 87 l 781 0 l 694 0 m 608 174 l 694 174 l 694 260 l 694 347 l 694 434 l 694 521 l 694 608 l 694 694 l 608 694 l 521 694 l 434 694 l 347 694 l 347 608 l 347 521 l 347 434 l 347 347 l 347 260 l 347 174 l 434 174 l 521 174 l 608 174 m 608 955 l 521 955 l 434 955 l 434 1042 l 521 1042 l 608 1042 l 608 955 z "},"Õ":{"ha":955,"x_min":174,"x_max":868,"o":"m 694 0 l 608 0 l 521 0 l 434 0 l 347 0 l 260 0 l 260 87 l 174 87 l 174 174 l 174 260 l 174 347 l 174 434 l 174 521 l 174 608 l 174 694 l 174 781 l 260 781 l 260 868 l 347 868 l 347 955 l 434 955 l 434 868 l 521 868 l 521 955 l 608 955 l 608 868 l 694 868 l 781 868 l 781 781 l 868 781 l 868 694 l 868 608 l 868 521 l 868 434 l 868 347 l 868 260 l 868 174 l 868 87 l 781 87 l 781 0 l 694 0 m 608 174 l 694 174 l 694 260 l 694 347 l 694 434 l 694 521 l 694 608 l 694 694 l 608 694 l 521 694 l 434 694 l 347 694 l 347 608 l 347 521 l 347 434 l 347 347 l 347 260 l 347 174 l 434 174 l 521 174 l 608 174 m 608 955 l 608 1042 l 694 1042 l 694 955 l 608 955 m 521 955 l 434 955 l 434 1042 l 521 1042 l 521 955 z "},"Ö":{"ha":955,"x_min":174,"x_max":868,"o":"m 608 955 l 608 1042 l 694 1042 l 694 955 l 608 955 m 347 955 l 347 1042 l 434 1042 l 434 955 l 347 955 m 694 0 l 608 0 l 521 0 l 434 0 l 347 0 l 260 0 l 260 87 l 174 87 l 174 174 l 174 260 l 174 347 l 174 434 l 174 521 l 174 608 l 174 694 l 174 781 l 260 781 l 260 868 l 347 868 l 434 868 l 521 868 l 608 868 l 694 868 l 781 868 l 781 781 l 868 781 l 868 694 l 868 608 l 868 521 l 868 434 l 868 347 l 868 260 l 868 174 l 868 87 l 781 87 l 781 0 l 694 0 m 608 174 l 694 174 l 694 260 l 694 347 l 694 434 l 694 521 l 694 608 l 694 694 l 608 694 l 521 694 l 434 694 l 347 694 l 347 608 l 347 521 l 347 434 l 347 347 l 347 260 l 347 174 l 434 174 l 521 174 l 608 174 z "},"×":{"ha":694,"x_min":87,"x_max":608,"o":"m 521 174 l 434 174 l 434 260 l 347 260 l 260 260 l 260 174 l 174 174 l 87 174 l 87 260 l 87 347 l 174 347 l 174 434 l 174 521 l 87 521 l 87 608 l 87 694 l 174 694 l 260 694 l 260 608 l 347 608 l 434 608 l 434 694 l 521 694 l 608 694 l 608 608 l 608 521 l 521 521 l 521 434 l 521 347 l 608 347 l 608 260 l 608 174 l 521 174 z "},"Ø":{"ha":1128,"x_min":-174,"x_max":1042,"o":"m 694 -174 l 608 -174 l 521 -174 l 434 -174 l 347 -174 l 260 -174 l 174 -174 l 87 -174 l 87 -87 l 0 -87 l 0 -174 l -87 -174 l -174 -174 l -174 -87 l -174 0 l -87 0 l -87 87 l -87 174 l -87 260 l -87 347 l -87 434 l -87 521 l -87 608 l -87 694 l -87 781 l -87 868 l 0 868 l 0 955 l 87 955 l 87 1042 l 174 1042 l 260 1042 l 347 1042 l 434 1042 l 521 1042 l 608 1042 l 694 1042 l 781 1042 l 781 955 l 868 955 l 868 1042 l 955 1042 l 1042 1042 l 1042 955 l 1042 868 l 955 868 l 955 781 l 955 694 l 955 608 l 955 521 l 955 434 l 955 347 l 955 260 l 955 174 l 955 87 l 955 0 l 868 0 l 868 -87 l 781 -87 l 781 -174 l 694 -174 m 608 0 l 694 0 l 694 87 l 781 87 l 781 174 l 781 260 l 781 347 l 781 434 l 781 521 l 781 608 l 694 608 l 694 521 l 608 521 l 608 434 l 521 434 l 521 347 l 434 347 l 434 260 l 347 260 l 347 174 l 260 174 l 260 87 l 174 87 l 174 0 l 260 0 l 347 0 l 434 0 l 521 0 l 608 0 m 174 260 l 174 347 l 260 347 l 260 434 l 347 434 l 347 521 l 434 521 l 434 608 l 521 608 l 521 694 l 608 694 l 608 781 l 694 781 l 694 868 l 608 868 l 521 868 l 434 868 l 347 868 l 260 868 l 174 868 l 174 781 l 87 781 l 87 694 l 87 608 l 87 521 l 87 434 l 87 347 l 87 260 l 174 260 z "},"Ù":{"ha":955,"x_min":174,"x_max":868,"o":"m 521 868 l 521 955 l 608 955 l 608 868 l 521 868 m 694 0 l 608 0 l 521 0 l 434 0 l 347 0 l 260 0 l 260 87 l 174 87 l 174 174 l 174 260 l 174 347 l 174 434 l 174 521 l 174 608 l 174 694 l 174 781 l 174 868 l 260 868 l 347 868 l 347 781 l 347 694 l 347 608 l 347 521 l 347 434 l 347 347 l 347 260 l 347 174 l 434 174 l 521 174 l 608 174 l 694 174 l 694 260 l 694 347 l 694 434 l 694 521 l 694 608 l 694 694 l 694 781 l 694 868 l 781 868 l 868 868 l 868 781 l 868 694 l 868 608 l 868 521 l 868 434 l 868 347 l 868 260 l 868 174 l 868 87 l 781 87 l 781 0 l 694 0 m 521 955 l 434 955 l 434 1042 l 521 1042 l 521 955 z "},"Ú":{"ha":955,"x_min":174,"x_max":868,"o":"m 434 868 l 434 955 l 521 955 l 521 868 l 434 868 m 694 0 l 608 0 l 521 0 l 434 0 l 347 0 l 260 0 l 260 87 l 174 87 l 174 174 l 174 260 l 174 347 l 174 434 l 174 521 l 174 608 l 174 694 l 174 781 l 174 868 l 260 868 l 347 868 l 347 781 l 347 694 l 347 608 l 347 521 l 347 434 l 347 347 l 347 260 l 347 174 l 434 174 l 521 174 l 608 174 l 694 174 l 694 260 l 694 347 l 694 434 l 694 521 l 694 608 l 694 694 l 694 781 l 694 868 l 781 868 l 868 868 l 868 781 l 868 694 l 868 608 l 868 521 l 868 434 l 868 347 l 868 260 l 868 174 l 868 87 l 781 87 l 781 0 l 694 0 m 521 955 l 521 1042 l 608 1042 l 608 955 l 521 955 z "},"Û":{"ha":955,"x_min":174,"x_max":868,"o":"m 694 0 l 608 0 l 521 0 l 434 0 l 347 0 l 260 0 l 260 87 l 174 87 l 174 174 l 174 260 l 174 347 l 174 434 l 174 521 l 174 608 l 174 694 l 174 781 l 174 868 l 260 868 l 347 868 l 347 781 l 347 694 l 347 608 l 347 521 l 347 434 l 347 347 l 347 260 l 347 174 l 434 174 l 521 174 l 608 174 l 694 174 l 694 260 l 694 347 l 694 434 l 694 521 l 694 608 l 694 694 l 694 781 l 694 868 l 781 868 l 868 868 l 868 781 l 868 694 l 868 608 l 868 521 l 868 434 l 868 347 l 868 260 l 868 174 l 868 87 l 781 87 l 781 0 l 694 0 m 694 868 l 608 868 l 608 955 l 694 955 l 694 868 m 347 868 l 347 955 l 434 955 l 434 868 l 347 868 m 608 955 l 521 955 l 434 955 l 434 1042 l 521 1042 l 608 1042 l 608 955 z "},"Ü":{"ha":955,"x_min":174,"x_max":868,"o":"m 608 955 l 608 1042 l 694 1042 l 694 955 l 608 955 m 347 955 l 347 1042 l 434 1042 l 434 955 l 347 955 m 694 0 l 608 0 l 521 0 l 434 0 l 347 0 l 260 0 l 260 87 l 174 87 l 174 174 l 174 260 l 174 347 l 174 434 l 174 521 l 174 608 l 174 694 l 174 781 l 174 868 l 260 868 l 347 868 l 347 781 l 347 694 l 347 608 l 347 521 l 347 434 l 347 347 l 347 260 l 347 174 l 434 174 l 521 174 l 608 174 l 694 174 l 694 260 l 694 347 l 694 434 l 694 521 l 694 608 l 694 694 l 694 781 l 694 868 l 781 868 l 868 868 l 868 781 l 868 694 l 868 608 l 868 521 l 868 434 l 868 347 l 868 260 l 868 174 l 868 87 l 781 87 l 781 0 l 694 0 z "},"Ý":{"ha":868,"x_min":87,"x_max":781,"o":"m 347 868 l 347 955 l 434 955 l 434 868 l 347 868 m 434 0 l 347 0 l 347 87 l 347 174 l 347 260 l 347 347 l 347 434 l 260 434 l 260 521 l 174 521 l 174 608 l 174 694 l 87 694 l 87 781 l 87 868 l 174 868 l 260 868 l 260 781 l 347 781 l 347 694 l 347 608 l 434 608 l 521 608 l 521 694 l 521 781 l 608 781 l 608 868 l 694 868 l 781 868 l 781 781 l 781 694 l 694 694 l 694 608 l 694 521 l 608 521 l 608 434 l 521 434 l 521 347 l 521 260 l 521 174 l 521 87 l 521 0 l 434 0 m 434 955 l 434 1042 l 521 1042 l 521 955 l 434 955 z "},"Þ":{"ha":868,"x_min":87,"x_max":781,"o":"m 174 0 l 87 0 l 87 87 l 87 174 l 87 260 l 87 347 l 87 434 l 87 521 l 87 608 l 87 694 l 87 781 l 87 868 l 87 955 l 174 955 l 260 955 l 260 868 l 260 781 l 347 781 l 434 781 l 521 781 l 608 781 l 608 694 l 694 694 l 694 608 l 781 608 l 781 521 l 781 434 l 781 347 l 694 347 l 694 260 l 608 260 l 608 174 l 521 174 l 434 174 l 347 174 l 260 174 l 260 87 l 260 0 l 174 0 m 434 347 l 521 347 l 521 434 l 608 434 l 608 521 l 521 521 l 521 608 l 434 608 l 347 608 l 260 608 l 260 521 l 260 434 l 260 347 l 347 347 l 434 347 z "},"ß":{"ha":868,"x_min":87,"x_max":781,"o":"m 608 0 l 521 0 l 434 0 l 347 0 l 347 87 l 260 87 l 260 0 l 174 0 l 87 0 l 87 87 l 87 174 l 87 260 l 87 347 l 87 434 l 87 521 l 87 608 l 87 694 l 87 781 l 87 868 l 174 868 l 174 955 l 260 955 l 347 955 l 434 955 l 521 955 l 608 955 l 608 868 l 694 868 l 694 781 l 694 694 l 694 608 l 694 521 l 608 521 l 608 434 l 694 434 l 694 347 l 781 347 l 781 260 l 781 174 l 781 87 l 694 87 l 694 0 l 608 0 m 521 174 l 608 174 l 608 260 l 521 260 l 521 347 l 434 347 l 434 434 l 434 521 l 434 608 l 521 608 l 521 694 l 521 781 l 434 781 l 347 781 l 260 781 l 260 694 l 260 608 l 260 521 l 260 434 l 260 347 l 260 260 l 347 260 l 434 260 l 434 174 l 521 174 z "},"à":{"ha":694,"x_min":87,"x_max":608,"o":"m 347 781 l 347 868 l 434 868 l 434 781 l 347 781 m 521 0 l 434 0 l 347 0 l 260 0 l 174 0 l 174 87 l 87 87 l 87 174 l 87 260 l 87 347 l 87 434 l 87 521 l 87 608 l 174 608 l 174 694 l 260 694 l 347 694 l 434 694 l 521 694 l 521 608 l 608 608 l 608 521 l 608 434 l 608 347 l 608 260 l 608 174 l 608 87 l 608 0 l 521 0 m 347 174 l 434 174 l 434 260 l 434 347 l 434 434 l 434 521 l 347 521 l 260 521 l 260 434 l 260 347 l 260 260 l 260 174 l 347 174 m 347 868 l 260 868 l 260 955 l 347 955 l 347 868 z "},"á":{"ha":694,"x_min":87,"x_max":608,"o":"m 260 781 l 260 868 l 347 868 l 347 781 l 260 781 m 521 0 l 434 0 l 347 0 l 260 0 l 174 0 l 174 87 l 87 87 l 87 174 l 87 260 l 87 347 l 87 434 l 87 521 l 87 608 l 174 608 l 174 694 l 260 694 l 347 694 l 434 694 l 521 694 l 521 608 l 608 608 l 608 521 l 608 434 l 608 347 l 608 260 l 608 174 l 608 87 l 608 0 l 521 0 m 347 174 l 434 174 l 434 260 l 434 347 l 434 434 l 434 521 l 347 521 l 260 521 l 260 434 l 260 347 l 260 260 l 260 174 l 347 174 m 347 868 l 347 955 l 434 955 l 434 868 l 347 868 z "},"â":{"ha":694,"x_min":87,"x_max":608,"o":"m 434 781 l 434 868 l 521 868 l 521 781 l 434 781 m 174 781 l 174 868 l 260 868 l 260 781 l 174 781 m 521 0 l 434 0 l 347 0 l 260 0 l 174 0 l 174 87 l 87 87 l 87 174 l 87 260 l 87 347 l 87 434 l 87 521 l 87 608 l 174 608 l 174 694 l 260 694 l 347 694 l 434 694 l 521 694 l 521 608 l 608 608 l 608 521 l 608 434 l 608 347 l 608 260 l 608 174 l 608 87 l 608 0 l 521 0 m 347 174 l 434 174 l 434 260 l 434 347 l 434 434 l 434 521 l 347 521 l 260 521 l 260 434 l 260 347 l 260 260 l 260 174 l 347 174 m 434 868 l 347 868 l 260 868 l 260 955 l 347 955 l 434 955 l 434 868 z "},"ã":{"ha":694,"x_min":87,"x_max":608,"o":"m 347 781 l 347 868 l 434 868 l 434 781 l 347 781 m 174 781 l 174 868 l 260 868 l 260 781 l 174 781 m 521 0 l 434 0 l 347 0 l 260 0 l 174 0 l 174 87 l 87 87 l 87 174 l 87 260 l 87 347 l 87 434 l 87 521 l 87 608 l 174 608 l 174 694 l 260 694 l 347 694 l 434 694 l 521 694 l 521 608 l 608 608 l 608 521 l 608 434 l 608 347 l 608 260 l 608 174 l 608 87 l 608 0 l 521 0 m 347 174 l 434 174 l 434 260 l 434 347 l 434 434 l 434 521 l 347 521 l 260 521 l 260 434 l 260 347 l 260 260 l 260 174 l 347 174 m 434 868 l 434 955 l 521 955 l 521 868 l 434 868 m 347 868 l 260 868 l 260 955 l 347 955 l 347 868 z "},"ä":{"ha":694,"x_min":87,"x_max":608,"o":"m 434 781 l 434 868 l 521 868 l 521 781 l 434 781 m 174 781 l 174 868 l 260 868 l 260 781 l 174 781 m 521 0 l 434 0 l 347 0 l 260 0 l 174 0 l 174 87 l 87 87 l 87 174 l 87 260 l 87 347 l 87 434 l 87 521 l 87 608 l 174 608 l 174 694 l 260 694 l 347 694 l 434 694 l 521 694 l 521 608 l 608 608 l 608 521 l 608 434 l 608 347 l 608 260 l 608 174 l 608 87 l 608 0 l 521 0 m 347 174 l 434 174 l 434 260 l 434 347 l 434 434 l 434 521 l 347 521 l 260 521 l 260 434 l 260 347 l 260 260 l 260 174 l 347 174 z "},"å":{"ha":694,"x_min":87,"x_max":608,"o":"m 521 0 l 434 0 l 347 0 l 260 0 l 174 0 l 174 87 l 87 87 l 87 174 l 87 260 l 87 347 l 87 434 l 87 521 l 87 608 l 174 608 l 174 694 l 260 694 l 347 694 l 434 694 l 521 694 l 521 608 l 608 608 l 608 521 l 608 434 l 608 347 l 608 260 l 608 174 l 608 87 l 608 0 l 521 0 m 347 174 l 434 174 l 434 260 l 434 347 l 434 434 l 434 521 l 347 521 l 260 521 l 260 434 l 260 347 l 260 260 l 260 174 l 347 174 m 347 868 l 434 868 l 434 781 l 347 781 l 260 781 l 260 868 l 347 868 m 434 868 l 434 955 l 521 955 l 521 868 l 434 868 m 260 868 l 174 868 l 174 955 l 260 955 l 260 868 m 434 955 l 347 955 l 260 955 l 260 1042 l 347 1042 l 434 1042 l 434 955 z "},"æ":{"ha":1128,"x_min":87,"x_max":1042,"o":"m 868 0 l 781 0 l 694 0 l 608 0 l 521 0 l 434 0 l 347 0 l 260 0 l 174 0 l 174 87 l 87 87 l 87 174 l 87 260 l 87 347 l 87 434 l 87 521 l 87 608 l 174 608 l 174 694 l 260 694 l 347 694 l 434 694 l 521 694 l 521 608 l 608 608 l 694 608 l 694 694 l 781 694 l 868 694 l 955 694 l 955 608 l 1042 608 l 1042 521 l 1042 434 l 1042 347 l 955 347 l 868 347 l 781 347 l 694 347 l 694 260 l 694 174 l 781 174 l 868 174 l 868 260 l 955 260 l 1042 260 l 1042 174 l 1042 87 l 955 87 l 955 0 l 868 0 m 347 174 l 434 174 l 434 260 l 434 347 l 434 434 l 434 521 l 347 521 l 260 521 l 260 434 l 260 347 l 260 260 l 260 174 l 347 174 m 781 434 l 868 434 l 868 521 l 781 521 l 694 521 l 694 434 l 781 434 z "},"ç":{"ha":694,"x_min":87,"x_max":608,"o":"m 347 -347 l 260 -347 l 260 -260 l 260 -174 l 347 -174 l 347 -87 l 260 -87 l 260 0 l 174 0 l 174 87 l 87 87 l 87 174 l 87 260 l 87 347 l 87 434 l 87 521 l 87 608 l 174 608 l 174 694 l 260 694 l 347 694 l 434 694 l 521 694 l 521 608 l 608 608 l 608 521 l 608 434 l 521 434 l 434 434 l 434 521 l 347 521 l 260 521 l 260 434 l 260 347 l 260 260 l 260 174 l 347 174 l 434 174 l 434 260 l 521 260 l 608 260 l 608 174 l 608 87 l 521 87 l 521 0 l 521 -87 l 521 -174 l 521 -260 l 434 -260 l 434 -347 l 347 -347 z "},"è":{"ha":694,"x_min":87,"x_max":608,"o":"m 347 781 l 347 868 l 434 868 l 434 781 l 347 781 m 434 0 l 347 0 l 260 0 l 174 0 l 174 87 l 87 87 l 87 174 l 87 260 l 87 347 l 87 434 l 87 521 l 87 608 l 174 608 l 174 694 l 260 694 l 347 694 l 434 694 l 521 694 l 521 608 l 608 608 l 608 521 l 608 434 l 608 347 l 521 347 l 434 347 l 347 347 l 260 347 l 260 260 l 260 174 l 347 174 l 434 174 l 434 260 l 521 260 l 608 260 l 608 174 l 608 87 l 521 87 l 521 0 l 434 0 m 347 434 l 434 434 l 434 521 l 347 521 l 260 521 l 260 434 l 347 434 m 347 868 l 260 868 l 260 955 l 347 955 l 347 868 z "},"é":{"ha":694,"x_min":87,"x_max":608,"o":"m 260 781 l 260 868 l 347 868 l 347 781 l 260 781 m 434 0 l 347 0 l 260 0 l 174 0 l 174 87 l 87 87 l 87 174 l 87 260 l 87 347 l 87 434 l 87 521 l 87 608 l 174 608 l 174 694 l 260 694 l 347 694 l 434 694 l 521 694 l 521 608 l 608 608 l 608 521 l 608 434 l 608 347 l 521 347 l 434 347 l 347 347 l 260 347 l 260 260 l 260 174 l 347 174 l 434 174 l 434 260 l 521 260 l 608 260 l 608 174 l 608 87 l 521 87 l 521 0 l 434 0 m 347 434 l 434 434 l 434 521 l 347 521 l 260 521 l 260 434 l 347 434 m 347 868 l 347 955 l 434 955 l 434 868 l 347 868 z "},"ê":{"ha":694,"x_min":87,"x_max":608,"o":"m 434 781 l 434 868 l 521 868 l 521 781 l 434 781 m 174 781 l 174 868 l 260 868 l 260 781 l 174 781 m 434 0 l 347 0 l 260 0 l 174 0 l 174 87 l 87 87 l 87 174 l 87 260 l 87 347 l 87 434 l 87 521 l 87 608 l 174 608 l 174 694 l 260 694 l 347 694 l 434 694 l 521 694 l 521 608 l 608 608 l 608 521 l 608 434 l 608 347 l 521 347 l 434 347 l 347 347 l 260 347 l 260 260 l 260 174 l 347 174 l 434 174 l 434 260 l 521 260 l 608 260 l 608 174 l 608 87 l 521 87 l 521 0 l 434 0 m 347 434 l 434 434 l 434 521 l 347 521 l 260 521 l 260 434 l 347 434 m 434 868 l 347 868 l 260 868 l 260 955 l 347 955 l 434 955 l 434 868 z "},"ë":{"ha":694,"x_min":87,"x_max":608,"o":"m 434 781 l 434 868 l 521 868 l 521 781 l 434 781 m 174 781 l 174 868 l 260 868 l 260 781 l 174 781 m 434 0 l 347 0 l 260 0 l 174 0 l 174 87 l 87 87 l 87 174 l 87 260 l 87 347 l 87 434 l 87 521 l 87 608 l 174 608 l 174 694 l 260 694 l 347 694 l 434 694 l 521 694 l 521 608 l 608 608 l 608 521 l 608 434 l 608 347 l 521 347 l 434 347 l 347 347 l 260 347 l 260 260 l 260 174 l 347 174 l 434 174 l 434 260 l 521 260 l 608 260 l 608 174 l 608 87 l 521 87 l 521 0 l 434 0 m 347 434 l 434 434 l 434 521 l 347 521 l 260 521 l 260 434 l 347 434 z "},"ì":{"ha":347,"x_min":87,"x_max":260,"o":"m 174 781 l 174 868 l 260 868 l 260 781 l 174 781 m 174 0 l 87 0 l 87 87 l 87 174 l 87 260 l 87 347 l 87 434 l 87 521 l 87 608 l 87 694 l 174 694 l 260 694 l 260 608 l 260 521 l 260 434 l 260 347 l 260 260 l 260 174 l 260 87 l 260 0 l 174 0 m 174 868 l 87 868 l 87 955 l 174 955 l 174 868 z "},"í":{"ha":347,"x_min":87,"x_max":260,"o":"m 87 781 l 87 868 l 174 868 l 174 781 l 87 781 m 174 0 l 87 0 l 87 87 l 87 174 l 87 260 l 87 347 l 87 434 l 87 521 l 87 608 l 87 694 l 174 694 l 260 694 l 260 608 l 260 521 l 260 434 l 260 347 l 260 260 l 260 174 l 260 87 l 260 0 l 174 0 m 174 868 l 174 955 l 260 955 l 260 868 l 174 868 z "},"î":{"ha":434,"x_min":0,"x_max":347,"o":"m 260 781 l 260 868 l 347 868 l 347 781 l 260 781 m 0 781 l 0 868 l 87 868 l 87 781 l 0 781 m 174 0 l 87 0 l 87 87 l 87 174 l 87 260 l 87 347 l 87 434 l 87 521 l 87 608 l 87 694 l 174 694 l 260 694 l 260 608 l 260 521 l 260 434 l 260 347 l 260 260 l 260 174 l 260 87 l 260 0 l 174 0 m 260 868 l 174 868 l 87 868 l 87 955 l 174 955 l 260 955 l 260 868 z "},"ï":{"ha":434,"x_min":0,"x_max":347,"o":"m 260 781 l 260 868 l 347 868 l 347 781 l 260 781 m 0 781 l 0 868 l 87 868 l 87 781 l 0 781 m 174 0 l 87 0 l 87 87 l 87 174 l 87 260 l 87 347 l 87 434 l 87 521 l 87 608 l 87 694 l 174 694 l 260 694 l 260 608 l 260 521 l 260 434 l 260 347 l 260 260 l 260 174 l 260 87 l 260 0 l 174 0 z "},"ð":{"ha":781,"x_min":87,"x_max":694,"o":"m 434 0 l 347 0 l 260 0 l 174 0 l 174 87 l 87 87 l 87 174 l 87 260 l 87 347 l 87 434 l 87 521 l 87 608 l 174 608 l 174 694 l 87 694 l 87 781 l 87 868 l 174 868 l 174 955 l 260 955 l 260 1042 l 347 1042 l 434 1042 l 434 955 l 521 955 l 521 1042 l 608 1042 l 694 1042 l 694 955 l 694 868 l 608 868 l 608 781 l 608 694 l 608 608 l 608 521 l 608 434 l 608 347 l 608 260 l 608 174 l 608 87 l 521 87 l 521 0 l 434 0 m 347 174 l 434 174 l 434 260 l 434 347 l 434 434 l 434 521 l 347 521 l 260 521 l 260 434 l 260 347 l 260 260 l 260 174 l 347 174 m 347 694 l 434 694 l 434 781 l 347 781 l 260 781 l 260 694 l 347 694 z "},"ñ":{"ha":694,"x_min":87,"x_max":608,"o":"m 347 781 l 347 868 l 434 868 l 434 781 l 347 781 m 174 781 l 174 868 l 260 868 l 260 781 l 174 781 m 521 0 l 434 0 l 434 87 l 434 174 l 434 260 l 434 347 l 434 434 l 434 521 l 347 521 l 260 521 l 260 434 l 260 347 l 260 260 l 260 174 l 260 87 l 260 0 l 174 0 l 87 0 l 87 87 l 87 174 l 87 260 l 87 347 l 87 434 l 87 521 l 87 608 l 87 694 l 174 694 l 260 694 l 347 694 l 434 694 l 521 694 l 521 608 l 608 608 l 608 521 l 608 434 l 608 347 l 608 260 l 608 174 l 608 87 l 608 0 l 521 0 m 434 868 l 434 955 l 521 955 l 521 868 l 434 868 m 347 868 l 260 868 l 260 955 l 347 955 l 347 868 z "},"ò":{"ha":694,"x_min":87,"x_max":608,"o":"m 347 781 l 347 868 l 434 868 l 434 781 l 347 781 m 434 0 l 347 0 l 260 0 l 174 0 l 174 87 l 87 87 l 87 174 l 87 260 l 87 347 l 87 434 l 87 521 l 87 608 l 174 608 l 174 694 l 260 694 l 347 694 l 434 694 l 521 694 l 521 608 l 608 608 l 608 521 l 608 434 l 608 347 l 608 260 l 608 174 l 608 87 l 521 87 l 521 0 l 434 0 m 347 174 l 434 174 l 434 260 l 434 347 l 434 434 l 434 521 l 347 521 l 260 521 l 260 434 l 260 347 l 260 260 l 260 174 l 347 174 m 347 868 l 260 868 l 260 955 l 347 955 l 347 868 z "},"ó":{"ha":694,"x_min":87,"x_max":608,"o":"m 260 781 l 260 868 l 347 868 l 347 781 l 260 781 m 434 0 l 347 0 l 260 0 l 174 0 l 174 87 l 87 87 l 87 174 l 87 260 l 87 347 l 87 434 l 87 521 l 87 608 l 174 608 l 174 694 l 260 694 l 347 694 l 434 694 l 521 694 l 521 608 l 608 608 l 608 521 l 608 434 l 608 347 l 608 260 l 608 174 l 608 87 l 521 87 l 521 0 l 434 0 m 347 174 l 434 174 l 434 260 l 434 347 l 434 434 l 434 521 l 347 521 l 260 521 l 260 434 l 260 347 l 260 260 l 260 174 l 347 174 m 347 868 l 347 955 l 434 955 l 434 868 l 347 868 z "},"ô":{"ha":694,"x_min":87,"x_max":608,"o":"m 434 781 l 434 868 l 521 868 l 521 781 l 434 781 m 174 781 l 174 868 l 260 868 l 260 781 l 174 781 m 434 0 l 347 0 l 260 0 l 174 0 l 174 87 l 87 87 l 87 174 l 87 260 l 87 347 l 87 434 l 87 521 l 87 608 l 174 608 l 174 694 l 260 694 l 347 694 l 434 694 l 521 694 l 521 608 l 608 608 l 608 521 l 608 434 l 608 347 l 608 260 l 608 174 l 608 87 l 521 87 l 521 0 l 434 0 m 347 174 l 434 174 l 434 260 l 434 347 l 434 434 l 434 521 l 347 521 l 260 521 l 260 434 l 260 347 l 260 260 l 260 174 l 347 174 m 434 868 l 347 868 l 260 868 l 260 955 l 347 955 l 434 955 l 434 868 z "},"õ":{"ha":694,"x_min":87,"x_max":608,"o":"m 347 781 l 347 868 l 434 868 l 434 781 l 347 781 m 174 781 l 174 868 l 260 868 l 260 781 l 174 781 m 434 0 l 347 0 l 260 0 l 174 0 l 174 87 l 87 87 l 87 174 l 87 260 l 87 347 l 87 434 l 87 521 l 87 608 l 174 608 l 174 694 l 260 694 l 347 694 l 434 694 l 521 694 l 521 608 l 608 608 l 608 521 l 608 434 l 608 347 l 608 260 l 608 174 l 608 87 l 521 87 l 521 0 l 434 0 m 347 174 l 434 174 l 434 260 l 434 347 l 434 434 l 434 521 l 347 521 l 260 521 l 260 434 l 260 347 l 260 260 l 260 174 l 347 174 m 434 868 l 434 955 l 521 955 l 521 868 l 434 868 m 347 868 l 260 868 l 260 955 l 347 955 l 347 868 z "},"ö":{"ha":694,"x_min":87,"x_max":608,"o":"m 434 781 l 434 868 l 521 868 l 521 781 l 434 781 m 174 781 l 174 868 l 260 868 l 260 781 l 174 781 m 434 0 l 347 0 l 260 0 l 174 0 l 174 87 l 87 87 l 87 174 l 87 260 l 87 347 l 87 434 l 87 521 l 87 608 l 174 608 l 174 694 l 260 694 l 347 694 l 434 694 l 521 694 l 521 608 l 608 608 l 608 521 l 608 434 l 608 347 l 608 260 l 608 174 l 608 87 l 521 87 l 521 0 l 434 0 m 347 174 l 434 174 l 434 260 l 434 347 l 434 434 l 434 521 l 347 521 l 260 521 l 260 434 l 260 347 l 260 260 l 260 174 l 347 174 z "},"÷":{"ha":694,"x_min":87,"x_max":608,"o":"m 347 260 l 434 260 l 434 174 l 347 174 l 260 174 l 260 260 l 347 260 m 521 347 l 434 347 l 347 347 l 260 347 l 174 347 l 87 347 l 87 434 l 87 521 l 174 521 l 260 521 l 347 521 l 434 521 l 521 521 l 608 521 l 608 434 l 608 347 l 521 347 m 347 694 l 434 694 l 434 608 l 347 608 l 260 608 l 260 694 l 347 694 z "},"ø":{"ha":955,"x_min":0,"x_max":868,"o":"m 87 -87 l 0 -87 l 0 0 l 0 87 l 87 87 l 87 174 l 87 260 l 87 347 l 87 434 l 87 521 l 174 521 l 174 608 l 260 608 l 260 694 l 347 694 l 434 694 l 521 694 l 608 694 l 694 694 l 694 781 l 781 781 l 868 781 l 868 694 l 868 608 l 781 608 l 781 521 l 781 434 l 781 347 l 781 260 l 781 174 l 694 174 l 694 87 l 608 87 l 608 0 l 521 0 l 434 0 l 347 0 l 260 0 l 174 0 l 174 -87 l 87 -87 m 521 174 l 608 174 l 608 260 l 608 347 l 521 347 l 521 260 l 434 260 l 434 174 l 521 174 m 347 347 l 347 434 l 434 434 l 434 521 l 347 521 l 260 521 l 260 434 l 260 347 l 347 347 z "},"ù":{"ha":694,"x_min":87,"x_max":608,"o":"m 347 781 l 347 868 l 434 868 l 434 781 l 347 781 m 521 0 l 434 0 l 347 0 l 260 0 l 174 0 l 174 87 l 87 87 l 87 174 l 87 260 l 87 347 l 87 434 l 87 521 l 87 608 l 87 694 l 174 694 l 260 694 l 260 608 l 260 521 l 260 434 l 260 347 l 260 260 l 260 174 l 347 174 l 434 174 l 434 260 l 434 347 l 434 434 l 434 521 l 434 608 l 434 694 l 521 694 l 608 694 l 608 608 l 608 521 l 608 434 l 608 347 l 608 260 l 608 174 l 608 87 l 608 0 l 521 0 m 347 868 l 260 868 l 260 955 l 347 955 l 347 868 z "},"ú":{"ha":694,"x_min":87,"x_max":608,"o":"m 260 781 l 260 868 l 347 868 l 347 781 l 260 781 m 521 0 l 434 0 l 347 0 l 260 0 l 174 0 l 174 87 l 87 87 l 87 174 l 87 260 l 87 347 l 87 434 l 87 521 l 87 608 l 87 694 l 174 694 l 260 694 l 260 608 l 260 521 l 260 434 l 260 347 l 260 260 l 260 174 l 347 174 l 434 174 l 434 260 l 434 347 l 434 434 l 434 521 l 434 608 l 434 694 l 521 694 l 608 694 l 608 608 l 608 521 l 608 434 l 608 347 l 608 260 l 608 174 l 608 87 l 608 0 l 521 0 m 347 868 l 347 955 l 434 955 l 434 868 l 347 868 z "},"û":{"ha":694,"x_min":87,"x_max":608,"o":"m 434 781 l 434 868 l 521 868 l 521 781 l 434 781 m 174 781 l 174 868 l 260 868 l 260 781 l 174 781 m 521 0 l 434 0 l 347 0 l 260 0 l 174 0 l 174 87 l 87 87 l 87 174 l 87 260 l 87 347 l 87 434 l 87 521 l 87 608 l 87 694 l 174 694 l 260 694 l 260 608 l 260 521 l 260 434 l 260 347 l 260 260 l 260 174 l 347 174 l 434 174 l 434 260 l 434 347 l 434 434 l 434 521 l 434 608 l 434 694 l 521 694 l 608 694 l 608 608 l 608 521 l 608 434 l 608 347 l 608 260 l 608 174 l 608 87 l 608 0 l 521 0 m 434 868 l 347 868 l 260 868 l 260 955 l 347 955 l 434 955 l 434 868 z "},"ü":{"ha":694,"x_min":87,"x_max":608,"o":"m 434 781 l 434 868 l 521 868 l 521 781 l 434 781 m 174 781 l 174 868 l 260 868 l 260 781 l 174 781 m 521 0 l 434 0 l 347 0 l 260 0 l 174 0 l 174 87 l 87 87 l 87 174 l 87 260 l 87 347 l 87 434 l 87 521 l 87 608 l 87 694 l 174 694 l 260 694 l 260 608 l 260 521 l 260 434 l 260 347 l 260 260 l 260 174 l 347 174 l 434 174 l 434 260 l 434 347 l 434 434 l 434 521 l 434 608 l 434 694 l 521 694 l 608 694 l 608 608 l 608 521 l 608 434 l 608 347 l 608 260 l 608 174 l 608 87 l 608 0 l 521 0 z "},"ý":{"ha":694,"x_min":87,"x_max":608,"o":"m 260 781 l 260 868 l 347 868 l 347 781 l 260 781 m 260 -260 l 174 -260 l 87 -260 l 87 -174 l 87 -87 l 174 -87 l 260 -87 l 260 0 l 174 0 l 174 87 l 87 87 l 87 174 l 87 260 l 87 347 l 87 434 l 87 521 l 87 608 l 87 694 l 174 694 l 260 694 l 260 608 l 260 521 l 260 434 l 260 347 l 260 260 l 260 174 l 347 174 l 434 174 l 434 260 l 434 347 l 434 434 l 434 521 l 434 608 l 434 694 l 521 694 l 608 694 l 608 608 l 608 521 l 608 434 l 608 347 l 608 260 l 608 174 l 608 87 l 521 87 l 521 0 l 521 -87 l 434 -87 l 434 -174 l 347 -174 l 347 -260 l 260 -260 m 347 868 l 347 955 l 434 955 l 434 868 l 347 868 z "},"þ":{"ha":868,"x_min":87,"x_max":781,"o":"m 174 -260 l 87 -260 l 87 -174 l 87 -87 l 87 0 l 87 87 l 87 174 l 87 260 l 87 347 l 87 434 l 87 521 l 87 608 l 87 694 l 87 781 l 87 868 l 87 955 l 174 955 l 260 955 l 260 868 l 260 781 l 260 694 l 260 608 l 260 521 l 347 521 l 434 521 l 521 521 l 608 521 l 608 434 l 694 434 l 694 347 l 781 347 l 781 260 l 781 174 l 781 87 l 694 87 l 694 0 l 608 0 l 608 -87 l 521 -87 l 434 -87 l 347 -87 l 260 -87 l 260 -174 l 260 -260 l 174 -260 m 434 87 l 521 87 l 521 174 l 608 174 l 608 260 l 521 260 l 521 347 l 434 347 l 347 347 l 260 347 l 260 260 l 260 174 l 260 87 l 347 87 l 434 87 z "},"ÿ":{"ha":694,"x_min":87,"x_max":608,"o":"m 434 781 l 434 868 l 521 868 l 521 781 l 434 781 m 174 781 l 174 868 l 260 868 l 260 781 l 174 781 m 260 -260 l 174 -260 l 87 -260 l 87 -174 l 87 -87 l 174 -87 l 260 -87 l 260 0 l 174 0 l 174 87 l 87 87 l 87 174 l 87 260 l 87 347 l 87 434 l 87 521 l 87 608 l 87 694 l 174 694 l 260 694 l 260 608 l 260 521 l 260 434 l 260 347 l 260 260 l 260 174 l 347 174 l 434 174 l 434 260 l 434 347 l 434 434 l 434 521 l 434 608 l 434 694 l 521 694 l 608 694 l 608 608 l 608 521 l 608 434 l 608 347 l 608 260 l 608 174 l 608 87 l 521 87 l 521 0 l 521 -87 l 434 -87 l 434 -174 l 347 -174 l 347 -260 l 260 -260 z "},"Ā":{"ha":868,"x_min":87,"x_max":781,"o":"m 694 0 l 608 0 l 608 87 l 608 174 l 608 260 l 608 347 l 521 347 l 434 347 l 347 347 l 260 347 l 260 260 l 260 174 l 260 87 l 260 0 l 174 0 l 87 0 l 87 87 l 87 174 l 87 260 l 87 347 l 87 434 l 87 521 l 87 608 l 87 694 l 174 694 l 174 781 l 260 781 l 260 868 l 347 868 l 434 868 l 521 868 l 608 868 l 608 781 l 694 781 l 694 694 l 781 694 l 781 608 l 781 521 l 781 434 l 781 347 l 781 260 l 781 174 l 781 87 l 781 0 l 694 0 m 521 521 l 608 521 l 608 608 l 521 608 l 521 694 l 434 694 l 347 694 l 347 608 l 260 608 l 260 521 l 347 521 l 434 521 l 521 521 m 521 1042 l 608 1042 l 608 955 l 521 955 l 434 955 l 347 955 l 260 955 l 260 1042 l 347 1042 l 434 1042 l 521 1042 z "},"ā":{"ha":694,"x_min":87,"x_max":608,"o":"m 521 0 l 434 0 l 347 0 l 260 0 l 174 0 l 174 87 l 87 87 l 87 174 l 87 260 l 87 347 l 87 434 l 87 521 l 87 608 l 174 608 l 174 694 l 260 694 l 347 694 l 434 694 l 521 694 l 521 608 l 608 608 l 608 521 l 608 434 l 608 347 l 608 260 l 608 174 l 608 87 l 608 0 l 521 0 m 347 174 l 434 174 l 434 260 l 434 347 l 434 434 l 434 521 l 347 521 l 260 521 l 260 434 l 260 347 l 260 260 l 260 174 l 347 174 m 434 868 l 521 868 l 521 781 l 434 781 l 347 781 l 260 781 l 174 781 l 174 868 l 260 868 l 347 868 l 434 868 z "},"Ă":{"ha":868,"x_min":87,"x_max":781,"o":"m 694 0 l 608 0 l 608 87 l 608 174 l 608 260 l 608 347 l 521 347 l 434 347 l 347 347 l 260 347 l 260 260 l 260 174 l 260 87 l 260 0 l 174 0 l 87 0 l 87 87 l 87 174 l 87 260 l 87 347 l 87 434 l 87 521 l 87 608 l 87 694 l 174 694 l 174 781 l 260 781 l 260 868 l 347 868 l 347 955 l 434 955 l 521 955 l 521 868 l 608 868 l 608 781 l 694 781 l 694 694 l 781 694 l 781 608 l 781 521 l 781 434 l 781 347 l 781 260 l 781 174 l 781 87 l 781 0 l 694 0 m 521 521 l 608 521 l 608 608 l 521 608 l 521 694 l 434 694 l 347 694 l 347 608 l 260 608 l 260 521 l 347 521 l 434 521 l 521 521 m 521 955 l 521 1042 l 608 1042 l 608 955 l 521 955 m 347 955 l 260 955 l 260 1042 l 347 1042 l 347 955 z "},"ă":{"ha":694,"x_min":87,"x_max":608,"o":"m 521 0 l 434 0 l 347 0 l 260 0 l 174 0 l 174 87 l 87 87 l 87 174 l 87 260 l 87 347 l 87 434 l 87 521 l 87 608 l 174 608 l 174 694 l 260 694 l 347 694 l 434 694 l 521 694 l 521 608 l 608 608 l 608 521 l 608 434 l 608 347 l 608 260 l 608 174 l 608 87 l 608 0 l 521 0 m 347 174 l 434 174 l 434 260 l 434 347 l 434 434 l 434 521 l 347 521 l 260 521 l 260 434 l 260 347 l 260 260 l 260 174 l 347 174 m 347 868 l 434 868 l 434 781 l 347 781 l 260 781 l 260 868 l 347 868 m 434 868 l 434 955 l 521 955 l 521 868 l 434 868 m 260 868 l 174 868 l 174 955 l 260 955 l 260 868 z "},"Ą":{"ha":868,"x_min":87,"x_max":781,"o":"m 608 -347 l 521 -347 l 521 -260 l 521 -174 l 608 -174 l 608 -87 l 521 -87 l 521 0 l 608 0 l 608 87 l 608 174 l 608 260 l 608 347 l 521 347 l 434 347 l 347 347 l 260 347 l 260 260 l 260 174 l 260 87 l 260 0 l 174 0 l 87 0 l 87 87 l 87 174 l 87 260 l 87 347 l 87 434 l 87 521 l 87 608 l 87 694 l 87 781 l 174 781 l 174 868 l 260 868 l 260 955 l 347 955 l 434 955 l 521 955 l 608 955 l 608 868 l 694 868 l 694 781 l 781 781 l 781 694 l 781 608 l 781 521 l 781 434 l 781 347 l 781 260 l 781 174 l 781 87 l 781 0 l 781 -87 l 781 -174 l 781 -260 l 694 -260 l 694 -347 l 608 -347 m 521 521 l 608 521 l 608 608 l 608 694 l 521 694 l 521 781 l 434 781 l 347 781 l 347 694 l 260 694 l 260 608 l 260 521 l 347 521 l 434 521 l 521 521 z "},"ą":{"ha":694,"x_min":87,"x_max":608,"o":"m 434 -347 l 347 -347 l 347 -260 l 347 -174 l 434 -174 l 434 -87 l 347 -87 l 347 0 l 260 0 l 174 0 l 174 87 l 87 87 l 87 174 l 87 260 l 87 347 l 87 434 l 87 521 l 87 608 l 174 608 l 174 694 l 260 694 l 347 694 l 434 694 l 521 694 l 521 608 l 608 608 l 608 521 l 608 434 l 608 347 l 608 260 l 608 174 l 608 87 l 608 0 l 608 -87 l 608 -174 l 608 -260 l 521 -260 l 521 -347 l 434 -347 m 347 174 l 434 174 l 434 260 l 434 347 l 434 434 l 434 521 l 347 521 l 260 521 l 260 434 l 260 347 l 260 260 l 260 174 l 347 174 z "},"Ć":{"ha":868,"x_min":174,"x_max":781,"o":"m 608 0 l 521 0 l 434 0 l 347 0 l 260 0 l 260 87 l 174 87 l 174 174 l 174 260 l 174 347 l 174 434 l 174 521 l 174 608 l 174 694 l 174 781 l 260 781 l 260 868 l 347 868 l 347 955 l 434 955 l 434 868 l 521 868 l 608 868 l 694 868 l 694 781 l 781 781 l 781 694 l 781 608 l 694 608 l 608 608 l 608 694 l 521 694 l 434 694 l 347 694 l 347 608 l 347 521 l 347 434 l 347 347 l 347 260 l 347 174 l 434 174 l 521 174 l 608 174 l 608 260 l 694 260 l 781 260 l 781 174 l 781 87 l 694 87 l 694 0 l 608 0 m 434 955 l 434 1042 l 521 1042 l 521 955 l 434 955 z "},"ć":{"ha":694,"x_min":87,"x_max":608,"o":"m 260 781 l 260 868 l 347 868 l 347 781 l 260 781 m 434 0 l 347 0 l 260 0 l 174 0 l 174 87 l 87 87 l 87 174 l 87 260 l 87 347 l 87 434 l 87 521 l 87 608 l 174 608 l 174 694 l 260 694 l 347 694 l 434 694 l 521 694 l 521 608 l 608 608 l 608 521 l 608 434 l 521 434 l 434 434 l 434 521 l 347 521 l 260 521 l 260 434 l 260 347 l 260 260 l 260 174 l 347 174 l 434 174 l 434 260 l 521 260 l 608 260 l 608 174 l 608 87 l 521 87 l 521 0 l 434 0 m 347 868 l 347 955 l 434 955 l 434 868 l 347 868 z "},"Ĉ":{"ha":868,"x_min":174,"x_max":781,"o":"m 608 0 l 521 0 l 434 0 l 347 0 l 260 0 l 260 87 l 174 87 l 174 174 l 174 260 l 174 347 l 174 434 l 174 521 l 174 608 l 174 694 l 174 781 l 260 781 l 260 868 l 260 955 l 347 955 l 347 868 l 434 868 l 521 868 l 521 955 l 608 955 l 608 868 l 694 868 l 694 781 l 781 781 l 781 694 l 781 608 l 694 608 l 608 608 l 608 694 l 521 694 l 434 694 l 347 694 l 347 608 l 347 521 l 347 434 l 347 347 l 347 260 l 347 174 l 434 174 l 521 174 l 608 174 l 608 260 l 694 260 l 781 260 l 781 174 l 781 87 l 694 87 l 694 0 l 608 0 m 521 955 l 434 955 l 347 955 l 347 1042 l 434 1042 l 521 1042 l 521 955 z "},"ĉ":{"ha":694,"x_min":87,"x_max":608,"o":"m 434 781 l 434 868 l 521 868 l 521 781 l 434 781 m 174 781 l 174 868 l 260 868 l 260 781 l 174 781 m 434 0 l 347 0 l 260 0 l 174 0 l 174 87 l 87 87 l 87 174 l 87 260 l 87 347 l 87 434 l 87 521 l 87 608 l 174 608 l 174 694 l 260 694 l 347 694 l 434 694 l 521 694 l 521 608 l 608 608 l 608 521 l 608 434 l 521 434 l 434 434 l 434 521 l 347 521 l 260 521 l 260 434 l 260 347 l 260 260 l 260 174 l 347 174 l 434 174 l 434 260 l 521 260 l 608 260 l 608 174 l 608 87 l 521 87 l 521 0 l 434 0 m 434 868 l 347 868 l 260 868 l 260 955 l 347 955 l 434 955 l 434 868 z "},"Ċ":{"ha":868,"x_min":174,"x_max":781,"o":"m 608 0 l 521 0 l 434 0 l 347 0 l 260 0 l 260 87 l 174 87 l 174 174 l 174 260 l 174 347 l 174 434 l 174 521 l 174 608 l 174 694 l 174 781 l 260 781 l 260 868 l 347 868 l 434 868 l 434 955 l 521 955 l 521 868 l 608 868 l 694 868 l 694 781 l 781 781 l 781 694 l 781 608 l 694 608 l 608 608 l 608 694 l 521 694 l 434 694 l 347 694 l 347 608 l 347 521 l 347 434 l 347 347 l 347 260 l 347 174 l 434 174 l 521 174 l 608 174 l 608 260 l 694 260 l 781 260 l 781 174 l 781 87 l 694 87 l 694 0 l 608 0 m 434 955 l 347 955 l 347 1042 l 434 1042 l 434 955 z "},"ċ":{"ha":694,"x_min":87,"x_max":608,"o":"m 347 781 l 347 868 l 434 868 l 434 781 l 347 781 m 434 0 l 347 0 l 260 0 l 174 0 l 174 87 l 87 87 l 87 174 l 87 260 l 87 347 l 87 434 l 87 521 l 87 608 l 174 608 l 174 694 l 260 694 l 347 694 l 434 694 l 521 694 l 521 608 l 608 608 l 608 521 l 608 434 l 521 434 l 434 434 l 434 521 l 347 521 l 260 521 l 260 434 l 260 347 l 260 260 l 260 174 l 347 174 l 434 174 l 434 260 l 521 260 l 608 260 l 608 174 l 608 87 l 521 87 l 521 0 l 434 0 m 347 868 l 260 868 l 260 955 l 347 955 l 347 868 z "},"Č":{"ha":868,"x_min":174,"x_max":781,"o":"m 608 0 l 521 0 l 434 0 l 347 0 l 260 0 l 260 87 l 174 87 l 174 174 l 174 260 l 174 347 l 174 434 l 174 521 l 174 608 l 174 694 l 174 781 l 260 781 l 260 868 l 347 868 l 347 955 l 434 955 l 521 955 l 521 868 l 608 868 l 694 868 l 694 781 l 781 781 l 781 694 l 781 608 l 694 608 l 608 608 l 608 694 l 521 694 l 434 694 l 347 694 l 347 608 l 347 521 l 347 434 l 347 347 l 347 260 l 347 174 l 434 174 l 521 174 l 608 174 l 608 260 l 694 260 l 781 260 l 781 174 l 781 87 l 694 87 l 694 0 l 608 0 m 521 955 l 521 1042 l 608 1042 l 608 955 l 521 955 m 347 955 l 260 955 l 260 1042 l 347 1042 l 347 955 z "},"č":{"ha":694,"x_min":87,"x_max":608,"o":"m 434 0 l 347 0 l 260 0 l 174 0 l 174 87 l 87 87 l 87 174 l 87 260 l 87 347 l 87 434 l 87 521 l 87 608 l 174 608 l 174 694 l 260 694 l 347 694 l 434 694 l 521 694 l 521 608 l 608 608 l 608 521 l 608 434 l 521 434 l 434 434 l 434 521 l 347 521 l 260 521 l 260 434 l 260 347 l 260 260 l 260 174 l 347 174 l 434 174 l 434 260 l 521 260 l 608 260 l 608 174 l 608 87 l 521 87 l 521 0 l 434 0 m 347 868 l 434 868 l 434 781 l 347 781 l 260 781 l 260 868 l 347 868 m 434 868 l 434 955 l 521 955 l 521 868 l 434 868 m 260 868 l 174 868 l 174 955 l 260 955 l 260 868 z "},"Ď":{"ha":955,"x_min":174,"x_max":868,"o":"m 694 0 l 608 0 l 521 0 l 434 0 l 347 0 l 260 0 l 174 0 l 174 87 l 174 174 l 174 260 l 174 347 l 174 434 l 174 521 l 174 608 l 174 694 l 174 781 l 174 868 l 260 868 l 347 868 l 347 955 l 434 955 l 521 955 l 521 868 l 608 868 l 694 868 l 781 868 l 781 781 l 868 781 l 868 694 l 868 608 l 868 521 l 868 434 l 868 347 l 868 260 l 868 174 l 868 87 l 781 87 l 781 0 l 694 0 m 608 174 l 694 174 l 694 260 l 694 347 l 694 434 l 694 521 l 694 608 l 694 694 l 608 694 l 521 694 l 434 694 l 347 694 l 347 608 l 347 521 l 347 434 l 347 347 l 347 260 l 347 174 l 434 174 l 521 174 l 608 174 m 521 955 l 521 1042 l 608 1042 l 608 955 l 521 955 m 347 955 l 260 955 l 260 1042 l 347 1042 l 347 955 z "},"ď":{"ha":1042,"x_min":87,"x_max":955,"o":"m 781 694 l 781 781 l 781 868 l 781 955 l 868 955 l 955 955 l 955 868 l 955 781 l 868 781 l 868 694 l 781 694 m 608 0 l 521 0 l 521 87 l 434 87 l 434 0 l 347 0 l 260 0 l 174 0 l 174 87 l 87 87 l 87 174 l 87 260 l 87 347 l 87 434 l 87 521 l 87 608 l 174 608 l 174 694 l 260 694 l 347 694 l 434 694 l 434 608 l 521 608 l 521 694 l 521 781 l 521 868 l 521 955 l 608 955 l 694 955 l 694 868 l 694 781 l 694 694 l 694 608 l 694 521 l 694 434 l 694 347 l 694 260 l 694 174 l 694 87 l 694 0 l 608 0 m 347 174 l 434 174 l 434 260 l 521 260 l 521 347 l 521 434 l 434 434 l 434 521 l 347 521 l 260 521 l 260 434 l 260 347 l 260 260 l 260 174 l 347 174 z "},"Đ":{"ha":955,"x_min":0,"x_max":868,"o":"m 694 0 l 608 0 l 521 0 l 434 0 l 347 0 l 260 0 l 174 0 l 174 87 l 174 174 l 174 260 l 174 347 l 174 434 l 87 434 l 0 434 l 0 521 l 0 608 l 87 608 l 174 608 l 174 694 l 174 781 l 174 868 l 174 955 l 260 955 l 347 955 l 434 955 l 521 955 l 608 955 l 694 955 l 781 955 l 781 868 l 868 868 l 868 781 l 868 694 l 868 608 l 868 521 l 868 434 l 868 347 l 868 260 l 868 174 l 868 87 l 781 87 l 781 0 l 694 0 m 608 174 l 694 174 l 694 260 l 694 347 l 694 434 l 694 521 l 694 608 l 694 694 l 694 781 l 608 781 l 521 781 l 434 781 l 347 781 l 347 694 l 347 608 l 434 608 l 521 608 l 521 521 l 521 434 l 434 434 l 347 434 l 347 347 l 347 260 l 347 174 l 434 174 l 521 174 l 608 174 z "},"đ":{"ha":868,"x_min":87,"x_max":781,"o":"m 608 0 l 521 0 l 521 87 l 434 87 l 434 0 l 347 0 l 260 0 l 174 0 l 174 87 l 87 87 l 87 174 l 87 260 l 87 347 l 87 434 l 87 521 l 87 608 l 174 608 l 174 694 l 260 694 l 347 694 l 434 694 l 434 781 l 434 868 l 521 868 l 521 955 l 608 955 l 694 955 l 694 868 l 781 868 l 781 781 l 781 694 l 694 694 l 694 608 l 694 521 l 694 434 l 694 347 l 694 260 l 694 174 l 694 87 l 694 0 l 608 0 m 347 174 l 434 174 l 434 260 l 521 260 l 521 347 l 521 434 l 434 434 l 434 521 l 347 521 l 260 521 l 260 434 l 260 347 l 260 260 l 260 174 l 347 174 m 521 608 l 521 694 l 434 694 l 434 608 l 521 608 z "},"Ē":{"ha":781,"x_min":174,"x_max":694,"o":"m 608 0 l 521 0 l 434 0 l 347 0 l 260 0 l 174 0 l 174 87 l 174 174 l 174 260 l 174 347 l 174 434 l 174 521 l 174 608 l 174 694 l 174 781 l 174 868 l 260 868 l 347 868 l 434 868 l 521 868 l 608 868 l 694 868 l 694 781 l 694 694 l 608 694 l 521 694 l 434 694 l 347 694 l 347 608 l 347 521 l 434 521 l 521 521 l 608 521 l 694 521 l 694 434 l 694 347 l 608 347 l 521 347 l 434 347 l 347 347 l 347 260 l 347 174 l 434 174 l 521 174 l 608 174 l 694 174 l 694 87 l 694 0 l 608 0 m 521 1042 l 608 1042 l 608 955 l 521 955 l 434 955 l 347 955 l 260 955 l 260 1042 l 347 1042 l 434 1042 l 521 1042 z "},"ē":{"ha":694,"x_min":87,"x_max":608,"o":"m 434 0 l 347 0 l 260 0 l 174 0 l 174 87 l 87 87 l 87 174 l 87 260 l 87 347 l 87 434 l 87 521 l 87 608 l 174 608 l 174 694 l 260 694 l 347 694 l 434 694 l 521 694 l 521 608 l 608 608 l 608 521 l 608 434 l 608 347 l 521 347 l 434 347 l 347 347 l 260 347 l 260 260 l 260 174 l 347 174 l 434 174 l 434 260 l 521 260 l 608 260 l 608 174 l 608 87 l 521 87 l 521 0 l 434 0 m 347 434 l 434 434 l 434 521 l 347 521 l 260 521 l 260 434 l 347 434 m 434 868 l 521 868 l 521 781 l 434 781 l 347 781 l 260 781 l 174 781 l 174 868 l 260 868 l 347 868 l 434 868 z "},"Ĕ":{"ha":781,"x_min":174,"x_max":694,"o":"m 608 0 l 521 0 l 434 0 l 347 0 l 260 0 l 174 0 l 174 87 l 174 174 l 174 260 l 174 347 l 174 434 l 174 521 l 174 608 l 174 694 l 174 781 l 174 868 l 260 868 l 347 868 l 347 955 l 434 955 l 521 955 l 521 868 l 608 868 l 694 868 l 694 781 l 694 694 l 608 694 l 521 694 l 434 694 l 347 694 l 347 608 l 347 521 l 434 521 l 521 521 l 608 521 l 694 521 l 694 434 l 694 347 l 608 347 l 521 347 l 434 347 l 347 347 l 347 260 l 347 174 l 434 174 l 521 174 l 608 174 l 694 174 l 694 87 l 694 0 l 608 0 m 521 955 l 521 1042 l 608 1042 l 608 955 l 521 955 m 347 955 l 260 955 l 260 1042 l 347 1042 l 347 955 z "},"ĕ":{"ha":694,"x_min":87,"x_max":608,"o":"m 434 0 l 347 0 l 260 0 l 174 0 l 174 87 l 87 87 l 87 174 l 87 260 l 87 347 l 87 434 l 87 521 l 87 608 l 174 608 l 174 694 l 260 694 l 347 694 l 434 694 l 521 694 l 521 608 l 608 608 l 608 521 l 608 434 l 608 347 l 521 347 l 434 347 l 347 347 l 260 347 l 260 260 l 260 174 l 347 174 l 434 174 l 434 260 l 521 260 l 608 260 l 608 174 l 608 87 l 521 87 l 521 0 l 434 0 m 347 434 l 434 434 l 434 521 l 347 521 l 260 521 l 260 434 l 347 434 m 347 868 l 434 868 l 434 781 l 347 781 l 260 781 l 260 868 l 347 868 m 434 868 l 434 955 l 521 955 l 521 868 l 434 868 m 260 868 l 174 868 l 174 955 l 260 955 l 260 868 z "},"Ė":{"ha":781,"x_min":174,"x_max":694,"o":"m 608 0 l 521 0 l 434 0 l 347 0 l 260 0 l 174 0 l 174 87 l 174 174 l 174 260 l 174 347 l 174 434 l 174 521 l 174 608 l 174 694 l 174 781 l 174 868 l 260 868 l 347 868 l 347 955 l 434 955 l 434 868 l 521 868 l 608 868 l 694 868 l 694 781 l 694 694 l 608 694 l 521 694 l 434 694 l 347 694 l 347 608 l 347 521 l 434 521 l 521 521 l 608 521 l 694 521 l 694 434 l 694 347 l 608 347 l 521 347 l 434 347 l 347 347 l 347 260 l 347 174 l 434 174 l 521 174 l 608 174 l 694 174 l 694 87 l 694 0 l 608 0 m 434 955 l 434 1042 l 521 1042 l 521 955 l 434 955 z "},"ė":{"ha":694,"x_min":87,"x_max":608,"o":"m 260 781 l 260 868 l 347 868 l 347 781 l 260 781 m 434 0 l 347 0 l 260 0 l 174 0 l 174 87 l 87 87 l 87 174 l 87 260 l 87 347 l 87 434 l 87 521 l 87 608 l 174 608 l 174 694 l 260 694 l 347 694 l 434 694 l 521 694 l 521 608 l 608 608 l 608 521 l 608 434 l 608 347 l 521 347 l 434 347 l 347 347 l 260 347 l 260 260 l 260 174 l 347 174 l 434 174 l 434 260 l 521 260 l 608 260 l 608 174 l 608 87 l 521 87 l 521 0 l 434 0 m 347 434 l 434 434 l 434 521 l 347 521 l 260 521 l 260 434 l 347 434 m 347 868 l 347 955 l 434 955 l 434 868 l 347 868 z "},"Ę":{"ha":781,"x_min":174,"x_max":694,"o":"m 521 -347 l 434 -347 l 434 -260 l 434 -174 l 521 -174 l 521 -87 l 434 -87 l 434 0 l 347 0 l 260 0 l 174 0 l 174 87 l 174 174 l 174 260 l 174 347 l 174 434 l 174 521 l 174 608 l 174 694 l 174 781 l 174 868 l 260 868 l 347 868 l 434 868 l 521 868 l 608 868 l 694 868 l 694 781 l 694 694 l 608 694 l 521 694 l 434 694 l 347 694 l 347 608 l 347 521 l 434 521 l 521 521 l 608 521 l 694 521 l 694 434 l 694 347 l 608 347 l 521 347 l 434 347 l 347 347 l 347 260 l 347 174 l 434 174 l 521 174 l 608 174 l 694 174 l 694 87 l 694 0 l 694 -87 l 694 -174 l 694 -260 l 608 -260 l 608 -347 l 521 -347 z "},"ę":{"ha":694,"x_min":87,"x_max":608,"o":"m 347 -347 l 260 -347 l 260 -260 l 260 -174 l 347 -174 l 347 -87 l 260 -87 l 260 0 l 174 0 l 174 87 l 87 87 l 87 174 l 87 260 l 87 347 l 87 434 l 87 521 l 87 608 l 174 608 l 174 694 l 260 694 l 347 694 l 434 694 l 521 694 l 521 608 l 608 608 l 608 521 l 608 434 l 608 347 l 521 347 l 434 347 l 347 347 l 260 347 l 260 260 l 260 174 l 347 174 l 434 174 l 434 260 l 521 260 l 608 260 l 608 174 l 608 87 l 521 87 l 521 0 l 521 -87 l 521 -174 l 521 -260 l 434 -260 l 434 -347 l 347 -347 m 347 434 l 434 434 l 434 521 l 347 521 l 260 521 l 260 434 l 347 434 z "},"Ě":{"ha":781,"x_min":174,"x_max":694,"o":"m 608 0 l 521 0 l 434 0 l 347 0 l 260 0 l 174 0 l 174 87 l 174 174 l 174 260 l 174 347 l 174 434 l 174 521 l 174 608 l 174 694 l 174 781 l 174 868 l 260 868 l 347 868 l 347 955 l 434 955 l 521 955 l 521 868 l 608 868 l 694 868 l 694 781 l 694 694 l 608 694 l 521 694 l 434 694 l 347 694 l 347 608 l 347 521 l 434 521 l 521 521 l 608 521 l 694 521 l 694 434 l 694 347 l 608 347 l 521 347 l 434 347 l 347 347 l 347 260 l 347 174 l 434 174 l 521 174 l 608 174 l 694 174 l 694 87 l 694 0 l 608 0 m 521 955 l 521 1042 l 608 1042 l 608 955 l 521 955 m 347 955 l 260 955 l 260 1042 l 347 1042 l 347 955 z "},"ě":{"ha":694,"x_min":87,"x_max":608,"o":"m 434 0 l 347 0 l 260 0 l 174 0 l 174 87 l 87 87 l 87 174 l 87 260 l 87 347 l 87 434 l 87 521 l 87 608 l 174 608 l 174 694 l 260 694 l 347 694 l 434 694 l 521 694 l 521 608 l 608 608 l 608 521 l 608 434 l 608 347 l 521 347 l 434 347 l 347 347 l 260 347 l 260 260 l 260 174 l 347 174 l 434 174 l 434 260 l 521 260 l 608 260 l 608 174 l 608 87 l 521 87 l 521 0 l 434 0 m 347 434 l 434 434 l 434 521 l 347 521 l 260 521 l 260 434 l 347 434 m 347 868 l 434 868 l 434 781 l 347 781 l 260 781 l 260 868 l 347 868 m 434 868 l 434 955 l 521 955 l 521 868 l 434 868 m 260 868 l 174 868 l 174 955 l 260 955 l 260 868 z "},"Ĝ":{"ha":868,"x_min":174,"x_max":781,"o":"m 608 0 l 521 0 l 434 0 l 347 0 l 260 0 l 260 87 l 174 87 l 174 174 l 174 260 l 174 347 l 174 434 l 174 521 l 174 608 l 174 694 l 174 781 l 260 781 l 260 868 l 260 955 l 347 955 l 347 868 l 434 868 l 521 868 l 521 955 l 608 955 l 608 868 l 694 868 l 694 781 l 781 781 l 781 694 l 781 608 l 694 608 l 608 608 l 608 694 l 521 694 l 434 694 l 347 694 l 347 608 l 347 521 l 347 434 l 347 347 l 347 260 l 347 174 l 434 174 l 521 174 l 608 174 l 608 260 l 608 347 l 521 347 l 521 434 l 521 521 l 608 521 l 694 521 l 781 521 l 781 434 l 781 347 l 781 260 l 781 174 l 781 87 l 694 87 l 694 0 l 608 0 m 521 955 l 434 955 l 347 955 l 347 1042 l 434 1042 l 521 1042 l 521 955 z "},"ĝ":{"ha":781,"x_min":87,"x_max":694,"o":"m 434 781 l 434 868 l 521 868 l 521 781 l 434 781 m 174 781 l 174 868 l 260 868 l 260 781 l 174 781 m 521 -260 l 434 -260 l 347 -260 l 260 -260 l 174 -260 l 87 -260 l 87 -174 l 87 -87 l 174 -87 l 260 -87 l 347 -87 l 434 -87 l 521 -87 l 521 0 l 521 87 l 434 87 l 434 0 l 347 0 l 260 0 l 174 0 l 174 87 l 87 87 l 87 174 l 87 260 l 87 347 l 87 434 l 87 521 l 87 608 l 174 608 l 174 694 l 260 694 l 347 694 l 434 694 l 434 608 l 521 608 l 521 694 l 608 694 l 694 694 l 694 608 l 694 521 l 694 434 l 694 347 l 694 260 l 694 174 l 694 87 l 694 0 l 694 -87 l 694 -174 l 608 -174 l 608 -260 l 521 -260 m 347 174 l 434 174 l 434 260 l 521 260 l 521 347 l 521 434 l 434 434 l 434 521 l 347 521 l 260 521 l 260 434 l 260 347 l 260 260 l 260 174 l 347 174 m 434 868 l 347 868 l 260 868 l 260 955 l 347 955 l 434 955 l 434 868 z "},"Ğ":{"ha":868,"x_min":174,"x_max":781,"o":"m 608 0 l 521 0 l 434 0 l 347 0 l 260 0 l 260 87 l 174 87 l 174 174 l 174 260 l 174 347 l 174 434 l 174 521 l 174 608 l 174 694 l 174 781 l 260 781 l 260 868 l 347 868 l 347 955 l 434 955 l 521 955 l 521 868 l 608 868 l 694 868 l 694 781 l 781 781 l 781 694 l 781 608 l 694 608 l 608 608 l 608 694 l 521 694 l 434 694 l 347 694 l 347 608 l 347 521 l 347 434 l 347 347 l 347 260 l 347 174 l 434 174 l 521 174 l 608 174 l 608 260 l 608 347 l 521 347 l 521 434 l 521 521 l 608 521 l 694 521 l 781 521 l 781 434 l 781 347 l 781 260 l 781 174 l 781 87 l 694 87 l 694 0 l 608 0 m 521 955 l 521 1042 l 608 1042 l 608 955 l 521 955 m 347 955 l 260 955 l 260 1042 l 347 1042 l 347 955 z "},"ğ":{"ha":781,"x_min":87,"x_max":694,"o":"m 521 -260 l 434 -260 l 347 -260 l 260 -260 l 174 -260 l 87 -260 l 87 -174 l 87 -87 l 174 -87 l 260 -87 l 347 -87 l 434 -87 l 521 -87 l 521 0 l 521 87 l 434 87 l 434 0 l 347 0 l 260 0 l 174 0 l 174 87 l 87 87 l 87 174 l 87 260 l 87 347 l 87 434 l 87 521 l 87 608 l 174 608 l 174 694 l 260 694 l 347 694 l 434 694 l 434 608 l 521 608 l 521 694 l 608 694 l 694 694 l 694 608 l 694 521 l 694 434 l 694 347 l 694 260 l 694 174 l 694 87 l 694 0 l 694 -87 l 694 -174 l 608 -174 l 608 -260 l 521 -260 m 347 174 l 434 174 l 434 260 l 521 260 l 521 347 l 521 434 l 434 434 l 434 521 l 347 521 l 260 521 l 260 434 l 260 347 l 260 260 l 260 174 l 347 174 m 347 868 l 434 868 l 434 781 l 347 781 l 260 781 l 260 868 l 347 868 m 434 868 l 434 955 l 521 955 l 521 868 l 434 868 m 260 868 l 174 868 l 174 955 l 260 955 l 260 868 z "},"Ġ":{"ha":868,"x_min":174,"x_max":781,"o":"m 608 0 l 521 0 l 434 0 l 347 0 l 260 0 l 260 87 l 174 87 l 174 174 l 174 260 l 174 347 l 174 434 l 174 521 l 174 608 l 174 694 l 174 781 l 260 781 l 260 868 l 347 868 l 347 955 l 434 955 l 434 868 l 521 868 l 608 868 l 694 868 l 694 781 l 781 781 l 781 694 l 781 608 l 694 608 l 608 608 l 608 694 l 521 694 l 434 694 l 347 694 l 347 608 l 347 521 l 347 434 l 347 347 l 347 260 l 347 174 l 434 174 l 521 174 l 608 174 l 608 260 l 608 347 l 521 347 l 521 434 l 521 521 l 608 521 l 694 521 l 781 521 l 781 434 l 781 347 l 781 260 l 781 174 l 781 87 l 694 87 l 694 0 l 608 0 m 434 955 l 434 1042 l 521 1042 l 521 955 l 434 955 z "},"ġ":{"ha":781,"x_min":87,"x_max":694,"o":"m 260 781 l 260 868 l 347 868 l 347 781 l 260 781 m 521 -260 l 434 -260 l 347 -260 l 260 -260 l 174 -260 l 87 -260 l 87 -174 l 87 -87 l 174 -87 l 260 -87 l 347 -87 l 434 -87 l 521 -87 l 521 0 l 521 87 l 434 87 l 434 0 l 347 0 l 260 0 l 174 0 l 174 87 l 87 87 l 87 174 l 87 260 l 87 347 l 87 434 l 87 521 l 87 608 l 174 608 l 174 694 l 260 694 l 347 694 l 434 694 l 434 608 l 521 608 l 521 694 l 608 694 l 694 694 l 694 608 l 694 521 l 694 434 l 694 347 l 694 260 l 694 174 l 694 87 l 694 0 l 694 -87 l 694 -174 l 608 -174 l 608 -260 l 521 -260 m 347 174 l 434 174 l 434 260 l 521 260 l 521 347 l 521 434 l 434 434 l 434 521 l 347 521 l 260 521 l 260 434 l 260 347 l 260 260 l 260 174 l 347 174 m 347 868 l 347 955 l 434 955 l 434 868 l 347 868 z "},"Ģ":{"ha":868,"x_min":174,"x_max":781,"o":"m 521 -347 l 434 -347 l 434 -260 l 434 -174 l 521 -174 l 521 -87 l 434 -87 l 434 0 l 347 0 l 260 0 l 260 87 l 174 87 l 174 174 l 174 260 l 174 347 l 174 434 l 174 521 l 174 608 l 174 694 l 174 781 l 260 781 l 260 868 l 347 868 l 434 868 l 521 868 l 608 868 l 694 868 l 694 781 l 781 781 l 781 694 l 781 608 l 694 608 l 608 608 l 608 694 l 521 694 l 434 694 l 347 694 l 347 608 l 347 521 l 347 434 l 347 347 l 347 260 l 347 174 l 434 174 l 521 174 l 608 174 l 608 260 l 608 347 l 521 347 l 521 434 l 521 521 l 608 521 l 694 521 l 781 521 l 781 434 l 781 347 l 781 260 l 781 174 l 781 87 l 694 87 l 694 0 l 694 -87 l 694 -174 l 694 -260 l 608 -260 l 608 -347 l 521 -347 z "},"ģ":{"ha":781,"x_min":87,"x_max":694,"o":"m 260 781 l 260 868 l 260 955 l 347 955 l 347 1042 l 434 1042 l 434 955 l 434 868 l 347 868 l 347 781 l 260 781 m 521 -260 l 434 -260 l 347 -260 l 260 -260 l 174 -260 l 87 -260 l 87 -174 l 87 -87 l 174 -87 l 260 -87 l 347 -87 l 434 -87 l 521 -87 l 521 0 l 521 87 l 434 87 l 434 0 l 347 0 l 260 0 l 174 0 l 174 87 l 87 87 l 87 174 l 87 260 l 87 347 l 87 434 l 87 521 l 87 608 l 174 608 l 174 694 l 260 694 l 347 694 l 434 694 l 434 608 l 521 608 l 521 694 l 608 694 l 694 694 l 694 608 l 694 521 l 694 434 l 694 347 l 694 260 l 694 174 l 694 87 l 694 0 l 694 -87 l 694 -174 l 608 -174 l 608 -260 l 521 -260 m 347 174 l 434 174 l 434 260 l 521 260 l 521 347 l 521 434 l 434 434 l 434 521 l 347 521 l 260 521 l 260 434 l 260 347 l 260 260 l 260 174 l 347 174 z "},"Ĥ":{"ha":868,"x_min":87,"x_max":781,"o":"m 694 0 l 608 0 l 608 87 l 608 174 l 608 260 l 608 347 l 521 347 l 434 347 l 347 347 l 260 347 l 260 260 l 260 174 l 260 87 l 260 0 l 174 0 l 87 0 l 87 87 l 87 174 l 87 260 l 87 347 l 87 434 l 87 521 l 87 608 l 87 694 l 87 781 l 87 868 l 174 868 l 260 868 l 260 781 l 260 694 l 260 608 l 260 521 l 347 521 l 434 521 l 521 521 l 608 521 l 608 608 l 608 694 l 608 781 l 608 868 l 694 868 l 781 868 l 781 781 l 781 694 l 781 608 l 781 521 l 781 434 l 781 347 l 781 260 l 781 174 l 781 87 l 781 0 l 694 0 m 608 868 l 521 868 l 521 955 l 608 955 l 608 868 m 260 868 l 260 955 l 347 955 l 347 868 l 260 868 m 521 955 l 434 955 l 347 955 l 347 1042 l 434 1042 l 521 1042 l 521 955 z "},"ĥ":{"ha":781,"x_min":87,"x_max":694,"o":"m 521 868 l 521 955 l 608 955 l 608 868 l 521 868 m 608 0 l 521 0 l 521 87 l 521 174 l 521 260 l 521 347 l 521 434 l 521 521 l 434 521 l 347 521 l 347 434 l 260 434 l 260 347 l 260 260 l 260 174 l 260 87 l 260 0 l 174 0 l 87 0 l 87 87 l 87 174 l 87 260 l 87 347 l 87 434 l 87 521 l 87 608 l 87 694 l 87 781 l 87 868 l 87 955 l 174 955 l 260 955 l 347 955 l 347 868 l 260 868 l 260 781 l 260 694 l 260 608 l 347 608 l 347 694 l 434 694 l 521 694 l 608 694 l 608 608 l 694 608 l 694 521 l 694 434 l 694 347 l 694 260 l 694 174 l 694 87 l 694 0 l 608 0 m 521 955 l 434 955 l 347 955 l 347 1042 l 434 1042 l 521 1042 l 521 955 z "},"Ħ":{"ha":1042,"x_min":-87,"x_max":955,"o":"m 694 0 l 608 0 l 608 87 l 608 174 l 608 260 l 608 347 l 608 434 l 521 434 l 434 434 l 347 434 l 260 434 l 260 347 l 260 260 l 260 174 l 260 87 l 260 0 l 174 0 l 87 0 l 87 87 l 87 174 l 87 260 l 87 347 l 87 434 l 87 521 l 87 608 l 87 694 l 0 694 l -87 694 l -87 781 l -87 868 l 0 868 l 87 868 l 87 955 l 174 955 l 260 955 l 260 868 l 347 868 l 434 868 l 521 868 l 608 868 l 608 955 l 694 955 l 781 955 l 781 868 l 868 868 l 955 868 l 955 781 l 955 694 l 868 694 l 781 694 l 781 608 l 781 521 l 781 434 l 781 347 l 781 260 l 781 174 l 781 87 l 781 0 l 694 0 m 521 608 l 608 608 l 608 694 l 521 694 l 434 694 l 347 694 l 260 694 l 260 608 l 347 608 l 434 608 l 521 608 z "},"ħ":{"ha":781,"x_min":0,"x_max":694,"o":"m 608 0 l 521 0 l 521 87 l 521 174 l 521 260 l 521 347 l 521 434 l 521 521 l 434 521 l 347 521 l 347 434 l 260 434 l 260 347 l 260 260 l 260 174 l 260 87 l 260 0 l 174 0 l 87 0 l 87 87 l 87 174 l 87 260 l 87 347 l 87 434 l 87 521 l 87 608 l 87 694 l 0 694 l 0 781 l 0 868 l 87 868 l 87 955 l 174 955 l 260 955 l 260 868 l 347 868 l 347 781 l 347 694 l 260 694 l 260 608 l 347 608 l 347 694 l 434 694 l 521 694 l 608 694 l 608 608 l 694 608 l 694 521 l 694 434 l 694 347 l 694 260 l 694 174 l 694 87 l 694 0 l 608 0 z "},"Ĩ":{"ha":521,"x_min":87,"x_max":434,"o":"m 347 0 l 260 0 l 174 0 l 87 0 l 87 87 l 87 174 l 174 174 l 174 260 l 174 347 l 174 434 l 174 521 l 174 608 l 174 694 l 87 694 l 87 781 l 87 868 l 87 955 l 174 955 l 174 868 l 260 868 l 260 955 l 347 955 l 347 868 l 434 868 l 434 781 l 434 694 l 347 694 l 347 608 l 347 521 l 347 434 l 347 347 l 347 260 l 347 174 l 434 174 l 434 87 l 434 0 l 347 0 m 347 955 l 347 1042 l 434 1042 l 434 955 l 347 955 m 260 955 l 174 955 l 174 1042 l 260 1042 l 260 955 z "},"ĩ":{"ha":608,"x_min":-87,"x_max":521,"o":"m 174 0 l 87 0 l 87 87 l 87 174 l 87 260 l 87 347 l 87 434 l 87 521 l 87 608 l 87 694 l 174 694 l 260 694 l 260 608 l 260 521 l 260 434 l 260 347 l 260 260 l 260 174 l 260 87 l 260 0 l 174 0 m 347 781 l 260 781 l 174 781 l 174 868 l 87 868 l 87 781 l 0 781 l -87 781 l -87 868 l -87 955 l 0 955 l 0 1042 l 87 1042 l 174 1042 l 260 1042 l 260 955 l 347 955 l 347 1042 l 434 1042 l 521 1042 l 521 955 l 521 868 l 434 868 l 434 781 l 347 781 z "},"Ī":{"ha":521,"x_min":87,"x_max":434,"o":"m 347 0 l 260 0 l 174 0 l 87 0 l 87 87 l 87 174 l 174 174 l 174 260 l 174 347 l 174 434 l 174 521 l 174 608 l 174 694 l 87 694 l 87 781 l 87 868 l 174 868 l 260 868 l 347 868 l 434 868 l 434 781 l 434 694 l 347 694 l 347 608 l 347 521 l 347 434 l 347 347 l 347 260 l 347 174 l 434 174 l 434 87 l 434 0 l 347 0 m 347 1042 l 434 1042 l 434 955 l 347 955 l 260 955 l 174 955 l 87 955 l 87 1042 l 174 1042 l 260 1042 l 347 1042 z "},"ī":{"ha":521,"x_min":-87,"x_max":434,"o":"m 174 0 l 87 0 l 87 87 l 87 174 l 87 260 l 87 347 l 87 434 l 87 521 l 87 608 l 87 694 l 174 694 l 260 694 l 260 608 l 260 521 l 260 434 l 260 347 l 260 260 l 260 174 l 260 87 l 260 0 l 174 0 m 347 781 l 260 781 l 174 781 l 87 781 l 0 781 l -87 781 l -87 868 l -87 955 l 0 955 l 87 955 l 174 955 l 260 955 l 347 955 l 434 955 l 434 868 l 434 781 l 347 781 z "},"Ĭ":{"ha":521,"x_min":87,"x_max":434,"o":"m 347 0 l 260 0 l 174 0 l 87 0 l 87 87 l 87 174 l 174 174 l 174 260 l 174 347 l 174 434 l 174 521 l 174 608 l 174 694 l 87 694 l 87 781 l 87 868 l 174 868 l 174 955 l 260 955 l 347 955 l 347 868 l 434 868 l 434 781 l 434 694 l 347 694 l 347 608 l 347 521 l 347 434 l 347 347 l 347 260 l 347 174 l 434 174 l 434 87 l 434 0 l 347 0 m 347 955 l 347 1042 l 434 1042 l 434 955 l 347 955 m 174 955 l 87 955 l 87 1042 l 174 1042 l 174 955 z "},"ĭ":{"ha":434,"x_min":0,"x_max":347,"o":"m 174 0 l 87 0 l 87 87 l 87 174 l 87 260 l 87 347 l 87 434 l 87 521 l 87 608 l 87 694 l 174 694 l 260 694 l 260 608 l 260 521 l 260 434 l 260 347 l 260 260 l 260 174 l 260 87 l 260 0 l 174 0 m 174 868 l 260 868 l 260 781 l 174 781 l 87 781 l 87 868 l 174 868 m 260 868 l 260 955 l 347 955 l 347 868 l 260 868 m 87 868 l 0 868 l 0 955 l 87 955 l 87 868 z "},"Į":{"ha":521,"x_min":87,"x_max":434,"o":"m 260 -347 l 174 -347 l 174 -260 l 174 -174 l 260 -174 l 260 -87 l 174 -87 l 174 0 l 87 0 l 87 87 l 87 174 l 174 174 l 174 260 l 174 347 l 174 434 l 174 521 l 174 608 l 174 694 l 174 781 l 87 781 l 87 868 l 87 955 l 174 955 l 260 955 l 347 955 l 434 955 l 434 868 l 434 781 l 347 781 l 347 694 l 347 608 l 347 521 l 347 434 l 347 347 l 347 260 l 347 174 l 434 174 l 434 87 l 434 0 l 434 -87 l 434 -174 l 434 -260 l 347 -260 l 347 -347 l 260 -347 z "},"į":{"ha":347,"x_min":0,"x_max":260,"o":"m 87 -347 l 0 -347 l 0 -260 l 0 -174 l 87 -174 l 87 -87 l 0 -87 l 0 0 l 87 0 l 87 87 l 87 174 l 87 260 l 87 347 l 87 434 l 87 521 l 87 608 l 87 694 l 174 694 l 260 694 l 260 608 l 260 521 l 260 434 l 260 347 l 260 260 l 260 174 l 260 87 l 260 0 l 260 -87 l 260 -174 l 260 -260 l 174 -260 l 174 -347 l 87 -347 m 174 781 l 87 781 l 87 868 l 87 955 l 174 955 l 260 955 l 260 868 l 260 781 l 174 781 z "},"İ":{"ha":521,"x_min":87,"x_max":434,"o":"m 347 0 l 260 0 l 174 0 l 87 0 l 87 87 l 87 174 l 174 174 l 174 260 l 174 347 l 174 434 l 174 521 l 174 608 l 174 694 l 87 694 l 87 781 l 87 868 l 174 868 l 174 955 l 260 955 l 260 868 l 347 868 l 434 868 l 434 781 l 434 694 l 347 694 l 347 608 l 347 521 l 347 434 l 347 347 l 347 260 l 347 174 l 434 174 l 434 87 l 434 0 l 347 0 m 260 955 l 260 1042 l 347 1042 l 347 955 l 260 955 z "},"ı":{"ha":347,"x_min":87,"x_max":260,"o":"m 174 0 l 87 0 l 87 87 l 87 174 l 87 260 l 87 347 l 87 434 l 87 521 l 87 608 l 87 694 l 174 694 l 260 694 l 260 608 l 260 521 l 260 434 l 260 347 l 260 260 l 260 174 l 260 87 l 260 0 l 174 0 z "},"Ĳ":{"ha":1128,"x_min":87,"x_max":1042,"o":"m 781 0 l 694 0 l 608 0 l 521 0 l 521 87 l 434 87 l 434 0 l 347 0 l 260 0 l 174 0 l 87 0 l 87 87 l 87 174 l 174 174 l 174 260 l 174 347 l 174 434 l 174 521 l 174 608 l 174 694 l 174 781 l 87 781 l 87 868 l 87 955 l 174 955 l 260 955 l 347 955 l 434 955 l 434 868 l 434 781 l 347 781 l 347 694 l 347 608 l 347 521 l 347 434 l 347 347 l 347 260 l 347 174 l 434 174 l 434 260 l 521 260 l 608 260 l 608 174 l 694 174 l 781 174 l 781 260 l 781 347 l 781 434 l 781 521 l 781 608 l 781 694 l 781 781 l 694 781 l 694 868 l 694 955 l 781 955 l 868 955 l 955 955 l 1042 955 l 1042 868 l 1042 781 l 955 781 l 955 694 l 955 608 l 955 521 l 955 434 l 955 347 l 955 260 l 955 174 l 955 87 l 868 87 l 868 0 l 781 0 z "},"ĳ":{"ha":694,"x_min":87,"x_max":608,"o":"m 434 -260 l 347 -260 l 260 -260 l 260 -174 l 260 -87 l 347 -87 l 434 -87 l 434 0 l 434 87 l 434 174 l 434 260 l 434 347 l 434 434 l 434 521 l 434 608 l 434 694 l 521 694 l 608 694 l 608 608 l 608 521 l 608 434 l 608 347 l 608 260 l 608 174 l 608 87 l 608 0 l 608 -87 l 608 -174 l 521 -174 l 521 -260 l 434 -260 m 174 0 l 87 0 l 87 87 l 87 174 l 87 260 l 87 347 l 87 434 l 87 521 l 87 608 l 87 694 l 174 694 l 260 694 l 260 608 l 260 521 l 260 434 l 260 347 l 260 260 l 260 174 l 260 87 l 260 0 l 174 0 m 521 781 l 434 781 l 434 868 l 434 955 l 521 955 l 608 955 l 608 868 l 608 781 l 521 781 m 174 781 l 87 781 l 87 868 l 87 955 l 174 955 l 260 955 l 260 868 l 260 781 l 174 781 z "},"Ĵ":{"ha":694,"x_min":0,"x_max":608,"o":"m 347 0 l 260 0 l 174 0 l 87 0 l 87 87 l 0 87 l 0 174 l 0 260 l 87 260 l 174 260 l 174 174 l 260 174 l 347 174 l 347 260 l 347 347 l 347 434 l 347 521 l 347 608 l 347 694 l 260 694 l 260 781 l 260 868 l 260 955 l 347 955 l 347 868 l 434 868 l 521 868 l 521 955 l 608 955 l 608 868 l 608 781 l 608 694 l 521 694 l 521 608 l 521 521 l 521 434 l 521 347 l 521 260 l 521 174 l 521 87 l 434 87 l 434 0 l 347 0 m 521 955 l 434 955 l 347 955 l 347 1042 l 434 1042 l 521 1042 l 521 955 z "},"ĵ":{"ha":434,"x_min":-87,"x_max":347,"o":"m 260 781 l 260 868 l 347 868 l 347 781 l 260 781 m 0 781 l 0 868 l 87 868 l 87 781 l 0 781 m 87 -260 l 0 -260 l -87 -260 l -87 -174 l -87 -87 l 0 -87 l 87 -87 l 87 0 l 87 87 l 87 174 l 87 260 l 87 347 l 87 434 l 87 521 l 87 608 l 87 694 l 174 694 l 260 694 l 260 608 l 260 521 l 260 434 l 260 347 l 260 260 l 260 174 l 260 87 l 260 0 l 260 -87 l 260 -174 l 174 -174 l 174 -260 l 87 -260 m 260 868 l 174 868 l 87 868 l 87 955 l 174 955 l 260 955 l 260 868 z "},"Ķ":{"ha":868,"x_min":87,"x_max":781,"o":"m 347 -347 l 347 -260 l 434 -260 l 434 -347 l 347 -347 m 434 -260 l 434 -174 l 347 -174 l 347 -87 l 347 0 l 434 0 l 521 0 l 521 -87 l 521 -174 l 521 -260 l 434 -260 m 694 0 l 608 0 l 608 87 l 521 87 l 521 174 l 434 174 l 434 260 l 347 260 l 347 347 l 260 347 l 260 260 l 260 174 l 260 87 l 260 0 l 174 0 l 87 0 l 87 87 l 87 174 l 87 260 l 87 347 l 87 434 l 87 521 l 87 608 l 87 694 l 87 781 l 87 868 l 87 955 l 174 955 l 260 955 l 260 868 l 260 781 l 260 694 l 260 608 l 347 608 l 347 694 l 434 694 l 434 781 l 521 781 l 521 868 l 608 868 l 608 955 l 694 955 l 781 955 l 781 868 l 781 781 l 694 781 l 694 694 l 608 694 l 608 608 l 521 608 l 521 521 l 434 521 l 434 434 l 521 434 l 521 347 l 608 347 l 608 260 l 694 260 l 694 174 l 781 174 l 781 87 l 781 0 l 694 0 z "},"ķ":{"ha":694,"x_min":0,"x_max":608,"o":"m 260 -347 l 260 -260 l 347 -260 l 347 -347 l 260 -347 m 347 -260 l 347 -174 l 260 -174 l 260 -87 l 260 0 l 347 0 l 434 0 l 434 -87 l 434 -174 l 434 -260 l 347 -260 m 434 0 l 434 87 l 347 87 l 347 174 l 260 174 l 260 260 l 174 260 l 174 174 l 174 87 l 174 0 l 87 0 l 0 0 l 0 87 l 0 174 l 0 260 l 0 347 l 0 434 l 0 521 l 0 608 l 0 694 l 0 781 l 0 868 l 0 955 l 87 955 l 174 955 l 174 868 l 174 781 l 174 694 l 174 608 l 174 521 l 174 434 l 260 434 l 260 521 l 347 521 l 347 608 l 434 608 l 434 694 l 521 694 l 608 694 l 608 608 l 608 521 l 521 521 l 521 434 l 434 434 l 434 347 l 434 260 l 521 260 l 521 174 l 608 174 l 608 87 l 608 0 l 521 0 l 434 0 z "},"ĸ":{"ha":694,"x_min":0,"x_max":608,"o":"m 521 0 l 434 0 l 434 87 l 347 87 l 347 174 l 260 174 l 260 260 l 174 260 l 174 174 l 174 87 l 174 0 l 87 0 l 0 0 l 0 87 l 0 174 l 0 260 l 0 347 l 0 434 l 0 521 l 0 608 l 0 694 l 87 694 l 174 694 l 174 608 l 174 521 l 174 434 l 260 434 l 260 521 l 347 521 l 347 608 l 434 608 l 434 694 l 521 694 l 608 694 l 608 608 l 608 521 l 521 521 l 521 434 l 434 434 l 434 347 l 434 260 l 521 260 l 521 174 l 608 174 l 608 87 l 608 0 l 521 0 z "},"Ĺ":{"ha":694,"x_min":87,"x_max":608,"o":"m 521 0 l 434 0 l 347 0 l 260 0 l 174 0 l 87 0 l 87 87 l 87 174 l 87 260 l 87 347 l 87 434 l 87 521 l 87 608 l 87 694 l 87 781 l 87 868 l 174 868 l 260 868 l 260 781 l 260 694 l 260 608 l 260 521 l 260 434 l 260 347 l 260 260 l 260 174 l 347 174 l 434 174 l 521 174 l 608 174 l 608 87 l 608 0 l 521 0 m 260 868 l 260 955 l 347 955 l 347 868 l 260 868 m 347 955 l 347 1042 l 434 1042 l 434 955 l 347 955 z "},"ĺ":{"ha":347,"x_min":87,"x_max":260,"o":"m 174 0 l 87 0 l 87 87 l 87 174 l 87 260 l 87 347 l 87 434 l 87 521 l 87 608 l 87 694 l 87 781 l 87 868 l 87 955 l 174 955 l 174 868 l 260 868 l 260 781 l 260 694 l 260 608 l 260 521 l 260 434 l 260 347 l 260 260 l 260 174 l 260 87 l 260 0 l 174 0 m 174 955 l 174 1042 l 260 1042 l 260 955 l 174 955 z "},"Ļ":{"ha":694,"x_min":87,"x_max":608,"o":"m 260 -347 l 260 -260 l 347 -260 l 347 -347 l 260 -347 m 347 -260 l 347 -174 l 260 -174 l 260 -87 l 260 0 l 174 0 l 87 0 l 87 87 l 87 174 l 87 260 l 87 347 l 87 434 l 87 521 l 87 608 l 87 694 l 87 781 l 87 868 l 87 955 l 174 955 l 260 955 l 260 868 l 260 781 l 260 694 l 260 608 l 260 521 l 260 434 l 260 347 l 260 260 l 260 174 l 347 174 l 434 174 l 521 174 l 608 174 l 608 87 l 608 0 l 521 0 l 434 0 l 434 -87 l 434 -174 l 434 -260 l 347 -260 z "},"ļ":{"ha":347,"x_min":87,"x_max":260,"o":"m 87 -347 l 87 -260 l 174 -260 l 174 -347 l 87 -347 m 174 -260 l 174 -174 l 87 -174 l 87 -87 l 87 0 l 174 0 l 260 0 l 260 -87 l 260 -174 l 260 -260 l 174 -260 m 174 87 l 87 87 l 87 174 l 87 260 l 87 347 l 87 434 l 87 521 l 87 608 l 87 694 l 87 781 l 87 868 l 87 955 l 174 955 l 260 955 l 260 868 l 260 781 l 260 694 l 260 608 l 260 521 l 260 434 l 260 347 l 260 260 l 260 174 l 260 87 l 174 87 z "},"Ľ":{"ha":694,"x_min":87,"x_max":608,"o":"m 434 608 l 434 694 l 521 694 l 521 608 l 434 608 m 521 0 l 434 0 l 347 0 l 260 0 l 174 0 l 87 0 l 87 87 l 87 174 l 87 260 l 87 347 l 87 434 l 87 521 l 87 608 l 87 694 l 87 781 l 87 868 l 87 955 l 174 955 l 260 955 l 260 868 l 260 781 l 260 694 l 260 608 l 260 521 l 260 434 l 260 347 l 260 260 l 260 174 l 347 174 l 434 174 l 521 174 l 608 174 l 608 87 l 608 0 l 521 0 m 521 694 l 521 781 l 434 781 l 434 868 l 434 955 l 521 955 l 608 955 l 608 868 l 608 781 l 608 694 l 521 694 z "},"ľ":{"ha":608,"x_min":87,"x_max":521,"o":"m 347 694 l 347 781 l 434 781 l 434 694 l 347 694 m 174 0 l 87 0 l 87 87 l 87 174 l 87 260 l 87 347 l 87 434 l 87 521 l 87 608 l 87 694 l 87 781 l 87 868 l 87 955 l 174 955 l 260 955 l 260 868 l 260 781 l 260 694 l 260 608 l 260 521 l 260 434 l 260 347 l 260 260 l 260 174 l 260 87 l 260 0 l 174 0 m 434 781 l 434 868 l 347 868 l 347 955 l 347 1042 l 434 1042 l 521 1042 l 521 955 l 521 868 l 521 781 l 434 781 z "},"Ŀ":{"ha":694,"x_min":87,"x_max":608,"o":"m 434 347 l 434 434 l 347 434 l 347 521 l 347 608 l 434 608 l 521 608 l 521 521 l 521 434 l 521 347 l 434 347 m 521 0 l 434 0 l 347 0 l 260 0 l 174 0 l 87 0 l 87 87 l 87 174 l 87 260 l 87 347 l 87 434 l 87 521 l 87 608 l 87 694 l 87 781 l 87 868 l 87 955 l 174 955 l 260 955 l 260 868 l 260 781 l 260 694 l 260 608 l 260 521 l 260 434 l 260 347 l 260 260 l 260 174 l 347 174 l 434 174 l 521 174 l 608 174 l 608 87 l 608 0 l 521 0 z "},"ŀ":{"ha":608,"x_min":87,"x_max":521,"o":"m 174 0 l 87 0 l 87 87 l 87 174 l 87 260 l 87 347 l 87 434 l 87 521 l 87 608 l 87 694 l 87 781 l 87 868 l 87 955 l 174 955 l 260 955 l 260 868 l 260 781 l 260 694 l 260 608 l 260 521 l 260 434 l 260 347 l 260 260 l 260 174 l 260 87 l 260 0 l 174 0 m 434 434 l 347 434 l 347 521 l 347 608 l 434 608 l 521 608 l 521 521 l 521 434 l 434 434 z "},"Ł":{"ha":694,"x_min":-87,"x_max":608,"o":"m 521 0 l 434 0 l 347 0 l 260 0 l 174 0 l 87 0 l 87 87 l 87 174 l 87 260 l 0 260 l -87 260 l -87 347 l -87 434 l 0 434 l 0 521 l 87 521 l 87 608 l 87 694 l 87 781 l 87 868 l 87 955 l 174 955 l 260 955 l 260 868 l 260 781 l 347 781 l 347 868 l 434 868 l 521 868 l 521 781 l 521 694 l 434 694 l 434 608 l 347 608 l 347 521 l 260 521 l 260 434 l 260 347 l 260 260 l 260 174 l 347 174 l 434 174 l 521 174 l 608 174 l 608 87 l 608 0 l 521 0 z "},"ł":{"ha":521,"x_min":-87,"x_max":434,"o":"m 174 0 l 87 0 l 87 87 l 87 174 l 87 260 l 0 260 l -87 260 l -87 347 l -87 434 l 0 434 l 0 521 l 87 521 l 87 608 l 87 694 l 87 781 l 87 868 l 87 955 l 174 955 l 260 955 l 260 868 l 260 781 l 347 781 l 434 781 l 434 694 l 434 608 l 347 608 l 347 521 l 260 521 l 260 434 l 260 347 l 260 260 l 260 174 l 260 87 l 260 0 l 174 0 z "},"Ń":{"ha":955,"x_min":87,"x_max":868,"o":"m 434 868 l 434 955 l 521 955 l 521 868 l 434 868 m 781 0 l 694 0 l 694 87 l 608 87 l 608 174 l 521 174 l 521 260 l 434 260 l 434 347 l 347 347 l 347 434 l 347 521 l 260 521 l 260 434 l 260 347 l 260 260 l 260 174 l 260 87 l 260 0 l 174 0 l 87 0 l 87 87 l 87 174 l 87 260 l 87 347 l 87 434 l 87 521 l 87 608 l 87 694 l 87 781 l 87 868 l 87 955 l 174 955 l 260 955 l 260 868 l 347 868 l 347 781 l 434 781 l 434 694 l 521 694 l 521 608 l 608 608 l 608 521 l 608 434 l 694 434 l 694 521 l 694 608 l 694 694 l 694 781 l 694 868 l 694 955 l 781 955 l 868 955 l 868 868 l 868 781 l 868 694 l 868 608 l 868 521 l 868 434 l 868 347 l 868 260 l 868 174 l 868 87 l 868 0 l 781 0 m 521 955 l 521 1042 l 608 1042 l 608 955 l 521 955 z "},"ń":{"ha":694,"x_min":87,"x_max":608,"o":"m 260 781 l 260 868 l 347 868 l 347 781 l 260 781 m 521 0 l 434 0 l 434 87 l 434 174 l 434 260 l 434 347 l 434 434 l 434 521 l 347 521 l 260 521 l 260 434 l 260 347 l 260 260 l 260 174 l 260 87 l 260 0 l 174 0 l 87 0 l 87 87 l 87 174 l 87 260 l 87 347 l 87 434 l 87 521 l 87 608 l 87 694 l 174 694 l 260 694 l 347 694 l 434 694 l 521 694 l 521 608 l 608 608 l 608 521 l 608 434 l 608 347 l 608 260 l 608 174 l 608 87 l 608 0 l 521 0 m 347 868 l 347 955 l 434 955 l 434 868 l 347 868 z "},"Ņ":{"ha":955,"x_min":87,"x_max":868,"o":"m 434 -347 l 434 -260 l 521 -260 l 521 -347 l 434 -347 m 521 -260 l 521 -174 l 434 -174 l 434 -87 l 434 0 l 521 0 l 608 0 l 608 -87 l 608 -174 l 608 -260 l 521 -260 m 781 0 l 694 0 l 694 87 l 608 87 l 608 174 l 521 174 l 521 260 l 434 260 l 434 347 l 347 347 l 347 434 l 347 521 l 260 521 l 260 434 l 260 347 l 260 260 l 260 174 l 260 87 l 260 0 l 174 0 l 87 0 l 87 87 l 87 174 l 87 260 l 87 347 l 87 434 l 87 521 l 87 608 l 87 694 l 87 781 l 87 868 l 87 955 l 174 955 l 260 955 l 260 868 l 347 868 l 347 781 l 434 781 l 434 694 l 521 694 l 521 608 l 608 608 l 608 521 l 608 434 l 694 434 l 694 521 l 694 608 l 694 694 l 694 781 l 694 868 l 694 955 l 781 955 l 868 955 l 868 868 l 868 781 l 868 694 l 868 608 l 868 521 l 868 434 l 868 347 l 868 260 l 868 174 l 868 87 l 868 0 l 781 0 z "},"ņ":{"ha":694,"x_min":87,"x_max":608,"o":"m 260 -347 l 260 -260 l 347 -260 l 347 -347 l 260 -347 m 347 -260 l 347 -174 l 260 -174 l 260 -87 l 260 0 l 347 0 l 434 0 l 434 -87 l 434 -174 l 434 -260 l 347 -260 m 434 0 l 434 87 l 434 174 l 434 260 l 434 347 l 434 434 l 434 521 l 347 521 l 260 521 l 260 434 l 260 347 l 260 260 l 260 174 l 260 87 l 260 0 l 174 0 l 87 0 l 87 87 l 87 174 l 87 260 l 87 347 l 87 434 l 87 521 l 87 608 l 87 694 l 174 694 l 260 694 l 347 694 l 434 694 l 521 694 l 521 608 l 608 608 l 608 521 l 608 434 l 608 347 l 608 260 l 608 174 l 608 87 l 608 0 l 521 0 l 434 0 z "},"Ň":{"ha":955,"x_min":87,"x_max":868,"o":"m 781 0 l 694 0 l 694 87 l 608 87 l 608 174 l 521 174 l 521 260 l 434 260 l 434 347 l 347 347 l 347 434 l 347 521 l 260 521 l 260 434 l 260 347 l 260 260 l 260 174 l 260 87 l 260 0 l 174 0 l 87 0 l 87 87 l 87 174 l 87 260 l 87 347 l 87 434 l 87 521 l 87 608 l 87 694 l 87 781 l 87 868 l 87 955 l 174 955 l 260 955 l 260 868 l 347 868 l 347 781 l 434 781 l 434 694 l 521 694 l 521 608 l 608 608 l 608 521 l 608 434 l 694 434 l 694 521 l 694 608 l 694 694 l 694 781 l 694 868 l 694 955 l 781 955 l 868 955 l 868 868 l 868 781 l 868 694 l 868 608 l 868 521 l 868 434 l 868 347 l 868 260 l 868 174 l 868 87 l 868 0 l 781 0 m 521 955 l 608 955 l 608 868 l 521 868 l 434 868 l 434 955 l 521 955 m 694 955 l 608 955 l 608 1042 l 694 1042 l 694 955 m 434 955 l 347 955 l 347 1042 l 434 1042 l 434 955 z "},"ň":{"ha":694,"x_min":87,"x_max":608,"o":"m 521 0 l 434 0 l 434 87 l 434 174 l 434 260 l 434 347 l 434 434 l 434 521 l 347 521 l 260 521 l 260 434 l 260 347 l 260 260 l 260 174 l 260 87 l 260 0 l 174 0 l 87 0 l 87 87 l 87 174 l 87 260 l 87 347 l 87 434 l 87 521 l 87 608 l 87 694 l 174 694 l 260 694 l 347 694 l 434 694 l 521 694 l 521 608 l 608 608 l 608 521 l 608 434 l 608 347 l 608 260 l 608 174 l 608 87 l 608 0 l 521 0 m 347 868 l 434 868 l 434 781 l 347 781 l 260 781 l 260 868 l 347 868 m 434 868 l 434 955 l 521 955 l 521 868 l 434 868 m 260 868 l 174 868 l 174 955 l 260 955 l 260 868 z "},"ŉ":{"ha":694,"x_min":-87,"x_max":608,"o":"m -87 694 l -87 781 l 0 781 l 0 694 l -87 694 m 521 0 l 434 0 l 434 87 l 434 174 l 434 260 l 434 347 l 434 434 l 434 521 l 347 521 l 260 521 l 260 434 l 260 347 l 260 260 l 260 174 l 260 87 l 260 0 l 174 0 l 87 0 l 87 87 l 87 174 l 87 260 l 87 347 l 87 434 l 87 521 l 87 608 l 87 694 l 174 694 l 260 694 l 347 694 l 434 694 l 521 694 l 521 608 l 608 608 l 608 521 l 608 434 l 608 347 l 608 260 l 608 174 l 608 87 l 608 0 l 521 0 m 0 781 l 0 868 l -87 868 l -87 955 l -87 1042 l 0 1042 l 87 1042 l 87 955 l 87 868 l 87 781 l 0 781 z "},"Ŋ":{"ha":955,"x_min":87,"x_max":868,"o":"m 694 -174 l 608 -174 l 521 -174 l 521 -87 l 521 0 l 608 0 l 694 0 l 694 87 l 608 87 l 608 174 l 521 174 l 521 260 l 434 260 l 434 347 l 347 347 l 347 434 l 347 521 l 260 521 l 260 434 l 260 347 l 260 260 l 260 174 l 260 87 l 260 0 l 174 0 l 87 0 l 87 87 l 87 174 l 87 260 l 87 347 l 87 434 l 87 521 l 87 608 l 87 694 l 87 781 l 87 868 l 87 955 l 174 955 l 260 955 l 260 868 l 347 868 l 347 781 l 434 781 l 434 694 l 521 694 l 521 608 l 608 608 l 608 521 l 608 434 l 694 434 l 694 521 l 694 608 l 694 694 l 694 781 l 694 868 l 694 955 l 781 955 l 868 955 l 868 868 l 868 781 l 868 694 l 868 608 l 868 521 l 868 434 l 868 347 l 868 260 l 868 174 l 868 87 l 868 0 l 868 -87 l 781 -87 l 781 -174 l 694 -174 z "},"ŋ":{"ha":694,"x_min":87,"x_max":608,"o":"m 434 -260 l 347 -260 l 260 -260 l 260 -174 l 260 -87 l 347 -87 l 434 -87 l 434 0 l 434 87 l 434 174 l 434 260 l 434 347 l 434 434 l 434 521 l 347 521 l 260 521 l 260 434 l 260 347 l 260 260 l 260 174 l 260 87 l 260 0 l 174 0 l 87 0 l 87 87 l 87 174 l 87 260 l 87 347 l 87 434 l 87 521 l 87 608 l 87 694 l 174 694 l 260 694 l 347 694 l 434 694 l 521 694 l 521 608 l 608 608 l 608 521 l 608 434 l 608 347 l 608 260 l 608 174 l 608 87 l 608 0 l 608 -87 l 608 -174 l 521 -174 l 521 -260 l 434 -260 z "},"Ō":{"ha":955,"x_min":174,"x_max":868,"o":"m 694 0 l 608 0 l 521 0 l 434 0 l 347 0 l 260 0 l 260 87 l 174 87 l 174 174 l 174 260 l 174 347 l 174 434 l 174 521 l 174 608 l 174 694 l 174 781 l 260 781 l 260 868 l 347 868 l 434 868 l 521 868 l 608 868 l 694 868 l 781 868 l 781 781 l 868 781 l 868 694 l 868 608 l 868 521 l 868 434 l 868 347 l 868 260 l 868 174 l 868 87 l 781 87 l 781 0 l 694 0 m 608 174 l 694 174 l 694 260 l 694 347 l 694 434 l 694 521 l 694 608 l 694 694 l 608 694 l 521 694 l 434 694 l 347 694 l 347 608 l 347 521 l 347 434 l 347 347 l 347 260 l 347 174 l 434 174 l 521 174 l 608 174 m 608 1042 l 694 1042 l 694 955 l 608 955 l 521 955 l 434 955 l 347 955 l 347 1042 l 434 1042 l 521 1042 l 608 1042 z "},"ō":{"ha":694,"x_min":87,"x_max":608,"o":"m 434 0 l 347 0 l 260 0 l 174 0 l 174 87 l 87 87 l 87 174 l 87 260 l 87 347 l 87 434 l 87 521 l 87 608 l 174 608 l 174 694 l 260 694 l 347 694 l 434 694 l 521 694 l 521 608 l 608 608 l 608 521 l 608 434 l 608 347 l 608 260 l 608 174 l 608 87 l 521 87 l 521 0 l 434 0 m 347 174 l 434 174 l 434 260 l 434 347 l 434 434 l 434 521 l 347 521 l 260 521 l 260 434 l 260 347 l 260 260 l 260 174 l 347 174 m 434 868 l 521 868 l 521 781 l 434 781 l 347 781 l 260 781 l 174 781 l 174 868 l 260 868 l 347 868 l 434 868 z "},"Ŏ":{"ha":955,"x_min":174,"x_max":868,"o":"m 694 0 l 608 0 l 521 0 l 434 0 l 347 0 l 260 0 l 260 87 l 174 87 l 174 174 l 174 260 l 174 347 l 174 434 l 174 521 l 174 608 l 174 694 l 174 781 l 260 781 l 260 868 l 347 868 l 434 868 l 434 955 l 521 955 l 608 955 l 608 868 l 694 868 l 781 868 l 781 781 l 868 781 l 868 694 l 868 608 l 868 521 l 868 434 l 868 347 l 868 260 l 868 174 l 868 87 l 781 87 l 781 0 l 694 0 m 608 174 l 694 174 l 694 260 l 694 347 l 694 434 l 694 521 l 694 608 l 694 694 l 608 694 l 521 694 l 434 694 l 347 694 l 347 608 l 347 521 l 347 434 l 347 347 l 347 260 l 347 174 l 434 174 l 521 174 l 608 174 m 608 955 l 608 1042 l 694 1042 l 694 955 l 608 955 m 434 955 l 347 955 l 347 1042 l 434 1042 l 434 955 z "},"ŏ":{"ha":694,"x_min":87,"x_max":608,"o":"m 434 0 l 347 0 l 260 0 l 174 0 l 174 87 l 87 87 l 87 174 l 87 260 l 87 347 l 87 434 l 87 521 l 87 608 l 174 608 l 174 694 l 260 694 l 347 694 l 434 694 l 521 694 l 521 608 l 608 608 l 608 521 l 608 434 l 608 347 l 608 260 l 608 174 l 608 87 l 521 87 l 521 0 l 434 0 m 347 174 l 434 174 l 434 260 l 434 347 l 434 434 l 434 521 l 347 521 l 260 521 l 260 434 l 260 347 l 260 260 l 260 174 l 347 174 m 347 868 l 434 868 l 434 781 l 347 781 l 260 781 l 260 868 l 347 868 m 434 868 l 434 955 l 521 955 l 521 868 l 434 868 m 260 868 l 174 868 l 174 955 l 260 955 l 260 868 z "},"Ő":{"ha":955,"x_min":174,"x_max":868,"o":"m 694 0 l 608 0 l 521 0 l 434 0 l 347 0 l 260 0 l 260 87 l 174 87 l 174 174 l 174 260 l 174 347 l 174 434 l 174 521 l 174 608 l 174 694 l 174 781 l 260 781 l 260 868 l 347 868 l 347 955 l 434 955 l 434 868 l 521 868 l 521 955 l 608 955 l 608 868 l 694 868 l 781 868 l 781 781 l 868 781 l 868 694 l 868 608 l 868 521 l 868 434 l 868 347 l 868 260 l 868 174 l 868 87 l 781 87 l 781 0 l 694 0 m 608 174 l 694 174 l 694 260 l 694 347 l 694 434 l 694 521 l 694 608 l 694 694 l 608 694 l 521 694 l 434 694 l 347 694 l 347 608 l 347 521 l 347 434 l 347 347 l 347 260 l 347 174 l 434 174 l 521 174 l 608 174 m 608 955 l 608 1042 l 694 1042 l 694 955 l 608 955 m 521 955 l 434 955 l 434 1042 l 521 1042 l 521 955 z "},"ő":{"ha":694,"x_min":87,"x_max":608,"o":"m 347 781 l 347 868 l 347 955 l 434 955 l 434 868 l 434 781 l 347 781 m 174 781 l 174 868 l 174 955 l 260 955 l 260 868 l 260 781 l 174 781 m 434 0 l 347 0 l 260 0 l 174 0 l 174 87 l 87 87 l 87 174 l 87 260 l 87 347 l 87 434 l 87 521 l 87 608 l 174 608 l 174 694 l 260 694 l 347 694 l 434 694 l 521 694 l 521 608 l 608 608 l 608 521 l 608 434 l 608 347 l 608 260 l 608 174 l 608 87 l 521 87 l 521 0 l 434 0 m 347 174 l 434 174 l 434 260 l 434 347 l 434 434 l 434 521 l 347 521 l 260 521 l 260 434 l 260 347 l 260 260 l 260 174 l 347 174 z "},"Œ":{"ha":1302,"x_min":0,"x_max":1215,"o":"m 1128 0 l 1042 0 l 955 0 l 868 0 l 781 0 l 694 0 l 694 87 l 608 87 l 608 0 l 521 0 l 434 0 l 347 0 l 260 0 l 174 0 l 87 0 l 87 87 l 0 87 l 0 174 l 0 260 l 0 347 l 0 434 l 0 521 l 0 608 l 0 694 l 0 781 l 0 868 l 87 868 l 87 955 l 174 955 l 260 955 l 347 955 l 434 955 l 521 955 l 608 955 l 608 868 l 694 868 l 694 955 l 781 955 l 868 955 l 955 955 l 1042 955 l 1128 955 l 1215 955 l 1215 868 l 1215 781 l 1128 781 l 1042 781 l 955 781 l 868 781 l 868 694 l 868 608 l 955 608 l 1042 608 l 1128 608 l 1215 608 l 1215 521 l 1215 434 l 1128 434 l 1042 434 l 955 434 l 868 434 l 868 347 l 868 260 l 868 174 l 955 174 l 1042 174 l 1128 174 l 1215 174 l 1215 87 l 1215 0 l 1128 0 m 434 174 l 521 174 l 521 260 l 521 347 l 521 434 l 521 521 l 521 608 l 521 694 l 521 781 l 434 781 l 347 781 l 260 781 l 174 781 l 174 694 l 174 608 l 174 521 l 174 434 l 174 347 l 174 260 l 174 174 l 260 174 l 347 174 l 434 174 z "},"œ":{"ha":1128,"x_min":87,"x_max":1042,"o":"m 868 0 l 781 0 l 694 0 l 608 0 l 608 87 l 521 87 l 521 0 l 434 0 l 347 0 l 260 0 l 174 0 l 174 87 l 87 87 l 87 174 l 87 260 l 87 347 l 87 434 l 87 521 l 87 608 l 174 608 l 174 694 l 260 694 l 347 694 l 434 694 l 521 694 l 521 608 l 608 608 l 694 608 l 694 694 l 781 694 l 868 694 l 955 694 l 955 608 l 1042 608 l 1042 521 l 1042 434 l 1042 347 l 955 347 l 868 347 l 781 347 l 694 347 l 694 260 l 694 174 l 781 174 l 868 174 l 868 260 l 955 260 l 1042 260 l 1042 174 l 1042 87 l 955 87 l 955 0 l 868 0 m 347 174 l 434 174 l 434 260 l 434 347 l 434 434 l 434 521 l 347 521 l 260 521 l 260 434 l 260 347 l 260 260 l 260 174 l 347 174 m 781 434 l 868 434 l 868 521 l 781 521 l 694 521 l 694 434 l 781 434 z "},"Ŕ":{"ha":868,"x_min":87,"x_max":781,"o":"m 694 0 l 608 0 l 608 87 l 608 174 l 608 260 l 608 347 l 521 347 l 434 347 l 347 347 l 260 347 l 260 260 l 260 174 l 260 87 l 260 0 l 174 0 l 87 0 l 87 87 l 87 174 l 87 260 l 87 347 l 87 434 l 87 521 l 87 608 l 87 694 l 87 781 l 87 868 l 174 868 l 260 868 l 347 868 l 347 955 l 434 955 l 434 868 l 521 868 l 608 868 l 694 868 l 694 781 l 781 781 l 781 694 l 781 608 l 781 521 l 781 434 l 694 434 l 694 347 l 781 347 l 781 260 l 781 174 l 781 87 l 781 0 l 694 0 m 521 521 l 608 521 l 608 608 l 608 694 l 521 694 l 434 694 l 347 694 l 260 694 l 260 608 l 260 521 l 347 521 l 434 521 l 521 521 m 434 955 l 434 1042 l 521 1042 l 521 955 l 434 955 z "},"ŕ":{"ha":694,"x_min":87,"x_max":608,"o":"m 260 781 l 260 868 l 347 868 l 347 781 l 260 781 m 174 0 l 87 0 l 87 87 l 87 174 l 87 260 l 87 347 l 87 434 l 87 521 l 87 608 l 87 694 l 174 694 l 260 694 l 347 694 l 434 694 l 521 694 l 521 608 l 608 608 l 608 521 l 608 434 l 521 434 l 434 434 l 434 521 l 347 521 l 260 521 l 260 434 l 260 347 l 260 260 l 260 174 l 260 87 l 260 0 l 174 0 m 347 868 l 347 955 l 434 955 l 434 868 l 347 868 z "},"Ŗ":{"ha":868,"x_min":87,"x_max":781,"o":"m 434 -347 l 434 -260 l 521 -260 l 521 -347 l 434 -347 m 521 -260 l 521 -174 l 434 -174 l 434 -87 l 434 0 l 521 0 l 608 0 l 608 -87 l 608 -174 l 608 -260 l 521 -260 m 608 0 l 608 87 l 608 174 l 608 260 l 608 347 l 521 347 l 434 347 l 347 347 l 260 347 l 260 260 l 260 174 l 260 87 l 260 0 l 174 0 l 87 0 l 87 87 l 87 174 l 87 260 l 87 347 l 87 434 l 87 521 l 87 608 l 87 694 l 87 781 l 87 868 l 174 868 l 260 868 l 347 868 l 434 868 l 521 868 l 608 868 l 694 868 l 694 781 l 781 781 l 781 694 l 781 608 l 781 521 l 781 434 l 694 434 l 694 347 l 781 347 l 781 260 l 781 174 l 781 87 l 781 0 l 694 0 l 608 0 m 521 521 l 608 521 l 608 608 l 608 694 l 521 694 l 434 694 l 347 694 l 260 694 l 260 608 l 260 521 l 347 521 l 434 521 l 521 521 z "},"ŗ":{"ha":694,"x_min":87,"x_max":608,"o":"m 260 -347 l 260 -260 l 347 -260 l 347 -347 l 260 -347 m 347 -260 l 347 -174 l 260 -174 l 260 -87 l 260 0 l 347 0 l 434 0 l 434 -87 l 434 -174 l 434 -260 l 347 -260 m 260 0 l 174 0 l 87 0 l 87 87 l 87 174 l 87 260 l 87 347 l 87 434 l 87 521 l 87 608 l 87 694 l 174 694 l 260 694 l 347 694 l 434 694 l 521 694 l 521 608 l 608 608 l 608 521 l 608 434 l 521 434 l 434 434 l 434 521 l 347 521 l 260 521 l 260 434 l 260 347 l 260 260 l 260 174 l 260 87 l 260 0 z "},"Ř":{"ha":868,"x_min":87,"x_max":781,"o":"m 694 0 l 608 0 l 608 87 l 608 174 l 608 260 l 608 347 l 521 347 l 434 347 l 347 347 l 260 347 l 260 260 l 260 174 l 260 87 l 260 0 l 174 0 l 87 0 l 87 87 l 87 174 l 87 260 l 87 347 l 87 434 l 87 521 l 87 608 l 87 694 l 87 781 l 87 868 l 174 868 l 260 868 l 347 868 l 347 955 l 434 955 l 521 955 l 521 868 l 608 868 l 694 868 l 694 781 l 781 781 l 781 694 l 781 608 l 781 521 l 781 434 l 694 434 l 694 347 l 781 347 l 781 260 l 781 174 l 781 87 l 781 0 l 694 0 m 521 521 l 608 521 l 608 608 l 608 694 l 521 694 l 434 694 l 347 694 l 260 694 l 260 608 l 260 521 l 347 521 l 434 521 l 521 521 m 521 955 l 521 1042 l 608 1042 l 608 955 l 521 955 m 347 955 l 260 955 l 260 1042 l 347 1042 l 347 955 z "},"ř":{"ha":694,"x_min":87,"x_max":608,"o":"m 174 0 l 87 0 l 87 87 l 87 174 l 87 260 l 87 347 l 87 434 l 87 521 l 87 608 l 87 694 l 174 694 l 260 694 l 347 694 l 434 694 l 521 694 l 521 608 l 608 608 l 608 521 l 608 434 l 521 434 l 434 434 l 434 521 l 347 521 l 260 521 l 260 434 l 260 347 l 260 260 l 260 174 l 260 87 l 260 0 l 174 0 m 260 868 l 347 868 l 347 781 l 260 781 l 174 781 l 174 868 l 260 868 m 347 868 l 347 955 l 434 955 l 434 868 l 347 868 m 174 868 l 87 868 l 87 955 l 174 955 l 174 868 z "},"Ś":{"ha":868,"x_min":87,"x_max":781,"o":"m 608 0 l 521 0 l 434 0 l 347 0 l 260 0 l 174 0 l 174 87 l 87 87 l 87 174 l 87 260 l 174 260 l 260 260 l 260 174 l 347 174 l 434 174 l 521 174 l 608 174 l 608 260 l 608 347 l 521 347 l 434 347 l 347 347 l 260 347 l 174 347 l 174 434 l 87 434 l 87 521 l 87 608 l 87 694 l 87 781 l 174 781 l 174 868 l 260 868 l 347 868 l 347 955 l 434 955 l 434 868 l 521 868 l 608 868 l 694 868 l 694 781 l 781 781 l 781 694 l 781 608 l 694 608 l 608 608 l 608 694 l 521 694 l 434 694 l 347 694 l 260 694 l 260 608 l 260 521 l 347 521 l 434 521 l 521 521 l 608 521 l 694 521 l 694 434 l 781 434 l 781 347 l 781 260 l 781 174 l 781 87 l 694 87 l 694 0 l 608 0 m 434 955 l 434 1042 l 521 1042 l 521 955 l 434 955 z "},"ś":{"ha":694,"x_min":87,"x_max":608,"o":"m 260 781 l 260 868 l 347 868 l 347 781 l 260 781 m 434 0 l 347 0 l 260 0 l 174 0 l 87 0 l 87 87 l 87 174 l 174 174 l 260 174 l 347 174 l 434 174 l 434 260 l 347 260 l 260 260 l 174 260 l 174 347 l 87 347 l 87 434 l 87 521 l 87 608 l 174 608 l 174 694 l 260 694 l 347 694 l 434 694 l 521 694 l 608 694 l 608 608 l 608 521 l 521 521 l 434 521 l 347 521 l 260 521 l 260 434 l 347 434 l 434 434 l 521 434 l 521 347 l 608 347 l 608 260 l 608 174 l 608 87 l 521 87 l 521 0 l 434 0 m 347 868 l 347 955 l 434 955 l 434 868 l 347 868 z "},"Ŝ":{"ha":868,"x_min":87,"x_max":781,"o":"m 608 0 l 521 0 l 434 0 l 347 0 l 260 0 l 174 0 l 174 87 l 87 87 l 87 174 l 87 260 l 174 260 l 260 260 l 260 174 l 347 174 l 434 174 l 521 174 l 608 174 l 608 260 l 608 347 l 521 347 l 434 347 l 347 347 l 260 347 l 174 347 l 174 434 l 87 434 l 87 521 l 87 608 l 87 694 l 87 781 l 174 781 l 174 868 l 260 868 l 260 955 l 347 955 l 347 868 l 434 868 l 521 868 l 521 955 l 608 955 l 608 868 l 694 868 l 694 781 l 781 781 l 781 694 l 781 608 l 694 608 l 608 608 l 608 694 l 521 694 l 434 694 l 347 694 l 260 694 l 260 608 l 260 521 l 347 521 l 434 521 l 521 521 l 608 521 l 694 521 l 694 434 l 781 434 l 781 347 l 781 260 l 781 174 l 781 87 l 694 87 l 694 0 l 608 0 m 521 955 l 434 955 l 347 955 l 347 1042 l 434 1042 l 521 1042 l 521 955 z "},"ŝ":{"ha":694,"x_min":87,"x_max":608,"o":"m 434 781 l 434 868 l 521 868 l 521 781 l 434 781 m 174 781 l 174 868 l 260 868 l 260 781 l 174 781 m 434 0 l 347 0 l 260 0 l 174 0 l 87 0 l 87 87 l 87 174 l 174 174 l 260 174 l 347 174 l 434 174 l 434 260 l 347 260 l 260 260 l 174 260 l 174 347 l 87 347 l 87 434 l 87 521 l 87 608 l 174 608 l 174 694 l 260 694 l 347 694 l 434 694 l 521 694 l 608 694 l 608 608 l 608 521 l 521 521 l 434 521 l 347 521 l 260 521 l 260 434 l 347 434 l 434 434 l 521 434 l 521 347 l 608 347 l 608 260 l 608 174 l 608 87 l 521 87 l 521 0 l 434 0 m 434 868 l 347 868 l 260 868 l 260 955 l 347 955 l 434 955 l 434 868 z "},"Ş":{"ha":868,"x_min":87,"x_max":781,"o":"m 434 -347 l 347 -347 l 347 -260 l 347 -174 l 434 -174 l 434 -87 l 347 -87 l 347 0 l 260 0 l 174 0 l 174 87 l 87 87 l 87 174 l 87 260 l 174 260 l 260 260 l 260 174 l 347 174 l 434 174 l 521 174 l 608 174 l 608 260 l 608 347 l 521 347 l 434 347 l 347 347 l 260 347 l 174 347 l 174 434 l 87 434 l 87 521 l 87 608 l 87 694 l 87 781 l 174 781 l 174 868 l 260 868 l 347 868 l 434 868 l 521 868 l 608 868 l 694 868 l 694 781 l 781 781 l 781 694 l 781 608 l 694 608 l 608 608 l 608 694 l 521 694 l 434 694 l 347 694 l 260 694 l 260 608 l 260 521 l 347 521 l 434 521 l 521 521 l 608 521 l 694 521 l 694 434 l 781 434 l 781 347 l 781 260 l 781 174 l 781 87 l 694 87 l 694 0 l 608 0 l 608 -87 l 608 -174 l 608 -260 l 521 -260 l 521 -347 l 434 -347 z "},"ş":{"ha":694,"x_min":87,"x_max":608,"o":"m 347 -347 l 260 -347 l 260 -260 l 260 -174 l 347 -174 l 347 -87 l 260 -87 l 260 0 l 174 0 l 87 0 l 87 87 l 87 174 l 174 174 l 260 174 l 347 174 l 434 174 l 434 260 l 347 260 l 260 260 l 174 260 l 174 347 l 87 347 l 87 434 l 87 521 l 87 608 l 174 608 l 174 694 l 260 694 l 347 694 l 434 694 l 521 694 l 608 694 l 608 608 l 608 521 l 521 521 l 434 521 l 347 521 l 260 521 l 260 434 l 347 434 l 434 434 l 521 434 l 521 347 l 608 347 l 608 260 l 608 174 l 608 87 l 521 87 l 521 0 l 521 -87 l 521 -174 l 521 -260 l 434 -260 l 434 -347 l 347 -347 z "},"Š":{"ha":868,"x_min":87,"x_max":781,"o":"m 608 0 l 521 0 l 434 0 l 347 0 l 260 0 l 174 0 l 174 87 l 87 87 l 87 174 l 87 260 l 174 260 l 260 260 l 260 174 l 347 174 l 434 174 l 521 174 l 608 174 l 608 260 l 608 347 l 521 347 l 434 347 l 347 347 l 260 347 l 174 347 l 174 434 l 87 434 l 87 521 l 87 608 l 87 694 l 87 781 l 174 781 l 174 868 l 260 868 l 347 868 l 347 955 l 434 955 l 521 955 l 521 868 l 608 868 l 694 868 l 694 781 l 781 781 l 781 694 l 781 608 l 694 608 l 608 608 l 608 694 l 521 694 l 434 694 l 347 694 l 260 694 l 260 608 l 260 521 l 347 521 l 434 521 l 521 521 l 608 521 l 694 521 l 694 434 l 781 434 l 781 347 l 781 260 l 781 174 l 781 87 l 694 87 l 694 0 l 608 0 m 521 955 l 521 1042 l 608 1042 l 608 955 l 521 955 m 347 955 l 260 955 l 260 1042 l 347 1042 l 347 955 z "},"š":{"ha":694,"x_min":87,"x_max":608,"o":"m 434 0 l 347 0 l 260 0 l 174 0 l 87 0 l 87 87 l 87 174 l 174 174 l 260 174 l 347 174 l 434 174 l 434 260 l 347 260 l 260 260 l 174 260 l 174 347 l 87 347 l 87 434 l 87 521 l 87 608 l 174 608 l 174 694 l 260 694 l 347 694 l 434 694 l 521 694 l 608 694 l 608 608 l 608 521 l 521 521 l 434 521 l 347 521 l 260 521 l 260 434 l 347 434 l 434 434 l 521 434 l 521 347 l 608 347 l 608 260 l 608 174 l 608 87 l 521 87 l 521 0 l 434 0 m 347 868 l 434 868 l 434 781 l 347 781 l 260 781 l 260 868 l 347 868 m 434 868 l 434 955 l 521 955 l 521 868 l 434 868 m 260 868 l 174 868 l 174 955 l 260 955 l 260 868 z "},"Ţ":{"ha":868,"x_min":87,"x_max":781,"o":"m 347 -347 l 260 -347 l 260 -260 l 260 -174 l 347 -174 l 347 -87 l 260 -87 l 260 0 l 347 0 l 347 87 l 347 174 l 347 260 l 347 347 l 347 434 l 347 521 l 347 608 l 347 694 l 347 781 l 260 781 l 174 781 l 87 781 l 87 868 l 87 955 l 174 955 l 260 955 l 347 955 l 434 955 l 521 955 l 608 955 l 694 955 l 781 955 l 781 868 l 781 781 l 694 781 l 608 781 l 521 781 l 521 694 l 521 608 l 521 521 l 521 434 l 521 347 l 521 260 l 521 174 l 521 87 l 521 0 l 521 -87 l 521 -174 l 521 -260 l 434 -260 l 434 -347 l 347 -347 z "},"ţ":{"ha":434,"x_min":0,"x_max":347,"o":"m 174 -347 l 87 -347 l 87 -260 l 87 -174 l 174 -174 l 174 -87 l 87 -87 l 87 0 l 174 0 l 174 87 l 87 87 l 87 174 l 87 260 l 87 347 l 87 434 l 87 521 l 0 521 l 0 608 l 0 694 l 87 694 l 87 781 l 87 868 l 87 955 l 174 955 l 260 955 l 260 868 l 260 781 l 260 694 l 347 694 l 347 608 l 347 521 l 260 521 l 260 434 l 260 347 l 260 260 l 260 174 l 347 174 l 347 87 l 347 0 l 347 -87 l 347 -174 l 347 -260 l 260 -260 l 260 -347 l 174 -347 z "},"Ť":{"ha":868,"x_min":87,"x_max":781,"o":"m 434 0 l 347 0 l 347 87 l 347 174 l 347 260 l 347 347 l 347 434 l 347 521 l 347 608 l 347 694 l 260 694 l 174 694 l 87 694 l 87 781 l 87 868 l 174 868 l 260 868 l 347 868 l 347 955 l 434 955 l 521 955 l 521 868 l 608 868 l 694 868 l 781 868 l 781 781 l 781 694 l 694 694 l 608 694 l 521 694 l 521 608 l 521 521 l 521 434 l 521 347 l 521 260 l 521 174 l 521 87 l 521 0 l 434 0 m 521 955 l 521 1042 l 608 1042 l 608 955 l 521 955 m 347 955 l 260 955 l 260 1042 l 347 1042 l 347 955 z "},"ť":{"ha":608,"x_min":0,"x_max":521,"o":"m 260 0 l 174 0 l 174 87 l 87 87 l 87 174 l 87 260 l 87 347 l 87 434 l 87 521 l 0 521 l 0 608 l 0 694 l 87 694 l 87 781 l 87 868 l 87 955 l 174 955 l 260 955 l 260 868 l 260 781 l 260 694 l 347 694 l 347 608 l 347 521 l 260 521 l 260 434 l 260 347 l 260 260 l 260 174 l 347 174 l 347 87 l 347 0 l 260 0 m 347 694 l 347 781 l 434 781 l 434 694 l 347 694 m 434 781 l 434 868 l 347 868 l 347 955 l 347 1042 l 434 1042 l 521 1042 l 521 955 l 521 868 l 521 781 l 434 781 z "},"Ŧ":{"ha":868,"x_min":87,"x_max":781,"o":"m 434 0 l 347 0 l 347 87 l 347 174 l 347 260 l 347 347 l 260 347 l 174 347 l 174 434 l 174 521 l 260 521 l 347 521 l 347 608 l 347 694 l 347 781 l 260 781 l 174 781 l 87 781 l 87 868 l 87 955 l 174 955 l 260 955 l 347 955 l 434 955 l 521 955 l 608 955 l 694 955 l 781 955 l 781 868 l 781 781 l 694 781 l 608 781 l 521 781 l 521 694 l 521 608 l 521 521 l 608 521 l 694 521 l 694 434 l 694 347 l 608 347 l 521 347 l 521 260 l 521 174 l 521 87 l 521 0 l 434 0 z "},"ŧ":{"ha":434,"x_min":0,"x_max":347,"o":"m 260 0 l 174 0 l 174 87 l 87 87 l 87 174 l 87 260 l 0 260 l 0 347 l 0 434 l 87 434 l 87 521 l 0 521 l 0 608 l 0 694 l 87 694 l 87 781 l 87 868 l 87 955 l 174 955 l 260 955 l 260 868 l 260 781 l 260 694 l 347 694 l 347 608 l 347 521 l 260 521 l 260 434 l 347 434 l 347 347 l 347 260 l 260 260 l 260 174 l 347 174 l 347 87 l 347 0 l 260 0 z "},"Ũ":{"ha":955,"x_min":174,"x_max":868,"o":"m 521 868 l 521 955 l 608 955 l 608 868 l 521 868 m 694 0 l 608 0 l 521 0 l 434 0 l 347 0 l 260 0 l 260 87 l 174 87 l 174 174 l 174 260 l 174 347 l 174 434 l 174 521 l 174 608 l 174 694 l 174 781 l 174 868 l 260 868 l 347 868 l 347 781 l 347 694 l 347 608 l 347 521 l 347 434 l 347 347 l 347 260 l 347 174 l 434 174 l 521 174 l 608 174 l 694 174 l 694 260 l 694 347 l 694 434 l 694 521 l 694 608 l 694 694 l 694 781 l 694 868 l 781 868 l 868 868 l 868 781 l 868 694 l 868 608 l 868 521 l 868 434 l 868 347 l 868 260 l 868 174 l 868 87 l 781 87 l 781 0 l 694 0 m 347 868 l 347 955 l 434 955 l 434 868 l 347 868 m 608 955 l 608 1042 l 694 1042 l 694 955 l 608 955 m 521 955 l 434 955 l 434 1042 l 521 1042 l 521 955 z "},"ũ":{"ha":694,"x_min":87,"x_max":608,"o":"m 347 781 l 347 868 l 434 868 l 434 781 l 347 781 m 174 781 l 174 868 l 260 868 l 260 781 l 174 781 m 521 0 l 434 0 l 347 0 l 260 0 l 174 0 l 174 87 l 87 87 l 87 174 l 87 260 l 87 347 l 87 434 l 87 521 l 87 608 l 87 694 l 174 694 l 260 694 l 260 608 l 260 521 l 260 434 l 260 347 l 260 260 l 260 174 l 347 174 l 434 174 l 434 260 l 434 347 l 434 434 l 434 521 l 434 608 l 434 694 l 521 694 l 608 694 l 608 608 l 608 521 l 608 434 l 608 347 l 608 260 l 608 174 l 608 87 l 608 0 l 521 0 m 434 868 l 434 955 l 521 955 l 521 868 l 434 868 m 347 868 l 260 868 l 260 955 l 347 955 l 347 868 z "},"Ū":{"ha":955,"x_min":174,"x_max":868,"o":"m 694 0 l 608 0 l 521 0 l 434 0 l 347 0 l 260 0 l 260 87 l 174 87 l 174 174 l 174 260 l 174 347 l 174 434 l 174 521 l 174 608 l 174 694 l 174 781 l 174 868 l 260 868 l 347 868 l 347 781 l 347 694 l 347 608 l 347 521 l 347 434 l 347 347 l 347 260 l 347 174 l 434 174 l 521 174 l 608 174 l 694 174 l 694 260 l 694 347 l 694 434 l 694 521 l 694 608 l 694 694 l 694 781 l 694 868 l 781 868 l 868 868 l 868 781 l 868 694 l 868 608 l 868 521 l 868 434 l 868 347 l 868 260 l 868 174 l 868 87 l 781 87 l 781 0 l 694 0 m 608 1042 l 694 1042 l 694 955 l 608 955 l 521 955 l 434 955 l 347 955 l 347 1042 l 434 1042 l 521 1042 l 608 1042 z "},"ū":{"ha":694,"x_min":87,"x_max":608,"o":"m 521 0 l 434 0 l 347 0 l 260 0 l 174 0 l 174 87 l 87 87 l 87 174 l 87 260 l 87 347 l 87 434 l 87 521 l 87 608 l 87 694 l 174 694 l 260 694 l 260 608 l 260 521 l 260 434 l 260 347 l 260 260 l 260 174 l 347 174 l 434 174 l 434 260 l 434 347 l 434 434 l 434 521 l 434 608 l 434 694 l 521 694 l 608 694 l 608 608 l 608 521 l 608 434 l 608 347 l 608 260 l 608 174 l 608 87 l 608 0 l 521 0 m 434 868 l 521 868 l 521 781 l 434 781 l 347 781 l 260 781 l 174 781 l 174 868 l 260 868 l 347 868 l 434 868 z "},"Ŭ":{"ha":955,"x_min":174,"x_max":868,"o":"m 694 0 l 608 0 l 521 0 l 434 0 l 347 0 l 260 0 l 260 87 l 174 87 l 174 174 l 174 260 l 174 347 l 174 434 l 174 521 l 174 608 l 174 694 l 174 781 l 174 868 l 260 868 l 347 868 l 347 781 l 347 694 l 347 608 l 347 521 l 347 434 l 347 347 l 347 260 l 347 174 l 434 174 l 521 174 l 608 174 l 694 174 l 694 260 l 694 347 l 694 434 l 694 521 l 694 608 l 694 694 l 694 781 l 694 868 l 781 868 l 868 868 l 868 781 l 868 694 l 868 608 l 868 521 l 868 434 l 868 347 l 868 260 l 868 174 l 868 87 l 781 87 l 781 0 l 694 0 m 521 955 l 608 955 l 608 868 l 521 868 l 434 868 l 434 955 l 521 955 m 608 955 l 608 1042 l 694 1042 l 694 955 l 608 955 m 434 955 l 347 955 l 347 1042 l 434 1042 l 434 955 z "},"ŭ":{"ha":694,"x_min":87,"x_max":608,"o":"m 521 0 l 434 0 l 347 0 l 260 0 l 174 0 l 174 87 l 87 87 l 87 174 l 87 260 l 87 347 l 87 434 l 87 521 l 87 608 l 87 694 l 174 694 l 260 694 l 260 608 l 260 521 l 260 434 l 260 347 l 260 260 l 260 174 l 347 174 l 434 174 l 434 260 l 434 347 l 434 434 l 434 521 l 434 608 l 434 694 l 521 694 l 608 694 l 608 608 l 608 521 l 608 434 l 608 347 l 608 260 l 608 174 l 608 87 l 608 0 l 521 0 m 347 868 l 434 868 l 434 781 l 347 781 l 260 781 l 260 868 l 347 868 m 434 868 l 434 955 l 521 955 l 521 868 l 434 868 m 260 868 l 174 868 l 174 955 l 260 955 l 260 868 z "},"Ů":{"ha":955,"x_min":174,"x_max":868,"o":"m 694 0 l 608 0 l 521 0 l 434 0 l 347 0 l 260 0 l 260 87 l 174 87 l 174 174 l 174 260 l 174 347 l 174 434 l 174 521 l 174 608 l 174 694 l 174 781 l 174 868 l 260 868 l 347 868 l 347 781 l 347 694 l 347 608 l 347 521 l 347 434 l 347 347 l 347 260 l 347 174 l 434 174 l 521 174 l 608 174 l 694 174 l 694 260 l 694 347 l 694 434 l 694 521 l 694 608 l 694 694 l 694 781 l 694 868 l 781 868 l 868 868 l 868 781 l 868 694 l 868 608 l 868 521 l 868 434 l 868 347 l 868 260 l 868 174 l 868 87 l 781 87 l 781 0 l 694 0 m 521 868 l 608 868 l 608 781 l 521 781 l 434 781 l 434 868 l 521 868 m 694 868 l 608 868 l 608 955 l 694 955 l 694 868 m 434 868 l 347 868 l 347 955 l 434 955 l 434 868 m 608 955 l 521 955 l 434 955 l 434 1042 l 521 1042 l 608 1042 l 608 955 z "},"ů":{"ha":694,"x_min":87,"x_max":608,"o":"m 521 0 l 434 0 l 347 0 l 260 0 l 174 0 l 174 87 l 87 87 l 87 174 l 87 260 l 87 347 l 87 434 l 87 521 l 87 608 l 87 694 l 174 694 l 260 694 l 260 608 l 260 521 l 260 434 l 260 347 l 260 260 l 260 174 l 347 174 l 434 174 l 434 260 l 434 347 l 434 434 l 434 521 l 434 608 l 434 694 l 521 694 l 608 694 l 608 608 l 608 521 l 608 434 l 608 347 l 608 260 l 608 174 l 608 87 l 608 0 l 521 0 m 434 694 l 347 694 l 260 694 l 260 781 l 347 781 l 434 781 l 434 694 m 434 781 l 434 868 l 521 868 l 521 781 l 434 781 m 260 781 l 174 781 l 174 868 l 260 868 l 260 781 m 434 868 l 347 868 l 260 868 l 260 955 l 347 955 l 434 955 l 434 868 z "},"Ű":{"ha":955,"x_min":174,"x_max":868,"o":"m 521 868 l 521 955 l 608 955 l 608 868 l 521 868 m 694 0 l 608 0 l 521 0 l 434 0 l 347 0 l 260 0 l 260 87 l 174 87 l 174 174 l 174 260 l 174 347 l 174 434 l 174 521 l 174 608 l 174 694 l 174 781 l 174 868 l 260 868 l 347 868 l 347 781 l 347 694 l 347 608 l 347 521 l 347 434 l 347 347 l 347 260 l 347 174 l 434 174 l 521 174 l 608 174 l 694 174 l 694 260 l 694 347 l 694 434 l 694 521 l 694 608 l 694 694 l 694 781 l 694 868 l 781 868 l 868 868 l 868 781 l 868 694 l 868 608 l 868 521 l 868 434 l 868 347 l 868 260 l 868 174 l 868 87 l 781 87 l 781 0 l 694 0 m 347 868 l 347 955 l 434 955 l 434 868 l 347 868 m 608 955 l 608 1042 l 694 1042 l 694 955 l 608 955 m 521 955 l 434 955 l 434 1042 l 521 1042 l 521 955 z "},"ű":{"ha":694,"x_min":87,"x_max":608,"o":"m 347 781 l 347 868 l 347 955 l 434 955 l 434 868 l 434 781 l 347 781 m 174 781 l 174 868 l 174 955 l 260 955 l 260 868 l 260 781 l 174 781 m 521 0 l 434 0 l 347 0 l 260 0 l 174 0 l 174 87 l 87 87 l 87 174 l 87 260 l 87 347 l 87 434 l 87 521 l 87 608 l 87 694 l 174 694 l 260 694 l 260 608 l 260 521 l 260 434 l 260 347 l 260 260 l 260 174 l 347 174 l 434 174 l 434 260 l 434 347 l 434 434 l 434 521 l 434 608 l 434 694 l 521 694 l 608 694 l 608 608 l 608 521 l 608 434 l 608 347 l 608 260 l 608 174 l 608 87 l 608 0 l 521 0 z "},"Ų":{"ha":955,"x_min":174,"x_max":868,"o":"m 521 -347 l 434 -347 l 434 -260 l 434 -174 l 521 -174 l 521 -87 l 434 -87 l 434 0 l 347 0 l 260 0 l 260 87 l 174 87 l 174 174 l 174 260 l 174 347 l 174 434 l 174 521 l 174 608 l 174 694 l 174 781 l 174 868 l 174 955 l 260 955 l 347 955 l 347 868 l 347 781 l 347 694 l 347 608 l 347 521 l 347 434 l 347 347 l 347 260 l 347 174 l 434 174 l 521 174 l 608 174 l 694 174 l 694 260 l 694 347 l 694 434 l 694 521 l 694 608 l 694 694 l 694 781 l 694 868 l 694 955 l 781 955 l 868 955 l 868 868 l 868 781 l 868 694 l 868 608 l 868 521 l 868 434 l 868 347 l 868 260 l 868 174 l 868 87 l 781 87 l 781 0 l 694 0 l 694 -87 l 694 -174 l 694 -260 l 608 -260 l 608 -347 l 521 -347 z "},"ų":{"ha":694,"x_min":87,"x_max":608,"o":"m 434 -347 l 347 -347 l 347 -260 l 347 -174 l 434 -174 l 434 -87 l 347 -87 l 347 0 l 260 0 l 174 0 l 174 87 l 87 87 l 87 174 l 87 260 l 87 347 l 87 434 l 87 521 l 87 608 l 87 694 l 174 694 l 260 694 l 260 608 l 260 521 l 260 434 l 260 347 l 260 260 l 260 174 l 347 174 l 434 174 l 434 260 l 434 347 l 434 434 l 434 521 l 434 608 l 434 694 l 521 694 l 608 694 l 608 608 l 608 521 l 608 434 l 608 347 l 608 260 l 608 174 l 608 87 l 608 0 l 608 -87 l 608 -174 l 608 -260 l 521 -260 l 521 -347 l 434 -347 z "},"Ŵ":{"ha":1042,"x_min":87,"x_max":955,"o":"m 608 868 l 608 955 l 694 955 l 694 868 l 608 868 m 347 868 l 347 955 l 434 955 l 434 868 l 347 868 m 694 0 l 608 0 l 608 87 l 521 87 l 434 87 l 434 0 l 347 0 l 260 0 l 260 87 l 174 87 l 174 174 l 87 174 l 87 260 l 87 347 l 87 434 l 87 521 l 87 608 l 87 694 l 87 781 l 87 868 l 174 868 l 260 868 l 260 781 l 260 694 l 260 608 l 260 521 l 260 434 l 260 347 l 260 260 l 347 260 l 434 260 l 434 347 l 434 434 l 434 521 l 434 608 l 521 608 l 608 608 l 608 521 l 608 434 l 608 347 l 608 260 l 694 260 l 781 260 l 781 347 l 781 434 l 781 521 l 781 608 l 781 694 l 781 781 l 781 868 l 868 868 l 955 868 l 955 781 l 955 694 l 955 608 l 955 521 l 955 434 l 955 347 l 955 260 l 955 174 l 868 174 l 868 87 l 781 87 l 781 0 l 694 0 m 608 955 l 521 955 l 434 955 l 434 1042 l 521 1042 l 608 1042 l 608 955 z "},"ŵ":{"ha":1042,"x_min":87,"x_max":955,"o":"m 608 781 l 608 868 l 694 868 l 694 781 l 608 781 m 347 781 l 347 868 l 434 868 l 434 781 l 347 781 m 868 0 l 781 0 l 694 0 l 608 0 l 521 0 l 434 0 l 347 0 l 260 0 l 174 0 l 174 87 l 87 87 l 87 174 l 87 260 l 87 347 l 87 434 l 87 521 l 87 608 l 87 694 l 174 694 l 260 694 l 260 608 l 260 521 l 260 434 l 260 347 l 260 260 l 260 174 l 347 174 l 434 174 l 434 260 l 434 347 l 434 434 l 434 521 l 434 608 l 434 694 l 521 694 l 608 694 l 608 608 l 608 521 l 608 434 l 608 347 l 608 260 l 608 174 l 694 174 l 781 174 l 781 260 l 781 347 l 781 434 l 781 521 l 781 608 l 781 694 l 868 694 l 955 694 l 955 608 l 955 521 l 955 434 l 955 347 l 955 260 l 955 174 l 955 87 l 955 0 l 868 0 m 608 868 l 521 868 l 434 868 l 434 955 l 521 955 l 608 955 l 608 868 z "},"Ŷ":{"ha":868,"x_min":87,"x_max":781,"o":"m 434 0 l 347 0 l 347 87 l 347 174 l 347 260 l 347 347 l 347 434 l 260 434 l 260 521 l 174 521 l 174 608 l 174 694 l 87 694 l 87 781 l 87 868 l 174 868 l 260 868 l 260 781 l 347 781 l 347 694 l 347 608 l 434 608 l 521 608 l 521 694 l 521 781 l 608 781 l 608 868 l 694 868 l 781 868 l 781 781 l 781 694 l 694 694 l 694 608 l 694 521 l 608 521 l 608 434 l 521 434 l 521 347 l 521 260 l 521 174 l 521 87 l 521 0 l 434 0 m 608 868 l 521 868 l 521 955 l 608 955 l 608 868 m 260 868 l 260 955 l 347 955 l 347 868 l 260 868 m 521 955 l 434 955 l 347 955 l 347 1042 l 434 1042 l 521 1042 l 521 955 z "},"ŷ":{"ha":694,"x_min":87,"x_max":608,"o":"m 434 781 l 434 868 l 521 868 l 521 781 l 434 781 m 174 781 l 174 868 l 260 868 l 260 781 l 174 781 m 260 -260 l 174 -260 l 87 -260 l 87 -174 l 87 -87 l 174 -87 l 260 -87 l 260 0 l 174 0 l 174 87 l 87 87 l 87 174 l 87 260 l 87 347 l 87 434 l 87 521 l 87 608 l 87 694 l 174 694 l 260 694 l 260 608 l 260 521 l 260 434 l 260 347 l 260 260 l 260 174 l 347 174 l 434 174 l 434 260 l 434 347 l 434 434 l 434 521 l 434 608 l 434 694 l 521 694 l 608 694 l 608 608 l 608 521 l 608 434 l 608 347 l 608 260 l 608 174 l 608 87 l 521 87 l 521 0 l 521 -87 l 434 -87 l 434 -174 l 347 -174 l 347 -260 l 260 -260 m 434 868 l 347 868 l 260 868 l 260 955 l 347 955 l 434 955 l 434 868 z "},"Ÿ":{"ha":868,"x_min":87,"x_max":781,"o":"m 521 955 l 521 1042 l 608 1042 l 608 955 l 521 955 m 260 955 l 260 1042 l 347 1042 l 347 955 l 260 955 m 434 0 l 347 0 l 347 87 l 347 174 l 347 260 l 347 347 l 347 434 l 260 434 l 260 521 l 174 521 l 174 608 l 174 694 l 87 694 l 87 781 l 87 868 l 174 868 l 260 868 l 260 781 l 347 781 l 347 694 l 347 608 l 434 608 l 521 608 l 521 694 l 521 781 l 608 781 l 608 868 l 694 868 l 781 868 l 781 781 l 781 694 l 694 694 l 694 608 l 694 521 l 608 521 l 608 434 l 521 434 l 521 347 l 521 260 l 521 174 l 521 87 l 521 0 l 434 0 z "},"Ź":{"ha":955,"x_min":0,"x_max":868,"o":"m 781 0 l 694 0 l 608 0 l 521 0 l 434 0 l 347 0 l 260 0 l 174 0 l 87 0 l 0 0 l 0 87 l 0 174 l 87 174 l 87 260 l 174 260 l 174 347 l 260 347 l 260 434 l 347 434 l 347 521 l 434 521 l 434 608 l 521 608 l 521 694 l 434 694 l 347 694 l 260 694 l 174 694 l 87 694 l 0 694 l 0 781 l 0 868 l 87 868 l 174 868 l 260 868 l 347 868 l 347 955 l 434 955 l 434 868 l 521 868 l 608 868 l 694 868 l 781 868 l 868 868 l 868 781 l 868 694 l 781 694 l 781 608 l 694 608 l 694 521 l 608 521 l 608 434 l 521 434 l 521 347 l 434 347 l 434 260 l 347 260 l 347 174 l 434 174 l 521 174 l 608 174 l 694 174 l 781 174 l 868 174 l 868 87 l 868 0 l 781 0 m 434 955 l 434 1042 l 521 1042 l 521 955 l 434 955 z "},"ź":{"ha":694,"x_min":87,"x_max":608,"o":"m 260 781 l 260 868 l 347 868 l 347 781 l 260 781 m 521 0 l 434 0 l 347 0 l 260 0 l 174 0 l 87 0 l 87 87 l 87 174 l 174 174 l 174 260 l 260 260 l 260 347 l 260 434 l 347 434 l 347 521 l 260 521 l 174 521 l 87 521 l 87 608 l 87 694 l 174 694 l 260 694 l 347 694 l 434 694 l 521 694 l 608 694 l 608 608 l 608 521 l 521 521 l 521 434 l 434 434 l 434 347 l 434 260 l 347 260 l 347 174 l 434 174 l 521 174 l 608 174 l 608 87 l 608 0 l 521 0 m 347 868 l 347 955 l 434 955 l 434 868 l 347 868 z "},"Ż":{"ha":955,"x_min":0,"x_max":868,"o":"m 781 0 l 694 0 l 608 0 l 521 0 l 434 0 l 347 0 l 260 0 l 174 0 l 87 0 l 0 0 l 0 87 l 0 174 l 87 174 l 87 260 l 174 260 l 174 347 l 260 347 l 260 434 l 347 434 l 347 521 l 434 521 l 434 608 l 521 608 l 521 694 l 434 694 l 347 694 l 260 694 l 174 694 l 87 694 l 0 694 l 0 781 l 0 868 l 87 868 l 174 868 l 260 868 l 347 868 l 434 868 l 434 955 l 521 955 l 521 868 l 608 868 l 694 868 l 781 868 l 868 868 l 868 781 l 868 694 l 781 694 l 781 608 l 694 608 l 694 521 l 608 521 l 608 434 l 521 434 l 521 347 l 434 347 l 434 260 l 347 260 l 347 174 l 434 174 l 521 174 l 608 174 l 694 174 l 781 174 l 868 174 l 868 87 l 868 0 l 781 0 m 434 955 l 347 955 l 347 1042 l 434 1042 l 434 955 z "},"ż":{"ha":694,"x_min":87,"x_max":608,"o":"m 347 781 l 347 868 l 434 868 l 434 781 l 347 781 m 521 0 l 434 0 l 347 0 l 260 0 l 174 0 l 87 0 l 87 87 l 87 174 l 174 174 l 174 260 l 260 260 l 260 347 l 260 434 l 347 434 l 347 521 l 260 521 l 174 521 l 87 521 l 87 608 l 87 694 l 174 694 l 260 694 l 347 694 l 434 694 l 521 694 l 608 694 l 608 608 l 608 521 l 521 521 l 521 434 l 434 434 l 434 347 l 434 260 l 347 260 l 347 174 l 434 174 l 521 174 l 608 174 l 608 87 l 608 0 l 521 0 m 347 868 l 260 868 l 260 955 l 347 955 l 347 868 z "},"Ž":{"ha":955,"x_min":0,"x_max":868,"o":"m 781 0 l 694 0 l 608 0 l 521 0 l 434 0 l 347 0 l 260 0 l 174 0 l 87 0 l 0 0 l 0 87 l 0 174 l 87 174 l 87 260 l 174 260 l 174 347 l 260 347 l 260 434 l 347 434 l 347 521 l 434 521 l 434 608 l 521 608 l 521 694 l 434 694 l 347 694 l 260 694 l 174 694 l 87 694 l 0 694 l 0 781 l 0 868 l 87 868 l 174 868 l 260 868 l 347 868 l 347 955 l 434 955 l 521 955 l 521 868 l 608 868 l 694 868 l 781 868 l 868 868 l 868 781 l 868 694 l 781 694 l 781 608 l 694 608 l 694 521 l 608 521 l 608 434 l 521 434 l 521 347 l 434 347 l 434 260 l 347 260 l 347 174 l 434 174 l 521 174 l 608 174 l 694 174 l 781 174 l 868 174 l 868 87 l 868 0 l 781 0 m 521 955 l 521 1042 l 608 1042 l 608 955 l 521 955 m 347 955 l 260 955 l 260 1042 l 347 1042 l 347 955 z "},"ž":{"ha":694,"x_min":87,"x_max":608,"o":"m 521 0 l 434 0 l 347 0 l 260 0 l 174 0 l 87 0 l 87 87 l 87 174 l 174 174 l 174 260 l 260 260 l 260 347 l 260 434 l 347 434 l 347 521 l 260 521 l 174 521 l 87 521 l 87 608 l 87 694 l 174 694 l 260 694 l 347 694 l 434 694 l 521 694 l 608 694 l 608 608 l 608 521 l 521 521 l 521 434 l 434 434 l 434 347 l 434 260 l 347 260 l 347 174 l 434 174 l 521 174 l 608 174 l 608 87 l 608 0 l 521 0 m 347 868 l 434 868 l 434 781 l 347 781 l 260 781 l 260 868 l 347 868 m 434 868 l 434 955 l 521 955 l 521 868 l 434 868 m 260 868 l 174 868 l 174 955 l 260 955 l 260 868 z "},"€":{"ha":868,"x_min":87,"x_max":781,"o":"m 608 0 l 521 0 l 434 0 l 347 0 l 347 87 l 260 87 l 260 174 l 174 174 l 174 260 l 87 260 l 87 347 l 87 434 l 174 434 l 174 521 l 87 521 l 87 608 l 87 694 l 174 694 l 174 781 l 260 781 l 260 868 l 347 868 l 347 955 l 434 955 l 521 955 l 608 955 l 694 955 l 694 868 l 781 868 l 781 781 l 781 694 l 694 694 l 608 694 l 608 781 l 521 781 l 434 781 l 434 694 l 521 694 l 608 694 l 608 608 l 608 521 l 521 521 l 434 521 l 347 521 l 347 434 l 434 434 l 521 434 l 608 434 l 608 347 l 608 260 l 521 260 l 434 260 l 434 174 l 521 174 l 608 174 l 608 260 l 694 260 l 781 260 l 781 174 l 781 87 l 694 87 l 694 0 l 608 0 z "},"　":{"ha":1389,"x_min":0,"x_max":0,"o":""}}}
